<ttFont>
    <TTGlyph name="A" xMin="9" yMin="-11" xMax="1311" yMax="1479">
      <contour>
        <pt x="427" y="178" on="1"/>
        <pt x="244" y="178" on="0"/>
        <pt x="177" y="181" on="1"/>
        <pt x="148" y="112" on="1"/>
        <pt x="135" y="83" on="0"/>
        <pt x="124" y="51" on="1"/>
        <pt x="101" y="-11" on="0"/>
        <pt x="60" y="-11" on="1"/>
        <pt x="41" y="-11" on="0"/>
        <pt x="17" y="13" on="0"/>
        <pt x="17" y="26" on="1"/>
        <pt x="17" y="48" on="0"/>
        <pt x="36" y="75" on="1"/>
        <pt x="66" y="117" on="0"/>
        <pt x="95" y="185" on="1"/>
        <pt x="9" y="193" on="0"/>
        <pt x="9" y="277" on="0"/>
        <pt x="58" y="277" on="1"/>
        <pt x="88" y="277" on="0"/>
        <pt x="128" y="267" on="1"/>
        <pt x="627" y="1479" on="1"/>
        <pt x="1311" y="0" on="1"/>
        <pt x="790" y="0" on="1"/>
        <pt x="707" y="178" on="1"/>
      </contour>
      <contour>
        <pt x="209" y="259" on="1"/>
        <pt x="305" y="251" on="0"/>
        <pt x="381" y="251" on="1"/>
        <pt x="674" y="251" on="1"/>
        <pt x="424" y="790" on="1"/>
      </contour>
    </TTGlyph>
    <TTGlyph name="AE" xMin="1" yMin="-11" xMax="1556" yMax="1418">
      <contour>
        <pt x="419" y="178" on="1"/>
        <pt x="236" y="178" on="0"/>
        <pt x="168" y="181" on="1"/>
        <pt x="138" y="112" on="1"/>
        <pt x="126" y="83" on="0"/>
        <pt x="114" y="51" on="1"/>
        <pt x="92" y="-11" on="0"/>
        <pt x="51" y="-11" on="1"/>
        <pt x="32" y="-11" on="0"/>
        <pt x="8" y="13" on="0"/>
        <pt x="8" y="26" on="1"/>
        <pt x="8" y="48" on="0"/>
        <pt x="28" y="75" on="1"/>
        <pt x="61" y="123" on="0"/>
        <pt x="86" y="185" on="1"/>
        <pt x="1" y="193" on="0"/>
        <pt x="1" y="277" on="0"/>
        <pt x="50" y="277" on="1"/>
        <pt x="80" y="277" on="0"/>
        <pt x="120" y="267" on="1"/>
        <pt x="610" y="1415" on="1"/>
        <pt x="611" y="1414" on="1"/>
        <pt x="611" y="1415" on="1"/>
        <pt x="1005" y="1415" on="0"/>
        <pt x="1400" y="1415" on="1"/>
        <pt x="1400" y="1415" on="0"/>
        <pt x="1481" y="1418" on="1"/>
        <pt x="1556" y="1418" on="0"/>
        <pt x="1556" y="1374" on="1"/>
        <pt x="1556" y="1357" on="0"/>
        <pt x="1531" y="1328" on="0"/>
        <pt x="1514" y="1328" on="1"/>
        <pt x="1488" y="1328" on="0"/>
        <pt x="1460" y="1334" on="1"/>
        <pt x="1417" y="1343" on="0"/>
        <pt x="1342" y="1343" on="1"/>
        <pt x="1121" y="1343" on="1"/>
        <pt x="1121" y="1038" on="1"/>
        <pt x="1303" y="1038" on="1"/>
        <pt x="1426" y="1043" on="1"/>
        <pt x="1448" y="1043" on="0"/>
        <pt x="1479" y="1022" on="0"/>
        <pt x="1479" y="1003" on="1"/>
        <pt x="1479" y="961" on="0"/>
        <pt x="1423" y="961" on="1"/>
        <pt x="1380" y="962" on="1"/>
        <pt x="1347" y="965" on="0"/>
        <pt x="1325" y="965" on="1"/>
        <pt x="1121" y="965" on="1"/>
        <pt x="1121" y="73" on="1"/>
        <pt x="1342" y="73" on="1"/>
        <pt x="1416" y="73" on="0"/>
        <pt x="1447" y="79" on="1"/>
        <pt x="1484" y="86" on="0"/>
        <pt x="1505" y="86" on="1"/>
        <pt x="1556" y="86" on="0"/>
        <pt x="1556" y="46" on="1"/>
        <pt x="1556" y="28" on="0"/>
        <pt x="1512" y="0" on="0"/>
        <pt x="1458" y="0" on="1"/>
        <pt x="611" y="0" on="1"/>
        <pt x="611" y="178" on="1"/>
      </contour>
      <contour>
        <pt x="201" y="259" on="1"/>
        <pt x="297" y="251" on="0"/>
        <pt x="373" y="251" on="1"/>
        <pt x="611" y="251" on="1"/>
        <pt x="611" y="1217" on="1"/>
        <pt x="610" y="1217" on="1"/>
      </contour>
    </TTGlyph>
    <TTGlyph name="AEacute" xMin="1" yMin="-11" xMax="1556" yMax="1812">
      <contour>
        <pt x="419" y="178" on="1"/>
        <pt x="236" y="178" on="0"/>
        <pt x="168" y="181" on="1"/>
        <pt x="138" y="112" on="1"/>
        <pt x="126" y="83" on="0"/>
        <pt x="114" y="51" on="1"/>
        <pt x="92" y="-11" on="0"/>
        <pt x="51" y="-11" on="1"/>
        <pt x="32" y="-11" on="0"/>
        <pt x="8" y="13" on="0"/>
        <pt x="8" y="26" on="1"/>
        <pt x="8" y="48" on="0"/>
        <pt x="28" y="75" on="1"/>
        <pt x="61" y="123" on="0"/>
        <pt x="86" y="185" on="1"/>
        <pt x="1" y="193" on="0"/>
        <pt x="1" y="277" on="0"/>
        <pt x="50" y="277" on="1"/>
        <pt x="80" y="277" on="0"/>
        <pt x="120" y="267" on="1"/>
        <pt x="610" y="1415" on="1"/>
        <pt x="611" y="1414" on="1"/>
        <pt x="611" y="1415" on="1"/>
        <pt x="1005" y="1415" on="0"/>
        <pt x="1400" y="1415" on="1"/>
        <pt x="1400" y="1415" on="0"/>
        <pt x="1481" y="1418" on="1"/>
        <pt x="1556" y="1418" on="0"/>
        <pt x="1556" y="1374" on="1"/>
        <pt x="1556" y="1357" on="0"/>
        <pt x="1531" y="1328" on="0"/>
        <pt x="1514" y="1328" on="1"/>
        <pt x="1488" y="1328" on="0"/>
        <pt x="1460" y="1334" on="1"/>
        <pt x="1417" y="1343" on="0"/>
        <pt x="1342" y="1343" on="1"/>
        <pt x="1121" y="1343" on="1"/>
        <pt x="1121" y="1038" on="1"/>
        <pt x="1303" y="1038" on="1"/>
        <pt x="1426" y="1043" on="1"/>
        <pt x="1448" y="1043" on="0"/>
        <pt x="1479" y="1022" on="0"/>
        <pt x="1479" y="1003" on="1"/>
        <pt x="1479" y="961" on="0"/>
        <pt x="1423" y="961" on="1"/>
        <pt x="1380" y="962" on="1"/>
        <pt x="1347" y="965" on="0"/>
        <pt x="1325" y="965" on="1"/>
        <pt x="1121" y="965" on="1"/>
        <pt x="1121" y="73" on="1"/>
        <pt x="1342" y="73" on="1"/>
        <pt x="1416" y="73" on="0"/>
        <pt x="1447" y="79" on="1"/>
        <pt x="1484" y="86" on="0"/>
        <pt x="1505" y="86" on="1"/>
        <pt x="1556" y="86" on="0"/>
        <pt x="1556" y="46" on="1"/>
        <pt x="1556" y="28" on="0"/>
        <pt x="1512" y="0" on="0"/>
        <pt x="1458" y="0" on="1"/>
        <pt x="611" y="0" on="1"/>
        <pt x="611" y="178" on="1"/>
      </contour>
      <contour>
        <pt x="201" y="259" on="1"/>
        <pt x="297" y="251" on="0"/>
        <pt x="373" y="251" on="1"/>
        <pt x="611" y="251" on="1"/>
        <pt x="611" y="1217" on="1"/>
        <pt x="610" y="1217" on="1"/>
      </contour>
      <contour>
        <pt x="1107" y="1812" on="1"/>
        <pt x="1387" y="1812" on="1"/>
        <pt x="1144" y="1528" on="1"/>
        <pt x="989" y="1528" on="1"/>
      </contour>
    </TTGlyph>
    <TTGlyph name="Aacute" xMin="9" yMin="-11" xMax="1311" yMax="1812">
      <contour>
        <pt x="427" y="178" on="1"/>
        <pt x="244" y="178" on="0"/>
        <pt x="177" y="181" on="1"/>
        <pt x="148" y="112" on="1"/>
        <pt x="135" y="83" on="0"/>
        <pt x="124" y="51" on="1"/>
        <pt x="101" y="-11" on="0"/>
        <pt x="60" y="-11" on="1"/>
        <pt x="41" y="-11" on="0"/>
        <pt x="17" y="13" on="0"/>
        <pt x="17" y="26" on="1"/>
        <pt x="17" y="48" on="0"/>
        <pt x="36" y="75" on="1"/>
        <pt x="66" y="117" on="0"/>
        <pt x="95" y="185" on="1"/>
        <pt x="9" y="193" on="0"/>
        <pt x="9" y="277" on="0"/>
        <pt x="58" y="277" on="1"/>
        <pt x="88" y="277" on="0"/>
        <pt x="128" y="267" on="1"/>
        <pt x="627" y="1479" on="1"/>
        <pt x="1311" y="0" on="1"/>
        <pt x="790" y="0" on="1"/>
        <pt x="707" y="178" on="1"/>
      </contour>
      <contour>
        <pt x="209" y="259" on="1"/>
        <pt x="305" y="251" on="0"/>
        <pt x="381" y="251" on="1"/>
        <pt x="674" y="251" on="1"/>
        <pt x="424" y="790" on="1"/>
      </contour>
      <contour>
        <pt x="767" y="1812" on="1"/>
        <pt x="1047" y="1812" on="1"/>
        <pt x="804" y="1528" on="1"/>
        <pt x="649" y="1528" on="1"/>
      </contour>
    </TTGlyph>
    <TTGlyph name="Abreve" xMin="9" yMin="-11" xMax="1311" yMax="1823">
      <contour>
        <pt x="427" y="178" on="1"/>
        <pt x="244" y="178" on="0"/>
        <pt x="177" y="181" on="1"/>
        <pt x="148" y="112" on="1"/>
        <pt x="135" y="83" on="0"/>
        <pt x="124" y="51" on="1"/>
        <pt x="101" y="-11" on="0"/>
        <pt x="60" y="-11" on="1"/>
        <pt x="41" y="-11" on="0"/>
        <pt x="17" y="13" on="0"/>
        <pt x="17" y="26" on="1"/>
        <pt x="17" y="48" on="0"/>
        <pt x="36" y="75" on="1"/>
        <pt x="66" y="117" on="0"/>
        <pt x="95" y="185" on="1"/>
        <pt x="9" y="193" on="0"/>
        <pt x="9" y="277" on="0"/>
        <pt x="58" y="277" on="1"/>
        <pt x="88" y="277" on="0"/>
        <pt x="128" y="267" on="1"/>
        <pt x="627" y="1479" on="1"/>
        <pt x="1311" y="0" on="1"/>
        <pt x="790" y="0" on="1"/>
        <pt x="707" y="178" on="1"/>
      </contour>
      <contour>
        <pt x="209" y="259" on="1"/>
        <pt x="305" y="251" on="0"/>
        <pt x="381" y="251" on="1"/>
        <pt x="674" y="251" on="1"/>
        <pt x="424" y="790" on="1"/>
      </contour>
      <contour>
        <pt x="836" y="1823" on="0"/>
        <pt x="918" y="1823" on="0"/>
        <pt x="918" y="1723" on="0"/>
        <pt x="880" y="1635" on="0"/>
        <pt x="846" y="1602" on="1"/>
        <pt x="770" y="1530" on="0"/>
        <pt x="654" y="1530" on="1"/>
        <pt x="537" y="1530" on="0"/>
        <pt x="462" y="1600" on="1"/>
        <pt x="387" y="1669" on="0"/>
        <pt x="387" y="1772" on="1"/>
        <pt x="387" y="1795" on="0"/>
        <pt x="411" y="1823" on="0"/>
        <pt x="430" y="1823" on="1"/>
        <pt x="470" y="1823" on="0"/>
        <pt x="478" y="1755" on="1"/>
        <pt x="486" y="1689" on="0"/>
        <pt x="587" y="1603" on="0"/>
        <pt x="692" y="1603" on="0"/>
        <pt x="755" y="1626" on="0"/>
        <pt x="778" y="1647" on="1"/>
        <pt x="827" y="1689" on="0"/>
      </contour>
    </TTGlyph>
    <TTGlyph name="Acircumflex" xMin="9" yMin="-11" xMax="1311" yMax="1814">
      <contour>
        <pt x="427" y="178" on="1"/>
        <pt x="244" y="178" on="0"/>
        <pt x="177" y="181" on="1"/>
        <pt x="148" y="112" on="1"/>
        <pt x="135" y="83" on="0"/>
        <pt x="124" y="51" on="1"/>
        <pt x="101" y="-11" on="0"/>
        <pt x="60" y="-11" on="1"/>
        <pt x="41" y="-11" on="0"/>
        <pt x="17" y="13" on="0"/>
        <pt x="17" y="26" on="1"/>
        <pt x="17" y="48" on="0"/>
        <pt x="36" y="75" on="1"/>
        <pt x="66" y="117" on="0"/>
        <pt x="95" y="185" on="1"/>
        <pt x="9" y="193" on="0"/>
        <pt x="9" y="277" on="0"/>
        <pt x="58" y="277" on="1"/>
        <pt x="88" y="277" on="0"/>
        <pt x="128" y="267" on="1"/>
        <pt x="627" y="1479" on="1"/>
        <pt x="1311" y="0" on="1"/>
        <pt x="790" y="0" on="1"/>
        <pt x="707" y="178" on="1"/>
      </contour>
      <contour>
        <pt x="209" y="259" on="1"/>
        <pt x="305" y="251" on="0"/>
        <pt x="381" y="251" on="1"/>
        <pt x="674" y="251" on="1"/>
        <pt x="424" y="790" on="1"/>
      </contour>
      <contour>
        <pt x="419" y="1574" on="1"/>
        <pt x="389" y="1544" on="1"/>
        <pt x="367" y="1522" on="0"/>
        <pt x="333" y="1522" on="0"/>
        <pt x="312" y="1543" on="0"/>
        <pt x="312" y="1557" on="1"/>
        <pt x="312" y="1583" on="0"/>
        <pt x="353" y="1618" on="1"/>
        <pt x="366" y="1631" on="0"/>
        <pt x="406" y="1666" on="0"/>
        <pt x="444" y="1704" on="1"/>
        <pt x="554" y="1814" on="1"/>
        <pt x="809" y="1814" on="1"/>
        <pt x="1072" y="1530" on="1"/>
        <pt x="764" y="1530" on="1"/>
        <pt x="584" y="1744" on="1"/>
        <pt x="459" y="1618" on="0"/>
        <pt x="427" y="1582" on="0"/>
      </contour>
    </TTGlyph>
    <TTGlyph name="Adieresis" xMin="9" yMin="-11" xMax="1311" yMax="1783">
      <contour>
        <pt x="427" y="178" on="1"/>
        <pt x="244" y="178" on="0"/>
        <pt x="177" y="181" on="1"/>
        <pt x="148" y="112" on="1"/>
        <pt x="135" y="83" on="0"/>
        <pt x="124" y="51" on="1"/>
        <pt x="101" y="-11" on="0"/>
        <pt x="60" y="-11" on="1"/>
        <pt x="41" y="-11" on="0"/>
        <pt x="17" y="13" on="0"/>
        <pt x="17" y="26" on="1"/>
        <pt x="17" y="48" on="0"/>
        <pt x="36" y="75" on="1"/>
        <pt x="66" y="117" on="0"/>
        <pt x="95" y="185" on="1"/>
        <pt x="9" y="193" on="0"/>
        <pt x="9" y="277" on="0"/>
        <pt x="58" y="277" on="1"/>
        <pt x="88" y="277" on="0"/>
        <pt x="128" y="267" on="1"/>
        <pt x="627" y="1479" on="1"/>
        <pt x="1311" y="0" on="1"/>
        <pt x="790" y="0" on="1"/>
        <pt x="707" y="178" on="1"/>
      </contour>
      <contour>
        <pt x="209" y="259" on="1"/>
        <pt x="305" y="251" on="0"/>
        <pt x="381" y="251" on="1"/>
        <pt x="674" y="251" on="1"/>
        <pt x="424" y="790" on="1"/>
      </contour>
      <contour>
        <pt x="1077" y="1599" on="0"/>
        <pt x="982" y="1530" on="0"/>
        <pt x="860" y="1530" on="0"/>
        <pt x="796" y="1550" on="0"/>
        <pt x="773" y="1567" on="1"/>
        <pt x="725" y="1602" on="0"/>
        <pt x="725" y="1657" on="1"/>
        <pt x="725" y="1744" on="0"/>
        <pt x="823" y="1773" on="1"/>
        <pt x="857" y="1783" on="0"/>
        <pt x="945" y="1783" on="0"/>
        <pt x="1010" y="1762" on="0"/>
        <pt x="1032" y="1744" on="1"/>
        <pt x="1077" y="1707" on="0"/>
      </contour>
      <contour>
        <pt x="574" y="1599" on="0"/>
        <pt x="480" y="1530" on="0"/>
        <pt x="358" y="1530" on="0"/>
        <pt x="294" y="1550" on="0"/>
        <pt x="271" y="1567" on="1"/>
        <pt x="222" y="1602" on="0"/>
        <pt x="222" y="1657" on="1"/>
        <pt x="222" y="1744" on="0"/>
        <pt x="321" y="1773" on="1"/>
        <pt x="354" y="1783" on="0"/>
        <pt x="443" y="1783" on="0"/>
        <pt x="507" y="1762" on="0"/>
        <pt x="529" y="1744" on="1"/>
        <pt x="574" y="1707" on="0"/>
      </contour>
    </TTGlyph>
    <TTGlyph name="Agrave" xMin="9" yMin="-11" xMax="1311" yMax="1700">
      <contour>
        <pt x="427" y="178" on="1"/>
        <pt x="244" y="178" on="0"/>
        <pt x="177" y="181" on="1"/>
        <pt x="148" y="112" on="1"/>
        <pt x="135" y="83" on="0"/>
        <pt x="124" y="51" on="1"/>
        <pt x="101" y="-11" on="0"/>
        <pt x="60" y="-11" on="1"/>
        <pt x="41" y="-11" on="0"/>
        <pt x="17" y="13" on="0"/>
        <pt x="17" y="26" on="1"/>
        <pt x="17" y="48" on="0"/>
        <pt x="36" y="75" on="1"/>
        <pt x="66" y="117" on="0"/>
        <pt x="95" y="185" on="1"/>
        <pt x="9" y="193" on="0"/>
        <pt x="9" y="277" on="0"/>
        <pt x="58" y="277" on="1"/>
        <pt x="88" y="277" on="0"/>
        <pt x="128" y="267" on="1"/>
        <pt x="627" y="1479" on="1"/>
        <pt x="1311" y="0" on="1"/>
        <pt x="790" y="0" on="1"/>
        <pt x="707" y="178" on="1"/>
      </contour>
      <contour>
        <pt x="209" y="259" on="1"/>
        <pt x="305" y="251" on="0"/>
        <pt x="381" y="251" on="1"/>
        <pt x="674" y="251" on="1"/>
        <pt x="424" y="790" on="1"/>
      </contour>
      <contour>
        <pt x="277" y="1700" on="1"/>
        <pt x="558" y="1700" on="1"/>
        <pt x="675" y="1416" on="1"/>
        <pt x="521" y="1416" on="1"/>
      </contour>
    </TTGlyph>
    <TTGlyph name="Amacron" xMin="9" yMin="-11" xMax="1311" yMax="1801">
      <contour>
        <pt x="427" y="178" on="1"/>
        <pt x="244" y="178" on="0"/>
        <pt x="177" y="181" on="1"/>
        <pt x="148" y="112" on="1"/>
        <pt x="135" y="83" on="0"/>
        <pt x="124" y="51" on="1"/>
        <pt x="101" y="-11" on="0"/>
        <pt x="60" y="-11" on="1"/>
        <pt x="41" y="-11" on="0"/>
        <pt x="17" y="13" on="0"/>
        <pt x="17" y="26" on="1"/>
        <pt x="17" y="48" on="0"/>
        <pt x="36" y="75" on="1"/>
        <pt x="66" y="117" on="0"/>
        <pt x="95" y="185" on="1"/>
        <pt x="9" y="193" on="0"/>
        <pt x="9" y="277" on="0"/>
        <pt x="58" y="277" on="1"/>
        <pt x="88" y="277" on="0"/>
        <pt x="128" y="267" on="1"/>
        <pt x="627" y="1479" on="1"/>
        <pt x="1311" y="0" on="1"/>
        <pt x="790" y="0" on="1"/>
        <pt x="707" y="178" on="1"/>
      </contour>
      <contour>
        <pt x="209" y="259" on="1"/>
        <pt x="305" y="251" on="0"/>
        <pt x="381" y="251" on="1"/>
        <pt x="674" y="251" on="1"/>
        <pt x="424" y="790" on="1"/>
      </contour>
      <contour>
        <pt x="502" y="1721" on="1"/>
        <pt x="352" y="1712" on="1"/>
        <pt x="328" y="1712" on="0"/>
        <pt x="295" y="1739" on="0"/>
        <pt x="295" y="1777" on="0"/>
        <pt x="326" y="1801" on="0"/>
        <pt x="352" y="1801" on="1"/>
        <pt x="352" y="1801" on="0"/>
        <pt x="494" y="1793" on="1"/>
        <pt x="801" y="1793" on="1"/>
        <pt x="960" y="1801" on="1"/>
        <pt x="1016" y="1801" on="0"/>
        <pt x="1016" y="1757" on="1"/>
        <pt x="1016" y="1739" on="0"/>
        <pt x="985" y="1713" on="0"/>
        <pt x="956" y="1713" on="1"/>
        <pt x="813" y="1721" on="1"/>
      </contour>
    </TTGlyph>
    <TTGlyph name="Aogonek" xMin="9" yMin="-361" xMax="1319" yMax="1479">
      <contour>
        <pt x="427" y="178" on="1"/>
        <pt x="244" y="178" on="0"/>
        <pt x="177" y="181" on="1"/>
        <pt x="148" y="112" on="1"/>
        <pt x="135" y="83" on="0"/>
        <pt x="124" y="51" on="1"/>
        <pt x="101" y="-11" on="0"/>
        <pt x="60" y="-11" on="1"/>
        <pt x="41" y="-11" on="0"/>
        <pt x="17" y="13" on="0"/>
        <pt x="17" y="26" on="1"/>
        <pt x="17" y="48" on="0"/>
        <pt x="36" y="75" on="1"/>
        <pt x="66" y="117" on="0"/>
        <pt x="95" y="185" on="1"/>
        <pt x="9" y="193" on="0"/>
        <pt x="9" y="277" on="0"/>
        <pt x="58" y="277" on="1"/>
        <pt x="88" y="277" on="0"/>
        <pt x="128" y="267" on="1"/>
        <pt x="627" y="1479" on="1"/>
        <pt x="1311" y="0" on="1"/>
        <pt x="1108" y="0" on="1"/>
        <pt x="1043" y="-32" on="0"/>
        <pt x="1026" y="-130" on="1"/>
        <pt x="1021" y="-155" on="0"/>
        <pt x="1021" y="-194" on="0"/>
        <pt x="1036" y="-235" on="0"/>
        <pt x="1050" y="-251" on="1"/>
        <pt x="1083" y="-287" on="0"/>
        <pt x="1126" y="-287" on="1"/>
        <pt x="1199" y="-287" on="0"/>
        <pt x="1234" y="-247" on="1"/>
        <pt x="1254" y="-224" on="0"/>
        <pt x="1273" y="-212" on="0"/>
        <pt x="1287" y="-212" on="1"/>
        <pt x="1301" y="-212" on="0"/>
        <pt x="1319" y="-234" on="0"/>
        <pt x="1319" y="-265" on="0"/>
        <pt x="1292" y="-305" on="0"/>
        <pt x="1268" y="-322" on="1"/>
        <pt x="1211" y="-361" on="0"/>
        <pt x="1088" y="-361" on="0"/>
        <pt x="1018" y="-334" on="0"/>
        <pt x="994" y="-310" on="1"/>
        <pt x="943" y="-262" on="0"/>
        <pt x="943" y="-189" on="1"/>
        <pt x="943" y="-108" on="0"/>
        <pt x="986" y="-36" on="1"/>
        <pt x="1000" y="-12" on="0"/>
        <pt x="1018" y="0" on="1"/>
        <pt x="790" y="0" on="1"/>
        <pt x="707" y="178" on="1"/>
      </contour>
      <contour>
        <pt x="209" y="259" on="1"/>
        <pt x="305" y="251" on="0"/>
        <pt x="381" y="251" on="1"/>
        <pt x="674" y="251" on="1"/>
        <pt x="424" y="790" on="1"/>
      </contour>
    </TTGlyph>
    <TTGlyph name="Aring" xMin="9" yMin="-11" xMax="1311" yMax="1833">
      <contour>
        <pt x="427" y="178" on="1"/>
        <pt x="244" y="178" on="0"/>
        <pt x="177" y="181" on="1"/>
        <pt x="148" y="112" on="1"/>
        <pt x="135" y="83" on="0"/>
        <pt x="124" y="51" on="1"/>
        <pt x="101" y="-11" on="0"/>
        <pt x="60" y="-11" on="1"/>
        <pt x="41" y="-11" on="0"/>
        <pt x="17" y="13" on="0"/>
        <pt x="17" y="26" on="1"/>
        <pt x="17" y="48" on="0"/>
        <pt x="36" y="75" on="1"/>
        <pt x="66" y="117" on="0"/>
        <pt x="95" y="185" on="1"/>
        <pt x="9" y="193" on="0"/>
        <pt x="9" y="277" on="0"/>
        <pt x="58" y="277" on="1"/>
        <pt x="88" y="277" on="0"/>
        <pt x="128" y="267" on="1"/>
        <pt x="627" y="1479" on="1"/>
        <pt x="1311" y="0" on="1"/>
        <pt x="790" y="0" on="1"/>
        <pt x="707" y="178" on="1"/>
      </contour>
      <contour>
        <pt x="209" y="259" on="1"/>
        <pt x="305" y="251" on="0"/>
        <pt x="381" y="251" on="1"/>
        <pt x="674" y="251" on="1"/>
        <pt x="424" y="790" on="1"/>
      </contour>
      <contour>
        <pt x="653" y="1530" on="1"/>
        <pt x="587" y="1530" on="0"/>
        <pt x="542" y="1572" on="1"/>
        <pt x="497" y="1613" on="0"/>
        <pt x="497" y="1682" on="1"/>
        <pt x="497" y="1782" on="0"/>
        <pt x="592" y="1821" on="1"/>
        <pt x="621" y="1833" on="0"/>
        <pt x="688" y="1833" on="0"/>
        <pt x="745" y="1811" on="0"/>
        <pt x="766" y="1791" on="1"/>
        <pt x="809" y="1749" on="0"/>
        <pt x="809" y="1682" on="1"/>
        <pt x="809" y="1615" on="0"/>
        <pt x="764" y="1572" on="1"/>
        <pt x="720" y="1530" on="0"/>
      </contour>
      <contour>
        <pt x="608" y="1614" on="0"/>
        <pt x="637" y="1602" on="0"/>
        <pt x="687" y="1602" on="0"/>
        <pt x="734" y="1645" on="0"/>
        <pt x="734" y="1715" on="0"/>
        <pt x="689" y="1759" on="0"/>
        <pt x="618" y="1759" on="0"/>
        <pt x="573" y="1715" on="0"/>
        <pt x="573" y="1665" on="0"/>
        <pt x="586" y="1636" on="0"/>
      </contour>
    </TTGlyph>
    <TTGlyph name="Atilde" xMin="9" yMin="-11" xMax="1311" yMax="1832">
      <contour>
        <pt x="427" y="178" on="1"/>
        <pt x="244" y="178" on="0"/>
        <pt x="177" y="181" on="1"/>
        <pt x="148" y="112" on="1"/>
        <pt x="135" y="83" on="0"/>
        <pt x="124" y="51" on="1"/>
        <pt x="101" y="-11" on="0"/>
        <pt x="60" y="-11" on="1"/>
        <pt x="41" y="-11" on="0"/>
        <pt x="17" y="13" on="0"/>
        <pt x="17" y="26" on="1"/>
        <pt x="17" y="48" on="0"/>
        <pt x="36" y="75" on="1"/>
        <pt x="66" y="117" on="0"/>
        <pt x="95" y="185" on="1"/>
        <pt x="9" y="193" on="0"/>
        <pt x="9" y="277" on="0"/>
        <pt x="58" y="277" on="1"/>
        <pt x="88" y="277" on="0"/>
        <pt x="128" y="267" on="1"/>
        <pt x="627" y="1479" on="1"/>
        <pt x="1311" y="0" on="1"/>
        <pt x="790" y="0" on="1"/>
        <pt x="707" y="178" on="1"/>
      </contour>
      <contour>
        <pt x="209" y="259" on="1"/>
        <pt x="305" y="251" on="0"/>
        <pt x="381" y="251" on="1"/>
        <pt x="674" y="251" on="1"/>
        <pt x="424" y="790" on="1"/>
      </contour>
      <contour>
        <pt x="357" y="1540" on="0"/>
        <pt x="332" y="1540" on="0"/>
        <pt x="309" y="1567" on="0"/>
        <pt x="309" y="1632" on="0"/>
        <pt x="349" y="1719" on="0"/>
        <pt x="384" y="1754" on="1"/>
        <pt x="462" y="1832" on="0"/>
        <pt x="563" y="1832" on="1"/>
        <pt x="647" y="1832" on="0"/>
        <pt x="753" y="1749" on="1"/>
        <pt x="805" y="1709" on="1"/>
        <pt x="862" y="1666" on="0"/>
        <pt x="898" y="1666" on="0"/>
        <pt x="931" y="1716" on="0"/>
        <pt x="944" y="1796" on="0"/>
        <pt x="958" y="1823" on="0"/>
        <pt x="992" y="1823" on="0"/>
        <pt x="1015" y="1793" on="0"/>
        <pt x="1015" y="1730" on="0"/>
        <pt x="975" y="1643" on="0"/>
        <pt x="940" y="1608" on="1"/>
        <pt x="862" y="1530" on="0"/>
        <pt x="761" y="1530" on="1"/>
        <pt x="682" y="1530" on="0"/>
        <pt x="574" y="1608" on="1"/>
        <pt x="502" y="1662" on="1"/>
        <pt x="470" y="1687" on="0"/>
        <pt x="440" y="1687" on="0"/>
        <pt x="419" y="1674" on="0"/>
        <pt x="409" y="1662" on="1"/>
        <pt x="387" y="1637" on="0"/>
        <pt x="382" y="1610" on="1"/>
        <pt x="376" y="1572" on="1"/>
        <pt x="372" y="1548" on="0"/>
      </contour>
    </TTGlyph>
    <TTGlyph name="B" xMin="177" yMin="0" xMax="1435" yMax="1415">
      <contour>
        <pt x="177" y="1415" on="1"/>
        <pt x="447" y="1415" on="0"/>
        <pt x="766" y="1415" on="0"/>
        <pt x="800" y="1414" on="1"/>
        <pt x="948" y="1407" on="0"/>
        <pt x="1070" y="1352" on="0"/>
        <pt x="1106" y="1318" on="1"/>
        <pt x="1183" y="1242" on="0"/>
        <pt x="1183" y="1134" on="1"/>
        <pt x="1183" y="1027" on="0"/>
        <pt x="1108" y="946" on="1"/>
        <pt x="1085" y="921" on="0"/>
        <pt x="1055" y="903" on="1"/>
        <pt x="1218" y="873" on="0"/>
        <pt x="1322" y="766" on="1"/>
        <pt x="1435" y="650" on="0"/>
        <pt x="1435" y="483" on="1"/>
        <pt x="1435" y="313" on="0"/>
        <pt x="1330" y="190" on="1"/>
        <pt x="1183" y="20" on="0"/>
        <pt x="876" y="4" on="1"/>
        <pt x="798" y="0" on="0"/>
        <pt x="722" y="0" on="1"/>
        <pt x="177" y="0" on="1"/>
      </contour>
      <contour>
        <pt x="833" y="923" on="1"/>
        <pt x="884" y="917" on="1"/>
        <pt x="900" y="917" on="1"/>
        <pt x="979" y="917" on="0"/>
        <pt x="1037" y="975" on="1"/>
        <pt x="1099" y="1037" on="0"/>
        <pt x="1099" y="1127" on="1"/>
        <pt x="1099" y="1237" on="0"/>
        <pt x="1004" y="1296" on="1"/>
        <pt x="956" y="1326" on="0"/>
        <pt x="861" y="1337" on="0"/>
        <pt x="834" y="1339" on="1"/>
        <pt x="778" y="1343" on="0"/>
        <pt x="687" y="1343" on="1"/>
        <pt x="687" y="74" on="1"/>
        <pt x="798" y="74" on="1"/>
        <pt x="968" y="74" on="0"/>
        <pt x="1075" y="116" on="1"/>
        <pt x="1203" y="160" on="0"/>
        <pt x="1278" y="258" on="1"/>
        <pt x="1349" y="351" on="0"/>
        <pt x="1349" y="555" on="0"/>
        <pt x="1289" y="695" on="0"/>
        <pt x="1232" y="744" on="1"/>
        <pt x="1116" y="845" on="0"/>
        <pt x="909" y="845" on="1"/>
        <pt x="840" y="839" on="1"/>
        <pt x="808" y="839" on="0"/>
        <pt x="778" y="865" on="0"/>
        <pt x="778" y="882" on="1"/>
        <pt x="778" y="923" on="0"/>
      </contour>
    </TTGlyph>
    <TTGlyph name="C" xMin="88" yMin="-19" xMax="1365" yMax="1433">
      <contour>
        <pt x="1324" y="237" on="1"/>
        <pt x="1365" y="237" on="0"/>
        <pt x="1365" y="191" on="1"/>
        <pt x="1365" y="153" on="0"/>
        <pt x="1307" y="115" on="1"/>
        <pt x="1199" y="44" on="0"/>
        <pt x="1125" y="22" on="1"/>
        <pt x="986" y="-19" on="0"/>
        <pt x="680" y="-19" on="0"/>
        <pt x="397" y="90" on="0"/>
        <pt x="297" y="188" on="1"/>
        <pt x="88" y="394" on="0"/>
        <pt x="88" y="720" on="1"/>
        <pt x="88" y="877" on="0"/>
        <pt x="206" y="1140" on="0"/>
        <pt x="310" y="1234" on="1"/>
        <pt x="530" y="1433" on="0"/>
        <pt x="863" y="1433" on="1"/>
        <pt x="1050" y="1433" on="0"/>
        <pt x="1192" y="1369" on="1"/>
        <pt x="1343" y="1302" on="0"/>
        <pt x="1343" y="1255" on="1"/>
        <pt x="1343" y="1236" on="0"/>
        <pt x="1318" y="1208" on="0"/>
        <pt x="1302" y="1208" on="1"/>
        <pt x="1270" y="1208" on="0"/>
        <pt x="1218" y="1265" on="0"/>
        <pt x="1129" y="1311" on="0"/>
        <pt x="1076" y="1328" on="1"/>
        <pt x="968" y="1361" on="0"/>
        <pt x="791" y="1361" on="0"/>
        <pt x="733" y="1349" on="1"/>
        <pt x="733" y="67" on="1"/>
        <pt x="803" y="55" on="0"/>
        <pt x="911" y="55" on="0"/>
        <pt x="1023" y="69" on="0"/>
        <pt x="1077" y="85" on="1"/>
        <pt x="1198" y="121" on="0"/>
        <pt x="1259" y="191" on="1"/>
        <pt x="1281" y="217" on="0"/>
        <pt x="1307" y="237" on="0"/>
      </contour>
    </TTGlyph>
    <TTGlyph name="Cacute" xMin="88" yMin="-19" xMax="1365" yMax="1812">
      <contour>
        <pt x="1324" y="237" on="1"/>
        <pt x="1365" y="237" on="0"/>
        <pt x="1365" y="191" on="1"/>
        <pt x="1365" y="153" on="0"/>
        <pt x="1307" y="115" on="1"/>
        <pt x="1199" y="44" on="0"/>
        <pt x="1125" y="22" on="1"/>
        <pt x="986" y="-19" on="0"/>
        <pt x="680" y="-19" on="0"/>
        <pt x="397" y="90" on="0"/>
        <pt x="297" y="188" on="1"/>
        <pt x="88" y="394" on="0"/>
        <pt x="88" y="720" on="1"/>
        <pt x="88" y="877" on="0"/>
        <pt x="206" y="1140" on="0"/>
        <pt x="310" y="1234" on="1"/>
        <pt x="530" y="1433" on="0"/>
        <pt x="863" y="1433" on="1"/>
        <pt x="1050" y="1433" on="0"/>
        <pt x="1192" y="1369" on="1"/>
        <pt x="1343" y="1302" on="0"/>
        <pt x="1343" y="1255" on="1"/>
        <pt x="1343" y="1236" on="0"/>
        <pt x="1318" y="1208" on="0"/>
        <pt x="1302" y="1208" on="1"/>
        <pt x="1270" y="1208" on="0"/>
        <pt x="1218" y="1265" on="0"/>
        <pt x="1129" y="1311" on="0"/>
        <pt x="1076" y="1328" on="1"/>
        <pt x="968" y="1361" on="0"/>
        <pt x="791" y="1361" on="0"/>
        <pt x="733" y="1349" on="1"/>
        <pt x="733" y="67" on="1"/>
        <pt x="803" y="55" on="0"/>
        <pt x="911" y="55" on="0"/>
        <pt x="1023" y="69" on="0"/>
        <pt x="1077" y="85" on="1"/>
        <pt x="1198" y="121" on="0"/>
        <pt x="1259" y="191" on="1"/>
        <pt x="1281" y="217" on="0"/>
        <pt x="1307" y="237" on="0"/>
      </contour>
      <contour>
        <pt x="977" y="1812" on="1"/>
        <pt x="1257" y="1812" on="1"/>
        <pt x="1014" y="1528" on="1"/>
        <pt x="859" y="1528" on="1"/>
      </contour>
    </TTGlyph>
    <TTGlyph name="Ccaron" xMin="88" yMin="-19" xMax="1365" yMax="1823">
      <contour>
        <pt x="1324" y="237" on="1"/>
        <pt x="1365" y="237" on="0"/>
        <pt x="1365" y="191" on="1"/>
        <pt x="1365" y="153" on="0"/>
        <pt x="1307" y="115" on="1"/>
        <pt x="1199" y="44" on="0"/>
        <pt x="1125" y="22" on="1"/>
        <pt x="986" y="-19" on="0"/>
        <pt x="680" y="-19" on="0"/>
        <pt x="397" y="90" on="0"/>
        <pt x="297" y="188" on="1"/>
        <pt x="88" y="394" on="0"/>
        <pt x="88" y="720" on="1"/>
        <pt x="88" y="877" on="0"/>
        <pt x="206" y="1140" on="0"/>
        <pt x="310" y="1234" on="1"/>
        <pt x="530" y="1433" on="0"/>
        <pt x="863" y="1433" on="1"/>
        <pt x="1050" y="1433" on="0"/>
        <pt x="1192" y="1369" on="1"/>
        <pt x="1343" y="1302" on="0"/>
        <pt x="1343" y="1255" on="1"/>
        <pt x="1343" y="1236" on="0"/>
        <pt x="1318" y="1208" on="0"/>
        <pt x="1302" y="1208" on="1"/>
        <pt x="1270" y="1208" on="0"/>
        <pt x="1218" y="1265" on="0"/>
        <pt x="1129" y="1311" on="0"/>
        <pt x="1076" y="1328" on="1"/>
        <pt x="968" y="1361" on="0"/>
        <pt x="791" y="1361" on="0"/>
        <pt x="733" y="1349" on="1"/>
        <pt x="733" y="67" on="1"/>
        <pt x="803" y="55" on="0"/>
        <pt x="911" y="55" on="0"/>
        <pt x="1023" y="69" on="0"/>
        <pt x="1077" y="85" on="1"/>
        <pt x="1198" y="121" on="0"/>
        <pt x="1259" y="191" on="1"/>
        <pt x="1281" y="217" on="0"/>
        <pt x="1307" y="237" on="0"/>
      </contour>
      <contour>
        <pt x="1211" y="1823" on="1"/>
        <pt x="1250" y="1823" on="0"/>
        <pt x="1250" y="1786" on="1"/>
        <pt x="1250" y="1759" on="0"/>
        <pt x="1210" y="1727" on="1"/>
        <pt x="1118" y="1642" on="1"/>
        <pt x="1008" y="1531" on="1"/>
        <pt x="752" y="1531" on="1"/>
        <pt x="490" y="1815" on="1"/>
        <pt x="799" y="1815" on="1"/>
        <pt x="979" y="1601" on="1"/>
        <pt x="1158" y="1785" on="1"/>
        <pt x="1190" y="1823" on="0"/>
      </contour>
    </TTGlyph>
    <TTGlyph name="Ccedilla" xMin="88" yMin="-338" xMax="1365" yMax="1433">
      <contour>
        <pt x="907" y="-69" on="1"/>
        <pt x="1123" y="-73" on="0"/>
        <pt x="1123" y="-194" on="1"/>
        <pt x="1123" y="-289" on="0"/>
        <pt x="992" y="-326" on="1"/>
        <pt x="950" y="-338" on="0"/>
        <pt x="905" y="-338" on="1"/>
        <pt x="754" y="-338" on="0"/>
        <pt x="685" y="-283" on="1"/>
        <pt x="656" y="-260" on="0"/>
        <pt x="656" y="-240" on="1"/>
        <pt x="656" y="-197" on="0"/>
        <pt x="696" y="-197" on="1"/>
        <pt x="716" y="-197" on="0"/>
        <pt x="760" y="-234" on="0"/>
        <pt x="794" y="-249" on="0"/>
        <pt x="814" y="-254" on="1"/>
        <pt x="854" y="-265" on="0"/>
        <pt x="975" y="-265" on="0"/>
        <pt x="1047" y="-222" on="0"/>
        <pt x="1047" y="-177" on="0"/>
        <pt x="972" y="-143" on="0"/>
        <pt x="857" y="-141" on="0"/>
        <pt x="829" y="-119" on="0"/>
        <pt x="829" y="-87" on="1"/>
        <pt x="829" y="-18" on="1"/>
        <pt x="494" y="-10" on="0"/>
        <pt x="290" y="196" on="1"/>
        <pt x="88" y="400" on="0"/>
        <pt x="88" y="720" on="1"/>
        <pt x="88" y="877" on="0"/>
        <pt x="206" y="1140" on="0"/>
        <pt x="310" y="1234" on="1"/>
        <pt x="530" y="1433" on="0"/>
        <pt x="863" y="1433" on="1"/>
        <pt x="1050" y="1433" on="0"/>
        <pt x="1192" y="1369" on="1"/>
        <pt x="1343" y="1302" on="0"/>
        <pt x="1343" y="1255" on="1"/>
        <pt x="1343" y="1236" on="0"/>
        <pt x="1318" y="1208" on="0"/>
        <pt x="1302" y="1208" on="1"/>
        <pt x="1270" y="1208" on="0"/>
        <pt x="1218" y="1265" on="0"/>
        <pt x="1129" y="1311" on="0"/>
        <pt x="1076" y="1328" on="1"/>
        <pt x="968" y="1361" on="0"/>
        <pt x="791" y="1361" on="0"/>
        <pt x="733" y="1349" on="1"/>
        <pt x="733" y="67" on="1"/>
        <pt x="803" y="55" on="0"/>
        <pt x="911" y="55" on="0"/>
        <pt x="1023" y="69" on="0"/>
        <pt x="1077" y="85" on="1"/>
        <pt x="1198" y="121" on="0"/>
        <pt x="1259" y="191" on="1"/>
        <pt x="1281" y="217" on="0"/>
        <pt x="1307" y="237" on="0"/>
        <pt x="1324" y="237" on="1"/>
        <pt x="1365" y="237" on="0"/>
        <pt x="1365" y="191" on="1"/>
        <pt x="1365" y="153" on="0"/>
        <pt x="1307" y="115" on="1"/>
        <pt x="1199" y="44" on="0"/>
        <pt x="1131" y="24" on="1"/>
        <pt x="1011" y="-11" on="0"/>
        <pt x="907" y="-17" on="1"/>
      </contour>
    </TTGlyph>
    <TTGlyph name="Ccircumflex" xMin="88" yMin="-19" xMax="1365" yMax="1814">
      <contour>
        <pt x="1324" y="237" on="1"/>
        <pt x="1365" y="237" on="0"/>
        <pt x="1365" y="191" on="1"/>
        <pt x="1365" y="153" on="0"/>
        <pt x="1307" y="115" on="1"/>
        <pt x="1199" y="44" on="0"/>
        <pt x="1125" y="22" on="1"/>
        <pt x="986" y="-19" on="0"/>
        <pt x="680" y="-19" on="0"/>
        <pt x="397" y="90" on="0"/>
        <pt x="297" y="188" on="1"/>
        <pt x="88" y="394" on="0"/>
        <pt x="88" y="720" on="1"/>
        <pt x="88" y="877" on="0"/>
        <pt x="206" y="1140" on="0"/>
        <pt x="310" y="1234" on="1"/>
        <pt x="530" y="1433" on="0"/>
        <pt x="863" y="1433" on="1"/>
        <pt x="1050" y="1433" on="0"/>
        <pt x="1192" y="1369" on="1"/>
        <pt x="1343" y="1302" on="0"/>
        <pt x="1343" y="1255" on="1"/>
        <pt x="1343" y="1236" on="0"/>
        <pt x="1318" y="1208" on="0"/>
        <pt x="1302" y="1208" on="1"/>
        <pt x="1270" y="1208" on="0"/>
        <pt x="1218" y="1265" on="0"/>
        <pt x="1129" y="1311" on="0"/>
        <pt x="1076" y="1328" on="1"/>
        <pt x="968" y="1361" on="0"/>
        <pt x="791" y="1361" on="0"/>
        <pt x="733" y="1349" on="1"/>
        <pt x="733" y="67" on="1"/>
        <pt x="803" y="55" on="0"/>
        <pt x="911" y="55" on="0"/>
        <pt x="1023" y="69" on="0"/>
        <pt x="1077" y="85" on="1"/>
        <pt x="1198" y="121" on="0"/>
        <pt x="1259" y="191" on="1"/>
        <pt x="1281" y="217" on="0"/>
        <pt x="1307" y="237" on="0"/>
      </contour>
      <contour>
        <pt x="629" y="1574" on="1"/>
        <pt x="599" y="1544" on="1"/>
        <pt x="577" y="1522" on="0"/>
        <pt x="543" y="1522" on="0"/>
        <pt x="522" y="1543" on="0"/>
        <pt x="522" y="1557" on="1"/>
        <pt x="522" y="1583" on="0"/>
        <pt x="563" y="1618" on="1"/>
        <pt x="576" y="1631" on="0"/>
        <pt x="616" y="1666" on="0"/>
        <pt x="654" y="1704" on="1"/>
        <pt x="764" y="1814" on="1"/>
        <pt x="1019" y="1814" on="1"/>
        <pt x="1282" y="1530" on="1"/>
        <pt x="974" y="1530" on="1"/>
        <pt x="794" y="1744" on="1"/>
        <pt x="669" y="1618" on="0"/>
        <pt x="637" y="1582" on="0"/>
      </contour>
    </TTGlyph>
    <TTGlyph name="Cdotaccent" xMin="88" yMin="-19" xMax="1365" yMax="1854">
      <contour>
        <pt x="1324" y="237" on="1"/>
        <pt x="1365" y="237" on="0"/>
        <pt x="1365" y="191" on="1"/>
        <pt x="1365" y="153" on="0"/>
        <pt x="1307" y="115" on="1"/>
        <pt x="1199" y="44" on="0"/>
        <pt x="1125" y="22" on="1"/>
        <pt x="986" y="-19" on="0"/>
        <pt x="680" y="-19" on="0"/>
        <pt x="397" y="90" on="0"/>
        <pt x="297" y="188" on="1"/>
        <pt x="88" y="394" on="0"/>
        <pt x="88" y="720" on="1"/>
        <pt x="88" y="877" on="0"/>
        <pt x="206" y="1140" on="0"/>
        <pt x="310" y="1234" on="1"/>
        <pt x="530" y="1433" on="0"/>
        <pt x="863" y="1433" on="1"/>
        <pt x="1050" y="1433" on="0"/>
        <pt x="1192" y="1369" on="1"/>
        <pt x="1343" y="1302" on="0"/>
        <pt x="1343" y="1255" on="1"/>
        <pt x="1343" y="1236" on="0"/>
        <pt x="1318" y="1208" on="0"/>
        <pt x="1302" y="1208" on="1"/>
        <pt x="1270" y="1208" on="0"/>
        <pt x="1218" y="1265" on="0"/>
        <pt x="1129" y="1311" on="0"/>
        <pt x="1076" y="1328" on="1"/>
        <pt x="968" y="1361" on="0"/>
        <pt x="791" y="1361" on="0"/>
        <pt x="733" y="1349" on="1"/>
        <pt x="733" y="67" on="1"/>
        <pt x="803" y="55" on="0"/>
        <pt x="911" y="55" on="0"/>
        <pt x="1023" y="69" on="0"/>
        <pt x="1077" y="85" on="1"/>
        <pt x="1198" y="121" on="0"/>
        <pt x="1259" y="191" on="1"/>
        <pt x="1281" y="217" on="0"/>
        <pt x="1307" y="237" on="0"/>
      </contour>
      <contour>
        <pt x="751" y="1509" on="0"/>
        <pt x="632" y="1608" on="0"/>
        <pt x="632" y="1687" on="1"/>
        <pt x="632" y="1754" on="0"/>
        <pt x="698" y="1804" on="1"/>
        <pt x="766" y="1854" on="0"/>
        <pt x="869" y="1854" on="1"/>
        <pt x="973" y="1854" on="0"/>
        <pt x="1040" y="1796" on="1"/>
        <pt x="1099" y="1745" on="0"/>
        <pt x="1099" y="1675" on="1"/>
        <pt x="1099" y="1605" on="0"/>
        <pt x="1031" y="1558" on="1"/>
        <pt x="962" y="1509" on="0"/>
      </contour>
    </TTGlyph>
    <TTGlyph name="D" xMin="177" yMin="0" xMax="1490" yMax="1415">
      <contour>
        <pt x="177" y="1415" on="1"/>
        <pt x="593" y="1415" on="1"/>
        <pt x="884" y="1415" on="0"/>
        <pt x="1020" y="1374" on="1"/>
        <pt x="1175" y="1326" on="0"/>
        <pt x="1344" y="1176" on="0"/>
        <pt x="1392" y="1096" on="1"/>
        <pt x="1490" y="933" on="0"/>
        <pt x="1490" y="726" on="1"/>
        <pt x="1490" y="400" on="0"/>
        <pt x="1256" y="198" on="1"/>
        <pt x="1090" y="53" on="0"/>
        <pt x="865" y="19" on="1"/>
        <pt x="740" y="0" on="0"/>
        <pt x="515" y="0" on="1"/>
        <pt x="177" y="0" on="1"/>
      </contour>
      <contour>
        <pt x="687" y="83" on="1"/>
        <pt x="703" y="82" on="0"/>
        <pt x="716" y="82" on="1"/>
        <pt x="739" y="82" on="1"/>
        <pt x="1010" y="82" on="0"/>
        <pt x="1202" y="251" on="1"/>
        <pt x="1405" y="429" on="0"/>
        <pt x="1405" y="724" on="1"/>
        <pt x="1405" y="910" on="0"/>
        <pt x="1316" y="1059" on="1"/>
        <pt x="1187" y="1276" on="0"/>
        <pt x="908" y="1322" on="1"/>
        <pt x="817" y="1337" on="0"/>
        <pt x="687" y="1339" on="1"/>
      </contour>
    </TTGlyph>
    <TTGlyph name="Dcaron" xMin="177" yMin="0" xMax="1490" yMax="1823">
      <contour>
        <pt x="177" y="1415" on="1"/>
        <pt x="593" y="1415" on="1"/>
        <pt x="884" y="1415" on="0"/>
        <pt x="1020" y="1374" on="1"/>
        <pt x="1175" y="1326" on="0"/>
        <pt x="1344" y="1176" on="0"/>
        <pt x="1392" y="1096" on="1"/>
        <pt x="1490" y="933" on="0"/>
        <pt x="1490" y="726" on="1"/>
        <pt x="1490" y="400" on="0"/>
        <pt x="1256" y="198" on="1"/>
        <pt x="1090" y="53" on="0"/>
        <pt x="865" y="19" on="1"/>
        <pt x="740" y="0" on="0"/>
        <pt x="515" y="0" on="1"/>
        <pt x="177" y="0" on="1"/>
      </contour>
      <contour>
        <pt x="687" y="83" on="1"/>
        <pt x="703" y="82" on="0"/>
        <pt x="716" y="82" on="1"/>
        <pt x="739" y="82" on="1"/>
        <pt x="1010" y="82" on="0"/>
        <pt x="1202" y="251" on="1"/>
        <pt x="1405" y="429" on="0"/>
        <pt x="1405" y="724" on="1"/>
        <pt x="1405" y="910" on="0"/>
        <pt x="1316" y="1059" on="1"/>
        <pt x="1187" y="1276" on="0"/>
        <pt x="908" y="1322" on="1"/>
        <pt x="817" y="1337" on="0"/>
        <pt x="687" y="1339" on="1"/>
      </contour>
      <contour>
        <pt x="1098" y="1823" on="1"/>
        <pt x="1137" y="1823" on="0"/>
        <pt x="1137" y="1786" on="1"/>
        <pt x="1137" y="1759" on="0"/>
        <pt x="1097" y="1727" on="1"/>
        <pt x="1005" y="1642" on="1"/>
        <pt x="895" y="1531" on="1"/>
        <pt x="639" y="1531" on="1"/>
        <pt x="377" y="1815" on="1"/>
        <pt x="686" y="1815" on="1"/>
        <pt x="866" y="1601" on="1"/>
        <pt x="1045" y="1785" on="1"/>
        <pt x="1077" y="1823" on="0"/>
      </contour>
    </TTGlyph>
    <TTGlyph name="Dcroat" xMin="-2" yMin="0" xMax="1490" yMax="1415">
      <contour>
        <pt x="44" y="774" on="1"/>
        <pt x="177" y="766" on="1"/>
        <pt x="177" y="1415" on="1"/>
        <pt x="593" y="1415" on="1"/>
        <pt x="884" y="1415" on="0"/>
        <pt x="1020" y="1374" on="1"/>
        <pt x="1175" y="1326" on="0"/>
        <pt x="1344" y="1176" on="0"/>
        <pt x="1392" y="1096" on="1"/>
        <pt x="1490" y="933" on="0"/>
        <pt x="1490" y="726" on="1"/>
        <pt x="1490" y="400" on="0"/>
        <pt x="1256" y="198" on="1"/>
        <pt x="1090" y="53" on="0"/>
        <pt x="865" y="19" on="1"/>
        <pt x="740" y="0" on="0"/>
        <pt x="515" y="0" on="1"/>
        <pt x="177" y="0" on="1"/>
        <pt x="177" y="692" on="1"/>
        <pt x="147" y="690" on="0"/>
        <pt x="117" y="690" on="1"/>
        <pt x="55" y="686" on="1"/>
        <pt x="31" y="684" on="0"/>
        <pt x="-2" y="713" on="0"/>
        <pt x="-2" y="751" on="0"/>
        <pt x="27" y="774" on="0"/>
      </contour>
      <contour>
        <pt x="687" y="83" on="1"/>
        <pt x="703" y="82" on="0"/>
        <pt x="716" y="82" on="1"/>
        <pt x="739" y="82" on="1"/>
        <pt x="1010" y="82" on="0"/>
        <pt x="1202" y="251" on="1"/>
        <pt x="1405" y="429" on="0"/>
        <pt x="1405" y="724" on="1"/>
        <pt x="1405" y="910" on="0"/>
        <pt x="1316" y="1059" on="1"/>
        <pt x="1187" y="1276" on="0"/>
        <pt x="908" y="1322" on="1"/>
        <pt x="817" y="1337" on="0"/>
        <pt x="687" y="1339" on="1"/>
        <pt x="687" y="766" on="1"/>
        <pt x="787" y="766" on="1"/>
        <pt x="857" y="766" on="0"/>
        <pt x="879" y="769" on="1"/>
        <pt x="917" y="774" on="0"/>
        <pt x="960" y="774" on="0"/>
        <pt x="989" y="751" on="0"/>
        <pt x="989" y="731" on="1"/>
        <pt x="989" y="711" on="0"/>
        <pt x="960" y="685" on="0"/>
        <pt x="932" y="687" on="1"/>
        <pt x="870" y="690" on="1"/>
        <pt x="826" y="692" on="0"/>
        <pt x="781" y="692" on="1"/>
        <pt x="687" y="692" on="1"/>
      </contour>
    </TTGlyph>
    <TTGlyph name="Delta" xMin="97" yMin="0" xMax="1263" yMax="1593">
      <contour>
        <pt x="1263" y="49" on="1"/>
        <pt x="1263" y="0" on="0"/>
        <pt x="1198" y="0" on="1"/>
        <pt x="157" y="0" on="1"/>
        <pt x="123" y="0" on="0"/>
        <pt x="97" y="35" on="0"/>
        <pt x="97" y="73" on="0"/>
        <pt x="110" y="108" on="1"/>
        <pt x="620" y="1535" on="1"/>
        <pt x="639" y="1593" on="0"/>
        <pt x="679" y="1593" on="1"/>
        <pt x="719" y="1593" on="0"/>
        <pt x="739" y="1535" on="1"/>
        <pt x="1223" y="175" on="1"/>
        <pt x="1243" y="116" on="0"/>
        <pt x="1263" y="62" on="0"/>
      </contour>
      <contour>
        <pt x="1161" y="80" on="1"/>
        <pt x="677" y="1453" on="1"/>
        <pt x="196" y="80" on="1"/>
      </contour>
    </TTGlyph>
    <TTGlyph name="E" xMin="160" yMin="0" xMax="1105" yMax="1418">
      <contour>
        <pt x="1054" y="86" on="1"/>
        <pt x="1105" y="86" on="0"/>
        <pt x="1105" y="46" on="1"/>
        <pt x="1105" y="28" on="0"/>
        <pt x="1061" y="0" on="0"/>
        <pt x="1007" y="0" on="1"/>
        <pt x="160" y="0" on="1"/>
        <pt x="160" y="1415" on="1"/>
        <pt x="554" y="1415" on="0"/>
        <pt x="948" y="1415" on="1"/>
        <pt x="1030" y="1418" on="1"/>
        <pt x="1105" y="1418" on="0"/>
        <pt x="1105" y="1374" on="1"/>
        <pt x="1105" y="1357" on="0"/>
        <pt x="1080" y="1328" on="0"/>
        <pt x="1064" y="1328" on="1"/>
        <pt x="1038" y="1328" on="0"/>
        <pt x="1009" y="1334" on="1"/>
        <pt x="966" y="1343" on="0"/>
        <pt x="891" y="1343" on="1"/>
        <pt x="670" y="1343" on="1"/>
        <pt x="670" y="1038" on="1"/>
        <pt x="852" y="1038" on="1"/>
        <pt x="852" y="1038" on="0"/>
        <pt x="975" y="1043" on="1"/>
        <pt x="997" y="1043" on="0"/>
        <pt x="1028" y="1022" on="0"/>
        <pt x="1028" y="1003" on="1"/>
        <pt x="1028" y="961" on="0"/>
        <pt x="972" y="961" on="1"/>
        <pt x="929" y="962" on="1"/>
        <pt x="896" y="965" on="0"/>
        <pt x="874" y="965" on="1"/>
        <pt x="670" y="965" on="1"/>
        <pt x="670" y="73" on="1"/>
        <pt x="891" y="73" on="1"/>
        <pt x="965" y="73" on="0"/>
        <pt x="996" y="79" on="1"/>
        <pt x="1033" y="86" on="0"/>
      </contour>
    </TTGlyph>
    <TTGlyph name="Eacute" xMin="160" yMin="0" xMax="1105" yMax="1812">
      <contour>
        <pt x="1054" y="86" on="1"/>
        <pt x="1105" y="86" on="0"/>
        <pt x="1105" y="46" on="1"/>
        <pt x="1105" y="28" on="0"/>
        <pt x="1061" y="0" on="0"/>
        <pt x="1007" y="0" on="1"/>
        <pt x="160" y="0" on="1"/>
        <pt x="160" y="1415" on="1"/>
        <pt x="554" y="1415" on="0"/>
        <pt x="948" y="1415" on="1"/>
        <pt x="1030" y="1418" on="1"/>
        <pt x="1105" y="1418" on="0"/>
        <pt x="1105" y="1374" on="1"/>
        <pt x="1105" y="1357" on="0"/>
        <pt x="1080" y="1328" on="0"/>
        <pt x="1064" y="1328" on="1"/>
        <pt x="1038" y="1328" on="0"/>
        <pt x="1009" y="1334" on="1"/>
        <pt x="966" y="1343" on="0"/>
        <pt x="891" y="1343" on="1"/>
        <pt x="670" y="1343" on="1"/>
        <pt x="670" y="1038" on="1"/>
        <pt x="852" y="1038" on="1"/>
        <pt x="852" y="1038" on="0"/>
        <pt x="975" y="1043" on="1"/>
        <pt x="997" y="1043" on="0"/>
        <pt x="1028" y="1022" on="0"/>
        <pt x="1028" y="1003" on="1"/>
        <pt x="1028" y="961" on="0"/>
        <pt x="972" y="961" on="1"/>
        <pt x="929" y="962" on="1"/>
        <pt x="896" y="965" on="0"/>
        <pt x="874" y="965" on="1"/>
        <pt x="670" y="965" on="1"/>
        <pt x="670" y="73" on="1"/>
        <pt x="891" y="73" on="1"/>
        <pt x="965" y="73" on="0"/>
        <pt x="996" y="79" on="1"/>
        <pt x="1033" y="86" on="0"/>
      </contour>
      <contour>
        <pt x="775" y="1812" on="1"/>
        <pt x="1055" y="1812" on="1"/>
        <pt x="812" y="1528" on="1"/>
        <pt x="657" y="1528" on="1"/>
      </contour>
    </TTGlyph>
    <TTGlyph name="Ebreve" xMin="160" yMin="0" xMax="1105" yMax="1823">
      <contour>
        <pt x="1054" y="86" on="1"/>
        <pt x="1105" y="86" on="0"/>
        <pt x="1105" y="46" on="1"/>
        <pt x="1105" y="28" on="0"/>
        <pt x="1061" y="0" on="0"/>
        <pt x="1007" y="0" on="1"/>
        <pt x="160" y="0" on="1"/>
        <pt x="160" y="1415" on="1"/>
        <pt x="554" y="1415" on="0"/>
        <pt x="948" y="1415" on="1"/>
        <pt x="1030" y="1418" on="1"/>
        <pt x="1105" y="1418" on="0"/>
        <pt x="1105" y="1374" on="1"/>
        <pt x="1105" y="1357" on="0"/>
        <pt x="1080" y="1328" on="0"/>
        <pt x="1064" y="1328" on="1"/>
        <pt x="1038" y="1328" on="0"/>
        <pt x="1009" y="1334" on="1"/>
        <pt x="966" y="1343" on="0"/>
        <pt x="891" y="1343" on="1"/>
        <pt x="670" y="1343" on="1"/>
        <pt x="670" y="1038" on="1"/>
        <pt x="852" y="1038" on="1"/>
        <pt x="852" y="1038" on="0"/>
        <pt x="975" y="1043" on="1"/>
        <pt x="997" y="1043" on="0"/>
        <pt x="1028" y="1022" on="0"/>
        <pt x="1028" y="1003" on="1"/>
        <pt x="1028" y="961" on="0"/>
        <pt x="972" y="961" on="1"/>
        <pt x="929" y="962" on="1"/>
        <pt x="896" y="965" on="0"/>
        <pt x="874" y="965" on="1"/>
        <pt x="670" y="965" on="1"/>
        <pt x="670" y="73" on="1"/>
        <pt x="891" y="73" on="1"/>
        <pt x="965" y="73" on="0"/>
        <pt x="996" y="79" on="1"/>
        <pt x="1033" y="86" on="0"/>
      </contour>
      <contour>
        <pt x="844" y="1823" on="0"/>
        <pt x="926" y="1823" on="0"/>
        <pt x="926" y="1723" on="0"/>
        <pt x="888" y="1635" on="0"/>
        <pt x="854" y="1602" on="1"/>
        <pt x="778" y="1530" on="0"/>
        <pt x="662" y="1530" on="1"/>
        <pt x="545" y="1530" on="0"/>
        <pt x="470" y="1600" on="1"/>
        <pt x="395" y="1669" on="0"/>
        <pt x="395" y="1772" on="1"/>
        <pt x="395" y="1795" on="0"/>
        <pt x="419" y="1823" on="0"/>
        <pt x="438" y="1823" on="1"/>
        <pt x="478" y="1823" on="0"/>
        <pt x="486" y="1755" on="1"/>
        <pt x="494" y="1689" on="0"/>
        <pt x="595" y="1603" on="0"/>
        <pt x="700" y="1603" on="0"/>
        <pt x="763" y="1626" on="0"/>
        <pt x="786" y="1647" on="1"/>
        <pt x="835" y="1689" on="0"/>
      </contour>
    </TTGlyph>
    <TTGlyph name="Ecaron" xMin="160" yMin="0" xMax="1105" yMax="1823">
      <contour>
        <pt x="1054" y="86" on="1"/>
        <pt x="1105" y="86" on="0"/>
        <pt x="1105" y="46" on="1"/>
        <pt x="1105" y="28" on="0"/>
        <pt x="1061" y="0" on="0"/>
        <pt x="1007" y="0" on="1"/>
        <pt x="160" y="0" on="1"/>
        <pt x="160" y="1415" on="1"/>
        <pt x="554" y="1415" on="0"/>
        <pt x="948" y="1415" on="1"/>
        <pt x="1030" y="1418" on="1"/>
        <pt x="1105" y="1418" on="0"/>
        <pt x="1105" y="1374" on="1"/>
        <pt x="1105" y="1357" on="0"/>
        <pt x="1080" y="1328" on="0"/>
        <pt x="1064" y="1328" on="1"/>
        <pt x="1038" y="1328" on="0"/>
        <pt x="1009" y="1334" on="1"/>
        <pt x="966" y="1343" on="0"/>
        <pt x="891" y="1343" on="1"/>
        <pt x="670" y="1343" on="1"/>
        <pt x="670" y="1038" on="1"/>
        <pt x="852" y="1038" on="1"/>
        <pt x="852" y="1038" on="0"/>
        <pt x="975" y="1043" on="1"/>
        <pt x="997" y="1043" on="0"/>
        <pt x="1028" y="1022" on="0"/>
        <pt x="1028" y="1003" on="1"/>
        <pt x="1028" y="961" on="0"/>
        <pt x="972" y="961" on="1"/>
        <pt x="929" y="962" on="1"/>
        <pt x="896" y="965" on="0"/>
        <pt x="874" y="965" on="1"/>
        <pt x="670" y="965" on="1"/>
        <pt x="670" y="73" on="1"/>
        <pt x="891" y="73" on="1"/>
        <pt x="965" y="73" on="0"/>
        <pt x="996" y="79" on="1"/>
        <pt x="1033" y="86" on="0"/>
      </contour>
      <contour>
        <pt x="1009" y="1823" on="1"/>
        <pt x="1048" y="1823" on="0"/>
        <pt x="1048" y="1786" on="1"/>
        <pt x="1048" y="1759" on="0"/>
        <pt x="1008" y="1727" on="1"/>
        <pt x="916" y="1642" on="1"/>
        <pt x="806" y="1531" on="1"/>
        <pt x="550" y="1531" on="1"/>
        <pt x="288" y="1815" on="1"/>
        <pt x="597" y="1815" on="1"/>
        <pt x="777" y="1601" on="1"/>
        <pt x="956" y="1785" on="1"/>
        <pt x="988" y="1823" on="0"/>
      </contour>
    </TTGlyph>
    <TTGlyph name="Ecircumflex" xMin="160" yMin="0" xMax="1105" yMax="1814">
      <contour>
        <pt x="1054" y="86" on="1"/>
        <pt x="1105" y="86" on="0"/>
        <pt x="1105" y="46" on="1"/>
        <pt x="1105" y="28" on="0"/>
        <pt x="1061" y="0" on="0"/>
        <pt x="1007" y="0" on="1"/>
        <pt x="160" y="0" on="1"/>
        <pt x="160" y="1415" on="1"/>
        <pt x="554" y="1415" on="0"/>
        <pt x="948" y="1415" on="1"/>
        <pt x="1030" y="1418" on="1"/>
        <pt x="1105" y="1418" on="0"/>
        <pt x="1105" y="1374" on="1"/>
        <pt x="1105" y="1357" on="0"/>
        <pt x="1080" y="1328" on="0"/>
        <pt x="1064" y="1328" on="1"/>
        <pt x="1038" y="1328" on="0"/>
        <pt x="1009" y="1334" on="1"/>
        <pt x="966" y="1343" on="0"/>
        <pt x="891" y="1343" on="1"/>
        <pt x="670" y="1343" on="1"/>
        <pt x="670" y="1038" on="1"/>
        <pt x="852" y="1038" on="1"/>
        <pt x="852" y="1038" on="0"/>
        <pt x="975" y="1043" on="1"/>
        <pt x="997" y="1043" on="0"/>
        <pt x="1028" y="1022" on="0"/>
        <pt x="1028" y="1003" on="1"/>
        <pt x="1028" y="961" on="0"/>
        <pt x="972" y="961" on="1"/>
        <pt x="929" y="962" on="1"/>
        <pt x="896" y="965" on="0"/>
        <pt x="874" y="965" on="1"/>
        <pt x="670" y="965" on="1"/>
        <pt x="670" y="73" on="1"/>
        <pt x="891" y="73" on="1"/>
        <pt x="965" y="73" on="0"/>
        <pt x="996" y="79" on="1"/>
        <pt x="1033" y="86" on="0"/>
      </contour>
      <contour>
        <pt x="427" y="1574" on="1"/>
        <pt x="397" y="1544" on="1"/>
        <pt x="375" y="1522" on="0"/>
        <pt x="341" y="1522" on="0"/>
        <pt x="320" y="1543" on="0"/>
        <pt x="320" y="1557" on="1"/>
        <pt x="320" y="1583" on="0"/>
        <pt x="361" y="1618" on="1"/>
        <pt x="374" y="1631" on="0"/>
        <pt x="414" y="1666" on="0"/>
        <pt x="452" y="1704" on="1"/>
        <pt x="562" y="1814" on="1"/>
        <pt x="817" y="1814" on="1"/>
        <pt x="1080" y="1530" on="1"/>
        <pt x="772" y="1530" on="1"/>
        <pt x="592" y="1744" on="1"/>
        <pt x="467" y="1618" on="0"/>
        <pt x="435" y="1582" on="0"/>
      </contour>
    </TTGlyph>
    <TTGlyph name="Edieresis" xMin="160" yMin="0" xMax="1105" yMax="1783">
      <contour>
        <pt x="1054" y="86" on="1"/>
        <pt x="1105" y="86" on="0"/>
        <pt x="1105" y="46" on="1"/>
        <pt x="1105" y="28" on="0"/>
        <pt x="1061" y="0" on="0"/>
        <pt x="1007" y="0" on="1"/>
        <pt x="160" y="0" on="1"/>
        <pt x="160" y="1415" on="1"/>
        <pt x="554" y="1415" on="0"/>
        <pt x="948" y="1415" on="1"/>
        <pt x="1030" y="1418" on="1"/>
        <pt x="1105" y="1418" on="0"/>
        <pt x="1105" y="1374" on="1"/>
        <pt x="1105" y="1357" on="0"/>
        <pt x="1080" y="1328" on="0"/>
        <pt x="1064" y="1328" on="1"/>
        <pt x="1038" y="1328" on="0"/>
        <pt x="1009" y="1334" on="1"/>
        <pt x="966" y="1343" on="0"/>
        <pt x="891" y="1343" on="1"/>
        <pt x="670" y="1343" on="1"/>
        <pt x="670" y="1038" on="1"/>
        <pt x="852" y="1038" on="1"/>
        <pt x="852" y="1038" on="0"/>
        <pt x="975" y="1043" on="1"/>
        <pt x="997" y="1043" on="0"/>
        <pt x="1028" y="1022" on="0"/>
        <pt x="1028" y="1003" on="1"/>
        <pt x="1028" y="961" on="0"/>
        <pt x="972" y="961" on="1"/>
        <pt x="929" y="962" on="1"/>
        <pt x="896" y="965" on="0"/>
        <pt x="874" y="965" on="1"/>
        <pt x="670" y="965" on="1"/>
        <pt x="670" y="73" on="1"/>
        <pt x="891" y="73" on="1"/>
        <pt x="965" y="73" on="0"/>
        <pt x="996" y="79" on="1"/>
        <pt x="1033" y="86" on="0"/>
      </contour>
      <contour>
        <pt x="1085" y="1599" on="0"/>
        <pt x="990" y="1530" on="0"/>
        <pt x="868" y="1530" on="0"/>
        <pt x="804" y="1550" on="0"/>
        <pt x="781" y="1567" on="1"/>
        <pt x="733" y="1602" on="0"/>
        <pt x="733" y="1657" on="1"/>
        <pt x="733" y="1744" on="0"/>
        <pt x="831" y="1773" on="1"/>
        <pt x="865" y="1783" on="0"/>
        <pt x="953" y="1783" on="0"/>
        <pt x="1018" y="1762" on="0"/>
        <pt x="1040" y="1744" on="1"/>
        <pt x="1085" y="1707" on="0"/>
      </contour>
      <contour>
        <pt x="582" y="1599" on="0"/>
        <pt x="488" y="1530" on="0"/>
        <pt x="366" y="1530" on="0"/>
        <pt x="302" y="1550" on="0"/>
        <pt x="279" y="1567" on="1"/>
        <pt x="230" y="1602" on="0"/>
        <pt x="230" y="1657" on="1"/>
        <pt x="230" y="1744" on="0"/>
        <pt x="329" y="1773" on="1"/>
        <pt x="362" y="1783" on="0"/>
        <pt x="451" y="1783" on="0"/>
        <pt x="515" y="1762" on="0"/>
        <pt x="537" y="1744" on="1"/>
        <pt x="582" y="1707" on="0"/>
      </contour>
    </TTGlyph>
    <TTGlyph name="Edotaccent" xMin="160" yMin="0" xMax="1105" yMax="1854">
      <contour>
        <pt x="1054" y="86" on="1"/>
        <pt x="1105" y="86" on="0"/>
        <pt x="1105" y="46" on="1"/>
        <pt x="1105" y="28" on="0"/>
        <pt x="1061" y="0" on="0"/>
        <pt x="1007" y="0" on="1"/>
        <pt x="160" y="0" on="1"/>
        <pt x="160" y="1415" on="1"/>
        <pt x="554" y="1415" on="0"/>
        <pt x="948" y="1415" on="1"/>
        <pt x="1030" y="1418" on="1"/>
        <pt x="1105" y="1418" on="0"/>
        <pt x="1105" y="1374" on="1"/>
        <pt x="1105" y="1357" on="0"/>
        <pt x="1080" y="1328" on="0"/>
        <pt x="1064" y="1328" on="1"/>
        <pt x="1038" y="1328" on="0"/>
        <pt x="1009" y="1334" on="1"/>
        <pt x="966" y="1343" on="0"/>
        <pt x="891" y="1343" on="1"/>
        <pt x="670" y="1343" on="1"/>
        <pt x="670" y="1038" on="1"/>
        <pt x="852" y="1038" on="1"/>
        <pt x="852" y="1038" on="0"/>
        <pt x="975" y="1043" on="1"/>
        <pt x="997" y="1043" on="0"/>
        <pt x="1028" y="1022" on="0"/>
        <pt x="1028" y="1003" on="1"/>
        <pt x="1028" y="961" on="0"/>
        <pt x="972" y="961" on="1"/>
        <pt x="929" y="962" on="1"/>
        <pt x="896" y="965" on="0"/>
        <pt x="874" y="965" on="1"/>
        <pt x="670" y="965" on="1"/>
        <pt x="670" y="73" on="1"/>
        <pt x="891" y="73" on="1"/>
        <pt x="965" y="73" on="0"/>
        <pt x="996" y="79" on="1"/>
        <pt x="1033" y="86" on="0"/>
      </contour>
      <contour>
        <pt x="549" y="1509" on="0"/>
        <pt x="430" y="1608" on="0"/>
        <pt x="430" y="1687" on="1"/>
        <pt x="430" y="1754" on="0"/>
        <pt x="496" y="1804" on="1"/>
        <pt x="564" y="1854" on="0"/>
        <pt x="667" y="1854" on="1"/>
        <pt x="771" y="1854" on="0"/>
        <pt x="838" y="1796" on="1"/>
        <pt x="897" y="1745" on="0"/>
        <pt x="897" y="1675" on="1"/>
        <pt x="897" y="1605" on="0"/>
        <pt x="829" y="1558" on="1"/>
        <pt x="760" y="1509" on="0"/>
      </contour>
    </TTGlyph>
    <TTGlyph name="Egrave" xMin="160" yMin="0" xMax="1105" yMax="1700">
      <contour>
        <pt x="1054" y="86" on="1"/>
        <pt x="1105" y="86" on="0"/>
        <pt x="1105" y="46" on="1"/>
        <pt x="1105" y="28" on="0"/>
        <pt x="1061" y="0" on="0"/>
        <pt x="1007" y="0" on="1"/>
        <pt x="160" y="0" on="1"/>
        <pt x="160" y="1415" on="1"/>
        <pt x="554" y="1415" on="0"/>
        <pt x="948" y="1415" on="1"/>
        <pt x="1030" y="1418" on="1"/>
        <pt x="1105" y="1418" on="0"/>
        <pt x="1105" y="1374" on="1"/>
        <pt x="1105" y="1357" on="0"/>
        <pt x="1080" y="1328" on="0"/>
        <pt x="1064" y="1328" on="1"/>
        <pt x="1038" y="1328" on="0"/>
        <pt x="1009" y="1334" on="1"/>
        <pt x="966" y="1343" on="0"/>
        <pt x="891" y="1343" on="1"/>
        <pt x="670" y="1343" on="1"/>
        <pt x="670" y="1038" on="1"/>
        <pt x="852" y="1038" on="1"/>
        <pt x="852" y="1038" on="0"/>
        <pt x="975" y="1043" on="1"/>
        <pt x="997" y="1043" on="0"/>
        <pt x="1028" y="1022" on="0"/>
        <pt x="1028" y="1003" on="1"/>
        <pt x="1028" y="961" on="0"/>
        <pt x="972" y="961" on="1"/>
        <pt x="929" y="962" on="1"/>
        <pt x="896" y="965" on="0"/>
        <pt x="874" y="965" on="1"/>
        <pt x="670" y="965" on="1"/>
        <pt x="670" y="73" on="1"/>
        <pt x="891" y="73" on="1"/>
        <pt x="965" y="73" on="0"/>
        <pt x="996" y="79" on="1"/>
        <pt x="1033" y="86" on="0"/>
      </contour>
      <contour>
        <pt x="285" y="1700" on="1"/>
        <pt x="566" y="1700" on="1"/>
        <pt x="683" y="1416" on="1"/>
        <pt x="529" y="1416" on="1"/>
      </contour>
    </TTGlyph>
    <TTGlyph name="Emacron" xMin="160" yMin="0" xMax="1105" yMax="1801">
      <contour>
        <pt x="1054" y="86" on="1"/>
        <pt x="1105" y="86" on="0"/>
        <pt x="1105" y="46" on="1"/>
        <pt x="1105" y="28" on="0"/>
        <pt x="1061" y="0" on="0"/>
        <pt x="1007" y="0" on="1"/>
        <pt x="160" y="0" on="1"/>
        <pt x="160" y="1415" on="1"/>
        <pt x="554" y="1415" on="0"/>
        <pt x="948" y="1415" on="1"/>
        <pt x="1030" y="1418" on="1"/>
        <pt x="1105" y="1418" on="0"/>
        <pt x="1105" y="1374" on="1"/>
        <pt x="1105" y="1357" on="0"/>
        <pt x="1080" y="1328" on="0"/>
        <pt x="1064" y="1328" on="1"/>
        <pt x="1038" y="1328" on="0"/>
        <pt x="1009" y="1334" on="1"/>
        <pt x="966" y="1343" on="0"/>
        <pt x="891" y="1343" on="1"/>
        <pt x="670" y="1343" on="1"/>
        <pt x="670" y="1038" on="1"/>
        <pt x="852" y="1038" on="1"/>
        <pt x="852" y="1038" on="0"/>
        <pt x="975" y="1043" on="1"/>
        <pt x="997" y="1043" on="0"/>
        <pt x="1028" y="1022" on="0"/>
        <pt x="1028" y="1003" on="1"/>
        <pt x="1028" y="961" on="0"/>
        <pt x="972" y="961" on="1"/>
        <pt x="929" y="962" on="1"/>
        <pt x="896" y="965" on="0"/>
        <pt x="874" y="965" on="1"/>
        <pt x="670" y="965" on="1"/>
        <pt x="670" y="73" on="1"/>
        <pt x="891" y="73" on="1"/>
        <pt x="965" y="73" on="0"/>
        <pt x="996" y="79" on="1"/>
        <pt x="1033" y="86" on="0"/>
      </contour>
      <contour>
        <pt x="510" y="1721" on="1"/>
        <pt x="360" y="1712" on="1"/>
        <pt x="336" y="1712" on="0"/>
        <pt x="303" y="1739" on="0"/>
        <pt x="303" y="1777" on="0"/>
        <pt x="334" y="1801" on="0"/>
        <pt x="360" y="1801" on="1"/>
        <pt x="360" y="1801" on="0"/>
        <pt x="502" y="1793" on="1"/>
        <pt x="809" y="1793" on="1"/>
        <pt x="968" y="1801" on="1"/>
        <pt x="1024" y="1801" on="0"/>
        <pt x="1024" y="1757" on="1"/>
        <pt x="1024" y="1739" on="0"/>
        <pt x="993" y="1713" on="0"/>
        <pt x="964" y="1713" on="1"/>
        <pt x="821" y="1721" on="1"/>
      </contour>
    </TTGlyph>
    <TTGlyph name="Eng" xMin="177" yMin="-620" xMax="1358" yMax="1479">
      <contour>
        <pt x="267" y="143" on="1"/>
        <pt x="270" y="43" on="1"/>
        <pt x="270" y="17" on="0"/>
        <pt x="242" y="-11" on="0"/>
        <pt x="203" y="-11" on="0"/>
        <pt x="177" y="15" on="0"/>
        <pt x="177" y="46" on="0"/>
        <pt x="182" y="73" on="0"/>
        <pt x="184" y="90" on="1"/>
        <pt x="189" y="119" on="0"/>
        <pt x="189" y="235" on="1"/>
        <pt x="189" y="1479" on="1"/>
        <pt x="1276" y="617" on="1"/>
        <pt x="1276" y="1213" on="1"/>
        <pt x="1276" y="1281" on="0"/>
        <pt x="1272" y="1310" on="1"/>
        <pt x="1267" y="1357" on="0"/>
        <pt x="1267" y="1376" on="1"/>
        <pt x="1267" y="1426" on="0"/>
        <pt x="1310" y="1426" on="1"/>
        <pt x="1327" y="1426" on="0"/>
        <pt x="1358" y="1402" on="0"/>
        <pt x="1358" y="1379" on="1"/>
        <pt x="1358" y="1344" on="1"/>
        <pt x="1354" y="1199" on="1"/>
        <pt x="1354" y="-55" on="1"/>
        <pt x="1352" y="-325" on="0"/>
        <pt x="1268" y="-457" on="1"/>
        <pt x="1163" y="-620" on="0"/>
        <pt x="916" y="-620" on="1"/>
        <pt x="720" y="-620" on="0"/>
        <pt x="587" y="-466" on="1"/>
        <pt x="570" y="-449" on="1"/>
        <pt x="534" y="-411" on="0"/>
        <pt x="537" y="-383" on="1"/>
        <pt x="544" y="-336" on="0"/>
        <pt x="579" y="-340" on="1"/>
        <pt x="613" y="-346" on="0"/>
        <pt x="636" y="-383" on="1"/>
        <pt x="682" y="-494" on="0"/>
        <pt x="816" y="-538" on="1"/>
        <pt x="864" y="-553" on="0"/>
        <pt x="1019" y="-553" on="0"/>
        <pt x="1153" y="-490" on="0"/>
        <pt x="1196" y="-426" on="1"/>
        <pt x="1276" y="-306" on="0"/>
        <pt x="1276" y="-43" on="1"/>
        <pt x="1276" y="6" on="1"/>
        <pt x="267" y="798" on="1"/>
      </contour>
    </TTGlyph>
    <TTGlyph name="Eogonek" xMin="160" yMin="-361" xMax="1115" yMax="1418">
      <contour>
        <pt x="739" y="-189" on="1"/>
        <pt x="739" y="-39" on="0"/>
        <pt x="797" y="0" on="1"/>
        <pt x="160" y="0" on="1"/>
        <pt x="160" y="1415" on="1"/>
        <pt x="554" y="1415" on="0"/>
        <pt x="948" y="1415" on="1"/>
        <pt x="1030" y="1418" on="1"/>
        <pt x="1105" y="1418" on="0"/>
        <pt x="1105" y="1374" on="1"/>
        <pt x="1105" y="1357" on="0"/>
        <pt x="1080" y="1328" on="0"/>
        <pt x="1064" y="1328" on="1"/>
        <pt x="1038" y="1328" on="0"/>
        <pt x="1009" y="1334" on="1"/>
        <pt x="966" y="1343" on="0"/>
        <pt x="891" y="1343" on="1"/>
        <pt x="670" y="1343" on="1"/>
        <pt x="670" y="1038" on="1"/>
        <pt x="852" y="1038" on="1"/>
        <pt x="975" y="1043" on="1"/>
        <pt x="997" y="1043" on="0"/>
        <pt x="1028" y="1022" on="0"/>
        <pt x="1028" y="1003" on="1"/>
        <pt x="1028" y="961" on="0"/>
        <pt x="972" y="961" on="1"/>
        <pt x="929" y="962" on="1"/>
        <pt x="896" y="965" on="0"/>
        <pt x="874" y="965" on="1"/>
        <pt x="670" y="965" on="1"/>
        <pt x="670" y="73" on="1"/>
        <pt x="891" y="73" on="1"/>
        <pt x="965" y="73" on="0"/>
        <pt x="996" y="79" on="1"/>
        <pt x="1033" y="86" on="0"/>
        <pt x="1054" y="86" on="1"/>
        <pt x="1105" y="86" on="0"/>
        <pt x="1105" y="46" on="1"/>
        <pt x="1105" y="28" on="0"/>
        <pt x="1061" y="0" on="0"/>
        <pt x="1007" y="0" on="1"/>
        <pt x="887" y="0" on="1"/>
        <pt x="817" y="-35" on="0"/>
        <pt x="817" y="-174" on="1"/>
        <pt x="817" y="-247" on="0"/>
        <pt x="882" y="-277" on="1"/>
        <pt x="904" y="-287" on="0"/>
        <pt x="934" y="-287" on="1"/>
        <pt x="995" y="-287" on="0"/>
        <pt x="1050" y="-224" on="0"/>
        <pt x="1069" y="-212" on="0"/>
        <pt x="1083" y="-212" on="1"/>
        <pt x="1097" y="-212" on="0"/>
        <pt x="1115" y="-234" on="0"/>
        <pt x="1115" y="-265" on="0"/>
        <pt x="1088" y="-305" on="0"/>
        <pt x="1064" y="-322" on="1"/>
        <pt x="1007" y="-361" on="0"/>
        <pt x="884" y="-361" on="0"/>
        <pt x="814" y="-334" on="0"/>
        <pt x="790" y="-310" on="1"/>
        <pt x="739" y="-262" on="0"/>
      </contour>
    </TTGlyph>
    <TTGlyph name="Eth" xMin="-2" yMin="0" xMax="1490" yMax="1415">
      <contour>
        <pt x="44" y="774" on="1"/>
        <pt x="177" y="766" on="1"/>
        <pt x="177" y="1415" on="1"/>
        <pt x="593" y="1415" on="1"/>
        <pt x="884" y="1415" on="0"/>
        <pt x="1020" y="1374" on="1"/>
        <pt x="1175" y="1326" on="0"/>
        <pt x="1344" y="1176" on="0"/>
        <pt x="1392" y="1096" on="1"/>
        <pt x="1490" y="933" on="0"/>
        <pt x="1490" y="726" on="1"/>
        <pt x="1490" y="400" on="0"/>
        <pt x="1256" y="198" on="1"/>
        <pt x="1090" y="53" on="0"/>
        <pt x="865" y="19" on="1"/>
        <pt x="740" y="0" on="0"/>
        <pt x="515" y="0" on="1"/>
        <pt x="177" y="0" on="1"/>
        <pt x="177" y="692" on="1"/>
        <pt x="147" y="690" on="0"/>
        <pt x="117" y="690" on="1"/>
        <pt x="55" y="686" on="1"/>
        <pt x="31" y="684" on="0"/>
        <pt x="-2" y="713" on="0"/>
        <pt x="-2" y="751" on="0"/>
        <pt x="27" y="774" on="0"/>
      </contour>
      <contour>
        <pt x="687" y="83" on="1"/>
        <pt x="703" y="82" on="0"/>
        <pt x="716" y="82" on="1"/>
        <pt x="739" y="82" on="1"/>
        <pt x="1010" y="82" on="0"/>
        <pt x="1202" y="251" on="1"/>
        <pt x="1405" y="429" on="0"/>
        <pt x="1405" y="724" on="1"/>
        <pt x="1405" y="910" on="0"/>
        <pt x="1316" y="1059" on="1"/>
        <pt x="1187" y="1276" on="0"/>
        <pt x="908" y="1322" on="1"/>
        <pt x="817" y="1337" on="0"/>
        <pt x="687" y="1339" on="1"/>
        <pt x="687" y="766" on="1"/>
        <pt x="787" y="766" on="1"/>
        <pt x="857" y="766" on="0"/>
        <pt x="879" y="769" on="1"/>
        <pt x="917" y="774" on="0"/>
        <pt x="960" y="774" on="0"/>
        <pt x="989" y="751" on="0"/>
        <pt x="989" y="731" on="1"/>
        <pt x="989" y="711" on="0"/>
        <pt x="960" y="685" on="0"/>
        <pt x="932" y="687" on="1"/>
        <pt x="870" y="690" on="1"/>
        <pt x="826" y="692" on="0"/>
        <pt x="781" y="692" on="1"/>
        <pt x="687" y="692" on="1"/>
      </contour>
    </TTGlyph>
    <TTGlyph name="Euro" xMin="-55" yMin="-19" xMax="1365" yMax="1433">
      <contour>
        <pt x="93" y="627" on="1"/>
        <pt x="41" y="622" on="1"/>
        <pt x="23" y="621" on="0"/>
        <pt x="-22" y="621" on="0"/>
        <pt x="-55" y="647" on="0"/>
        <pt x="-55" y="685" on="0"/>
        <pt x="-24" y="710" on="0"/>
        <pt x="14" y="710" on="0"/>
        <pt x="30" y="709" on="1"/>
        <pt x="62" y="707" on="1"/>
        <pt x="88" y="704" on="1"/>
        <pt x="88" y="720" on="1"/>
        <pt x="88" y="803" on="0"/>
        <pt x="107" y="890" on="1"/>
        <pt x="39" y="886" on="0"/>
        <pt x="10" y="886" on="0"/>
        <pt x="-23" y="913" on="0"/>
        <pt x="-23" y="931" on="1"/>
        <pt x="-23" y="974" on="0"/>
        <pt x="34" y="974" on="1"/>
        <pt x="46" y="974" on="0"/>
        <pt x="62" y="973" on="1"/>
        <pt x="94" y="971" on="1"/>
        <pt x="130" y="968" on="1"/>
        <pt x="209" y="1182" on="0"/>
        <pt x="404" y="1306" on="1"/>
        <pt x="603" y="1433" on="0"/>
        <pt x="863" y="1433" on="1"/>
        <pt x="1050" y="1433" on="0"/>
        <pt x="1192" y="1369" on="1"/>
        <pt x="1343" y="1302" on="0"/>
        <pt x="1343" y="1255" on="1"/>
        <pt x="1343" y="1236" on="0"/>
        <pt x="1318" y="1208" on="0"/>
        <pt x="1302" y="1208" on="1"/>
        <pt x="1270" y="1208" on="0"/>
        <pt x="1218" y="1265" on="0"/>
        <pt x="1129" y="1311" on="0"/>
        <pt x="1076" y="1328" on="1"/>
        <pt x="968" y="1361" on="0"/>
        <pt x="791" y="1361" on="0"/>
        <pt x="733" y="1349" on="1"/>
        <pt x="733" y="966" on="1"/>
        <pt x="943" y="966" on="1"/>
        <pt x="1005" y="966" on="0"/>
        <pt x="1032" y="969" on="1"/>
        <pt x="1077" y="974" on="0"/>
        <pt x="1103" y="974" on="1"/>
        <pt x="1160" y="974" on="0"/>
        <pt x="1160" y="931" on="1"/>
        <pt x="1160" y="913" on="0"/>
        <pt x="1129" y="886" on="0"/>
        <pt x="1087" y="886" on="0"/>
        <pt x="1033" y="889" on="1"/>
        <pt x="733" y="892" on="1"/>
        <pt x="733" y="701" on="1"/>
        <pt x="911" y="701" on="1"/>
        <pt x="965" y="701" on="0"/>
        <pt x="996" y="704" on="1"/>
        <pt x="1045" y="710" on="0"/>
        <pt x="1098" y="710" on="0"/>
        <pt x="1128" y="685" on="0"/>
        <pt x="1128" y="647" on="0"/>
        <pt x="1097" y="621" on="0"/>
        <pt x="1066" y="621" on="1"/>
        <pt x="924" y="628" on="1"/>
        <pt x="733" y="628" on="1"/>
        <pt x="733" y="67" on="1"/>
        <pt x="803" y="55" on="0"/>
        <pt x="911" y="55" on="0"/>
        <pt x="1023" y="69" on="0"/>
        <pt x="1077" y="85" on="1"/>
        <pt x="1198" y="121" on="0"/>
        <pt x="1259" y="191" on="1"/>
        <pt x="1281" y="217" on="0"/>
        <pt x="1307" y="237" on="0"/>
        <pt x="1324" y="237" on="1"/>
        <pt x="1365" y="237" on="0"/>
        <pt x="1365" y="191" on="1"/>
        <pt x="1365" y="153" on="0"/>
        <pt x="1307" y="115" on="1"/>
        <pt x="1199" y="44" on="0"/>
        <pt x="1125" y="22" on="1"/>
        <pt x="986" y="-19" on="0"/>
        <pt x="693" y="-19" on="0"/>
        <pt x="426" y="75" on="0"/>
        <pt x="328" y="160" on="1"/>
        <pt x="123" y="338" on="0"/>
      </contour>
    </TTGlyph>
    <TTGlyph name="F" xMin="177" yMin="0" xMax="1163" yMax="1418">
      <contour>
        <pt x="1008" y="908" on="1"/>
        <pt x="967" y="909" on="1"/>
        <pt x="945" y="911" on="0"/>
        <pt x="911" y="911" on="1"/>
        <pt x="687" y="911" on="1"/>
        <pt x="687" y="0" on="1"/>
        <pt x="177" y="0" on="1"/>
        <pt x="177" y="1415" on="1"/>
        <pt x="971" y="1415" on="1"/>
        <pt x="1070" y="1418" on="1"/>
        <pt x="1088" y="1418" on="1"/>
        <pt x="1163" y="1418" on="0"/>
        <pt x="1163" y="1374" on="1"/>
        <pt x="1163" y="1357" on="0"/>
        <pt x="1136" y="1328" on="0"/>
        <pt x="1120" y="1328" on="1"/>
        <pt x="1094" y="1328" on="0"/>
        <pt x="1070" y="1333" on="1"/>
        <pt x="1024" y="1343" on="0"/>
        <pt x="950" y="1343" on="1"/>
        <pt x="687" y="1343" on="1"/>
        <pt x="687" y="983" on="1"/>
        <pt x="888" y="983" on="1"/>
        <pt x="888" y="983" on="0"/>
        <pt x="1012" y="988" on="1"/>
        <pt x="1066" y="988" on="0"/>
        <pt x="1066" y="908" on="0"/>
      </contour>
    </TTGlyph>
    <TTGlyph name="G" xMin="88" yMin="-19" xMax="1449" yMax="1433">
      <contour>
        <pt x="1364" y="73" on="1"/>
        <pt x="1366" y="142" on="1"/>
        <pt x="1366" y="300" on="1"/>
        <pt x="1225" y="65" on="0"/>
        <pt x="950" y="1" on="1"/>
        <pt x="863" y="-19" on="0"/>
        <pt x="632" y="-19" on="0"/>
        <pt x="385" y="77" on="0"/>
        <pt x="292" y="168" on="1"/>
        <pt x="88" y="366" on="0"/>
        <pt x="88" y="689" on="1"/>
        <pt x="88" y="998" on="0"/>
        <pt x="304" y="1212" on="1"/>
        <pt x="529" y="1433" on="0"/>
        <pt x="869" y="1433" on="1"/>
        <pt x="1041" y="1433" on="0"/>
        <pt x="1180" y="1369" on="1"/>
        <pt x="1265" y="1331" on="0"/>
        <pt x="1335" y="1266" on="0"/>
        <pt x="1335" y="1227" on="0"/>
        <pt x="1311" y="1199" on="0"/>
        <pt x="1268" y="1199" on="0"/>
        <pt x="1242" y="1222" on="1"/>
        <pt x="1165" y="1290" on="0"/>
        <pt x="1048" y="1332" on="0"/>
        <pt x="978" y="1350" on="0"/>
        <pt x="950" y="1354" on="1"/>
        <pt x="907" y="1360" on="0"/>
        <pt x="789" y="1360" on="0"/>
        <pt x="739" y="1350" on="1"/>
        <pt x="739" y="56" on="1"/>
        <pt x="750" y="55" on="0"/>
        <pt x="761" y="55" on="1"/>
        <pt x="781" y="55" on="1"/>
        <pt x="1078" y="55" on="0"/>
        <pt x="1262" y="280" on="1"/>
        <pt x="1325" y="357" on="0"/>
        <pt x="1366" y="462" on="1"/>
        <pt x="1366" y="558" on="1"/>
        <pt x="1366" y="558" on="0"/>
        <pt x="1361" y="648" on="1"/>
        <pt x="1361" y="701" on="0"/>
        <pt x="1403" y="701" on="1"/>
        <pt x="1425" y="701" on="0"/>
        <pt x="1449" y="672" on="0"/>
        <pt x="1449" y="651" on="1"/>
        <pt x="1443" y="568" on="1"/>
        <pt x="1443" y="196" on="1"/>
        <pt x="1449" y="41" on="1"/>
        <pt x="1449" y="17" on="0"/>
        <pt x="1422" y="-11" on="0"/>
        <pt x="1404" y="-11" on="1"/>
        <pt x="1360" y="-11" on="0"/>
        <pt x="1360" y="35" on="1"/>
        <pt x="1360" y="47" on="0"/>
      </contour>
    </TTGlyph>
    <TTGlyph name="Gbreve" xMin="88" yMin="-19" xMax="1449" yMax="1823">
      <contour>
        <pt x="1364" y="73" on="1"/>
        <pt x="1366" y="142" on="1"/>
        <pt x="1366" y="300" on="1"/>
        <pt x="1225" y="65" on="0"/>
        <pt x="950" y="1" on="1"/>
        <pt x="863" y="-19" on="0"/>
        <pt x="632" y="-19" on="0"/>
        <pt x="385" y="77" on="0"/>
        <pt x="292" y="168" on="1"/>
        <pt x="88" y="366" on="0"/>
        <pt x="88" y="689" on="1"/>
        <pt x="88" y="998" on="0"/>
        <pt x="304" y="1212" on="1"/>
        <pt x="529" y="1433" on="0"/>
        <pt x="869" y="1433" on="1"/>
        <pt x="1041" y="1433" on="0"/>
        <pt x="1180" y="1369" on="1"/>
        <pt x="1265" y="1331" on="0"/>
        <pt x="1335" y="1266" on="0"/>
        <pt x="1335" y="1227" on="0"/>
        <pt x="1311" y="1199" on="0"/>
        <pt x="1268" y="1199" on="0"/>
        <pt x="1242" y="1222" on="1"/>
        <pt x="1165" y="1290" on="0"/>
        <pt x="1048" y="1332" on="0"/>
        <pt x="978" y="1350" on="0"/>
        <pt x="950" y="1354" on="1"/>
        <pt x="907" y="1360" on="0"/>
        <pt x="789" y="1360" on="0"/>
        <pt x="739" y="1350" on="1"/>
        <pt x="739" y="56" on="1"/>
        <pt x="750" y="55" on="0"/>
        <pt x="761" y="55" on="1"/>
        <pt x="781" y="55" on="1"/>
        <pt x="1078" y="55" on="0"/>
        <pt x="1262" y="280" on="1"/>
        <pt x="1325" y="357" on="0"/>
        <pt x="1366" y="462" on="1"/>
        <pt x="1366" y="558" on="1"/>
        <pt x="1366" y="558" on="0"/>
        <pt x="1361" y="648" on="1"/>
        <pt x="1361" y="701" on="0"/>
        <pt x="1403" y="701" on="1"/>
        <pt x="1425" y="701" on="0"/>
        <pt x="1449" y="672" on="0"/>
        <pt x="1449" y="651" on="1"/>
        <pt x="1443" y="568" on="1"/>
        <pt x="1443" y="196" on="1"/>
        <pt x="1449" y="41" on="1"/>
        <pt x="1449" y="17" on="0"/>
        <pt x="1422" y="-11" on="0"/>
        <pt x="1404" y="-11" on="1"/>
        <pt x="1360" y="-11" on="0"/>
        <pt x="1360" y="35" on="1"/>
        <pt x="1360" y="47" on="0"/>
      </contour>
      <contour>
        <pt x="1032" y="1823" on="0"/>
        <pt x="1114" y="1823" on="0"/>
        <pt x="1114" y="1723" on="0"/>
        <pt x="1076" y="1635" on="0"/>
        <pt x="1042" y="1602" on="1"/>
        <pt x="966" y="1530" on="0"/>
        <pt x="850" y="1530" on="1"/>
        <pt x="733" y="1530" on="0"/>
        <pt x="658" y="1600" on="1"/>
        <pt x="583" y="1669" on="0"/>
        <pt x="583" y="1772" on="1"/>
        <pt x="583" y="1795" on="0"/>
        <pt x="607" y="1823" on="0"/>
        <pt x="626" y="1823" on="1"/>
        <pt x="666" y="1823" on="0"/>
        <pt x="674" y="1755" on="1"/>
        <pt x="682" y="1689" on="0"/>
        <pt x="783" y="1603" on="0"/>
        <pt x="888" y="1603" on="0"/>
        <pt x="951" y="1626" on="0"/>
        <pt x="974" y="1647" on="1"/>
        <pt x="1023" y="1689" on="0"/>
      </contour>
    </TTGlyph>
    <TTGlyph name="Gcircumflex" xMin="88" yMin="-19" xMax="1449" yMax="1814">
      <contour>
        <pt x="1364" y="73" on="1"/>
        <pt x="1366" y="142" on="1"/>
        <pt x="1366" y="300" on="1"/>
        <pt x="1225" y="65" on="0"/>
        <pt x="950" y="1" on="1"/>
        <pt x="863" y="-19" on="0"/>
        <pt x="632" y="-19" on="0"/>
        <pt x="385" y="77" on="0"/>
        <pt x="292" y="168" on="1"/>
        <pt x="88" y="366" on="0"/>
        <pt x="88" y="689" on="1"/>
        <pt x="88" y="998" on="0"/>
        <pt x="304" y="1212" on="1"/>
        <pt x="529" y="1433" on="0"/>
        <pt x="869" y="1433" on="1"/>
        <pt x="1041" y="1433" on="0"/>
        <pt x="1180" y="1369" on="1"/>
        <pt x="1265" y="1331" on="0"/>
        <pt x="1335" y="1266" on="0"/>
        <pt x="1335" y="1227" on="0"/>
        <pt x="1311" y="1199" on="0"/>
        <pt x="1268" y="1199" on="0"/>
        <pt x="1242" y="1222" on="1"/>
        <pt x="1165" y="1290" on="0"/>
        <pt x="1048" y="1332" on="0"/>
        <pt x="978" y="1350" on="0"/>
        <pt x="950" y="1354" on="1"/>
        <pt x="907" y="1360" on="0"/>
        <pt x="789" y="1360" on="0"/>
        <pt x="739" y="1350" on="1"/>
        <pt x="739" y="56" on="1"/>
        <pt x="750" y="55" on="0"/>
        <pt x="761" y="55" on="1"/>
        <pt x="781" y="55" on="1"/>
        <pt x="1078" y="55" on="0"/>
        <pt x="1262" y="280" on="1"/>
        <pt x="1325" y="357" on="0"/>
        <pt x="1366" y="462" on="1"/>
        <pt x="1366" y="558" on="1"/>
        <pt x="1366" y="558" on="0"/>
        <pt x="1361" y="648" on="1"/>
        <pt x="1361" y="701" on="0"/>
        <pt x="1403" y="701" on="1"/>
        <pt x="1425" y="701" on="0"/>
        <pt x="1449" y="672" on="0"/>
        <pt x="1449" y="651" on="1"/>
        <pt x="1443" y="568" on="1"/>
        <pt x="1443" y="196" on="1"/>
        <pt x="1449" y="41" on="1"/>
        <pt x="1449" y="17" on="0"/>
        <pt x="1422" y="-11" on="0"/>
        <pt x="1404" y="-11" on="1"/>
        <pt x="1360" y="-11" on="0"/>
        <pt x="1360" y="35" on="1"/>
        <pt x="1360" y="47" on="0"/>
      </contour>
      <contour>
        <pt x="615" y="1574" on="1"/>
        <pt x="585" y="1544" on="1"/>
        <pt x="563" y="1522" on="0"/>
        <pt x="529" y="1522" on="0"/>
        <pt x="508" y="1543" on="0"/>
        <pt x="508" y="1557" on="1"/>
        <pt x="508" y="1583" on="0"/>
        <pt x="549" y="1618" on="1"/>
        <pt x="562" y="1631" on="0"/>
        <pt x="602" y="1666" on="0"/>
        <pt x="640" y="1704" on="1"/>
        <pt x="750" y="1814" on="1"/>
        <pt x="1005" y="1814" on="1"/>
        <pt x="1268" y="1530" on="1"/>
        <pt x="960" y="1530" on="1"/>
        <pt x="780" y="1744" on="1"/>
        <pt x="655" y="1618" on="0"/>
        <pt x="623" y="1582" on="0"/>
      </contour>
    </TTGlyph>
    <TTGlyph name="Gcommaaccent" xMin="88" yMin="-630" xMax="1449" yMax="1433">
      <contour>
        <pt x="1364" y="73" on="1"/>
        <pt x="1366" y="142" on="1"/>
        <pt x="1366" y="300" on="1"/>
        <pt x="1225" y="65" on="0"/>
        <pt x="950" y="1" on="1"/>
        <pt x="863" y="-19" on="0"/>
        <pt x="632" y="-19" on="0"/>
        <pt x="385" y="77" on="0"/>
        <pt x="292" y="168" on="1"/>
        <pt x="88" y="366" on="0"/>
        <pt x="88" y="689" on="1"/>
        <pt x="88" y="998" on="0"/>
        <pt x="304" y="1212" on="1"/>
        <pt x="529" y="1433" on="0"/>
        <pt x="869" y="1433" on="1"/>
        <pt x="1041" y="1433" on="0"/>
        <pt x="1180" y="1369" on="1"/>
        <pt x="1265" y="1331" on="0"/>
        <pt x="1335" y="1266" on="0"/>
        <pt x="1335" y="1227" on="0"/>
        <pt x="1311" y="1199" on="0"/>
        <pt x="1268" y="1199" on="0"/>
        <pt x="1242" y="1222" on="1"/>
        <pt x="1165" y="1290" on="0"/>
        <pt x="1048" y="1332" on="0"/>
        <pt x="978" y="1350" on="0"/>
        <pt x="950" y="1354" on="1"/>
        <pt x="907" y="1360" on="0"/>
        <pt x="789" y="1360" on="0"/>
        <pt x="739" y="1350" on="1"/>
        <pt x="739" y="56" on="1"/>
        <pt x="750" y="55" on="0"/>
        <pt x="761" y="55" on="1"/>
        <pt x="781" y="55" on="1"/>
        <pt x="1078" y="55" on="0"/>
        <pt x="1262" y="280" on="1"/>
        <pt x="1325" y="357" on="0"/>
        <pt x="1366" y="462" on="1"/>
        <pt x="1366" y="558" on="1"/>
        <pt x="1366" y="558" on="0"/>
        <pt x="1361" y="648" on="1"/>
        <pt x="1361" y="701" on="0"/>
        <pt x="1403" y="701" on="1"/>
        <pt x="1425" y="701" on="0"/>
        <pt x="1449" y="672" on="0"/>
        <pt x="1449" y="651" on="1"/>
        <pt x="1443" y="568" on="1"/>
        <pt x="1443" y="196" on="1"/>
        <pt x="1449" y="41" on="1"/>
        <pt x="1449" y="17" on="0"/>
        <pt x="1422" y="-11" on="0"/>
        <pt x="1404" y="-11" on="1"/>
        <pt x="1360" y="-11" on="0"/>
        <pt x="1360" y="35" on="1"/>
        <pt x="1360" y="47" on="0"/>
      </contour>
      <contour>
        <pt x="947" y="-409" on="1"/>
        <pt x="865" y="-445" on="0"/>
        <pt x="745" y="-445" on="0"/>
        <pt x="663" y="-421" on="0"/>
        <pt x="635" y="-401" on="1"/>
        <pt x="577" y="-360" on="0"/>
        <pt x="577" y="-297" on="1"/>
        <pt x="577" y="-230" on="0"/>
        <pt x="705" y="-147" on="0"/>
        <pt x="918" y="-147" on="0"/>
        <pt x="1042" y="-239" on="0"/>
        <pt x="1042" y="-325" on="1"/>
        <pt x="1042" y="-444" on="0"/>
        <pt x="950" y="-533" on="1"/>
        <pt x="886" y="-595" on="0"/>
        <pt x="844" y="-618" on="0"/>
        <pt x="824" y="-622" on="1"/>
        <pt x="777" y="-630" on="0"/>
        <pt x="775" y="-588" on="1"/>
        <pt x="774" y="-572" on="0"/>
        <pt x="791" y="-560" on="1"/>
        <pt x="830" y="-532" on="1"/>
        <pt x="922" y="-468" on="0"/>
      </contour>
    </TTGlyph>
    <TTGlyph name="Gdotaccent" xMin="88" yMin="-19" xMax="1449" yMax="1854">
      <contour>
        <pt x="1364" y="73" on="1"/>
        <pt x="1366" y="142" on="1"/>
        <pt x="1366" y="300" on="1"/>
        <pt x="1225" y="65" on="0"/>
        <pt x="950" y="1" on="1"/>
        <pt x="863" y="-19" on="0"/>
        <pt x="632" y="-19" on="0"/>
        <pt x="385" y="77" on="0"/>
        <pt x="292" y="168" on="1"/>
        <pt x="88" y="366" on="0"/>
        <pt x="88" y="689" on="1"/>
        <pt x="88" y="998" on="0"/>
        <pt x="304" y="1212" on="1"/>
        <pt x="529" y="1433" on="0"/>
        <pt x="869" y="1433" on="1"/>
        <pt x="1041" y="1433" on="0"/>
        <pt x="1180" y="1369" on="1"/>
        <pt x="1265" y="1331" on="0"/>
        <pt x="1335" y="1266" on="0"/>
        <pt x="1335" y="1227" on="0"/>
        <pt x="1311" y="1199" on="0"/>
        <pt x="1268" y="1199" on="0"/>
        <pt x="1242" y="1222" on="1"/>
        <pt x="1165" y="1290" on="0"/>
        <pt x="1048" y="1332" on="0"/>
        <pt x="978" y="1350" on="0"/>
        <pt x="950" y="1354" on="1"/>
        <pt x="907" y="1360" on="0"/>
        <pt x="789" y="1360" on="0"/>
        <pt x="739" y="1350" on="1"/>
        <pt x="739" y="56" on="1"/>
        <pt x="750" y="55" on="0"/>
        <pt x="761" y="55" on="1"/>
        <pt x="781" y="55" on="1"/>
        <pt x="1078" y="55" on="0"/>
        <pt x="1262" y="280" on="1"/>
        <pt x="1325" y="357" on="0"/>
        <pt x="1366" y="462" on="1"/>
        <pt x="1366" y="558" on="1"/>
        <pt x="1366" y="558" on="0"/>
        <pt x="1361" y="648" on="1"/>
        <pt x="1361" y="701" on="0"/>
        <pt x="1403" y="701" on="1"/>
        <pt x="1425" y="701" on="0"/>
        <pt x="1449" y="672" on="0"/>
        <pt x="1449" y="651" on="1"/>
        <pt x="1443" y="568" on="1"/>
        <pt x="1443" y="196" on="1"/>
        <pt x="1449" y="41" on="1"/>
        <pt x="1449" y="17" on="0"/>
        <pt x="1422" y="-11" on="0"/>
        <pt x="1404" y="-11" on="1"/>
        <pt x="1360" y="-11" on="0"/>
        <pt x="1360" y="35" on="1"/>
        <pt x="1360" y="47" on="0"/>
      </contour>
      <contour>
        <pt x="737" y="1509" on="0"/>
        <pt x="618" y="1608" on="0"/>
        <pt x="618" y="1687" on="1"/>
        <pt x="618" y="1754" on="0"/>
        <pt x="684" y="1804" on="1"/>
        <pt x="752" y="1854" on="0"/>
        <pt x="855" y="1854" on="1"/>
        <pt x="959" y="1854" on="0"/>
        <pt x="1026" y="1796" on="1"/>
        <pt x="1085" y="1745" on="0"/>
        <pt x="1085" y="1675" on="1"/>
        <pt x="1085" y="1605" on="0"/>
        <pt x="1017" y="1558" on="1"/>
        <pt x="948" y="1509" on="0"/>
      </contour>
    </TTGlyph>
    <TTGlyph name="H" xMin="177" yMin="-11" xMax="1373" yMax="1426">
      <contour>
        <pt x="1268" y="145" on="1"/>
        <pt x="1271" y="43" on="1"/>
        <pt x="1271" y="17" on="0"/>
        <pt x="1241" y="-11" on="0"/>
        <pt x="1202" y="-11" on="0"/>
        <pt x="1179" y="15" on="0"/>
        <pt x="1179" y="35" on="1"/>
        <pt x="1179" y="55" on="0"/>
        <pt x="1184" y="80" on="1"/>
        <pt x="1191" y="111" on="0"/>
        <pt x="1191" y="235" on="1"/>
        <pt x="1191" y="965" on="1"/>
        <pt x="688" y="965" on="1"/>
        <pt x="688" y="0" on="1"/>
        <pt x="177" y="0" on="1"/>
        <pt x="177" y="1415" on="1"/>
        <pt x="688" y="1415" on="1"/>
        <pt x="688" y="1038" on="1"/>
        <pt x="904" y="1038" on="0"/>
        <pt x="1161" y="1038" on="0"/>
        <pt x="1191" y="1039" on="1"/>
        <pt x="1191" y="1213" on="1"/>
        <pt x="1191" y="1300" on="0"/>
        <pt x="1188" y="1326" on="1"/>
        <pt x="1184" y="1356" on="1"/>
        <pt x="1183" y="1370" on="0"/>
        <pt x="1183" y="1380" on="1"/>
        <pt x="1183" y="1426" on="0"/>
        <pt x="1225" y="1426" on="1"/>
        <pt x="1240" y="1426" on="0"/>
        <pt x="1272" y="1402" on="0"/>
        <pt x="1272" y="1374" on="1"/>
        <pt x="1268" y="1246" on="1"/>
        <pt x="1268" y="1043" on="1"/>
        <pt x="1331" y="1052" on="1"/>
        <pt x="1349" y="1052" on="0"/>
        <pt x="1373" y="1031" on="0"/>
        <pt x="1373" y="1014" on="1"/>
        <pt x="1373" y="975" on="0"/>
        <pt x="1311" y="970" on="1"/>
        <pt x="1300" y="968" on="0"/>
        <pt x="1279" y="967" on="0"/>
        <pt x="1268" y="966" on="1"/>
      </contour>
    </TTGlyph>
    <TTGlyph name="Hbar" xMin="-4" yMin="-11" xMax="1446" yMax="1426">
      <contour>
        <pt x="1268" y="145" on="1"/>
        <pt x="1271" y="43" on="1"/>
        <pt x="1271" y="17" on="0"/>
        <pt x="1241" y="-11" on="0"/>
        <pt x="1202" y="-11" on="0"/>
        <pt x="1179" y="15" on="0"/>
        <pt x="1179" y="35" on="1"/>
        <pt x="1179" y="55" on="0"/>
        <pt x="1184" y="80" on="1"/>
        <pt x="1191" y="111" on="0"/>
        <pt x="1191" y="235" on="1"/>
        <pt x="1191" y="682" on="1"/>
        <pt x="688" y="682" on="1"/>
        <pt x="688" y="0" on="1"/>
        <pt x="177" y="0" on="1"/>
        <pt x="177" y="1068" on="1"/>
        <pt x="53" y="1059" on="1"/>
        <pt x="29" y="1059" on="0"/>
        <pt x="-4" y="1086" on="0"/>
        <pt x="-4" y="1124" on="0"/>
        <pt x="27" y="1148" on="0"/>
        <pt x="53" y="1148" on="1"/>
        <pt x="177" y="1140" on="1"/>
        <pt x="177" y="1415" on="1"/>
        <pt x="688" y="1415" on="1"/>
        <pt x="688" y="1140" on="1"/>
        <pt x="1191" y="1140" on="1"/>
        <pt x="1191" y="1213" on="1"/>
        <pt x="1191" y="1300" on="0"/>
        <pt x="1188" y="1326" on="1"/>
        <pt x="1184" y="1356" on="1"/>
        <pt x="1183" y="1370" on="0"/>
        <pt x="1183" y="1380" on="1"/>
        <pt x="1183" y="1426" on="0"/>
        <pt x="1225" y="1426" on="1"/>
        <pt x="1240" y="1426" on="0"/>
        <pt x="1272" y="1402" on="0"/>
        <pt x="1272" y="1374" on="1"/>
        <pt x="1268" y="1246" on="1"/>
        <pt x="1268" y="1140" on="1"/>
        <pt x="1390" y="1148" on="1"/>
        <pt x="1446" y="1148" on="0"/>
        <pt x="1446" y="1104" on="1"/>
        <pt x="1446" y="1086" on="0"/>
        <pt x="1415" y="1060" on="0"/>
        <pt x="1386" y="1060" on="1"/>
        <pt x="1268" y="1068" on="1"/>
      </contour>
      <contour>
        <pt x="688" y="755" on="1"/>
        <pt x="904" y="755" on="0"/>
        <pt x="1161" y="755" on="0"/>
        <pt x="1191" y="756" on="1"/>
        <pt x="1191" y="1068" on="1"/>
        <pt x="688" y="1068" on="1"/>
      </contour>
    </TTGlyph>
    <TTGlyph name="Hcircumflex" xMin="177" yMin="-11" xMax="1373" yMax="1814">
      <contour>
        <pt x="1268" y="145" on="1"/>
        <pt x="1271" y="43" on="1"/>
        <pt x="1271" y="17" on="0"/>
        <pt x="1241" y="-11" on="0"/>
        <pt x="1202" y="-11" on="0"/>
        <pt x="1179" y="15" on="0"/>
        <pt x="1179" y="35" on="1"/>
        <pt x="1179" y="55" on="0"/>
        <pt x="1184" y="80" on="1"/>
        <pt x="1191" y="111" on="0"/>
        <pt x="1191" y="235" on="1"/>
        <pt x="1191" y="965" on="1"/>
        <pt x="688" y="965" on="1"/>
        <pt x="688" y="0" on="1"/>
        <pt x="177" y="0" on="1"/>
        <pt x="177" y="1415" on="1"/>
        <pt x="688" y="1415" on="1"/>
        <pt x="688" y="1038" on="1"/>
        <pt x="904" y="1038" on="0"/>
        <pt x="1161" y="1038" on="0"/>
        <pt x="1191" y="1039" on="1"/>
        <pt x="1191" y="1213" on="1"/>
        <pt x="1191" y="1300" on="0"/>
        <pt x="1188" y="1326" on="1"/>
        <pt x="1184" y="1356" on="1"/>
        <pt x="1183" y="1370" on="0"/>
        <pt x="1183" y="1380" on="1"/>
        <pt x="1183" y="1426" on="0"/>
        <pt x="1225" y="1426" on="1"/>
        <pt x="1240" y="1426" on="0"/>
        <pt x="1272" y="1402" on="0"/>
        <pt x="1272" y="1374" on="1"/>
        <pt x="1268" y="1246" on="1"/>
        <pt x="1268" y="1043" on="1"/>
        <pt x="1331" y="1052" on="1"/>
        <pt x="1349" y="1052" on="0"/>
        <pt x="1373" y="1031" on="0"/>
        <pt x="1373" y="1014" on="1"/>
        <pt x="1373" y="975" on="0"/>
        <pt x="1311" y="970" on="1"/>
        <pt x="1300" y="968" on="0"/>
        <pt x="1279" y="967" on="0"/>
        <pt x="1268" y="966" on="1"/>
      </contour>
      <contour>
        <pt x="532" y="1574" on="1"/>
        <pt x="502" y="1544" on="1"/>
        <pt x="480" y="1522" on="0"/>
        <pt x="446" y="1522" on="0"/>
        <pt x="425" y="1543" on="0"/>
        <pt x="425" y="1557" on="1"/>
        <pt x="425" y="1583" on="0"/>
        <pt x="466" y="1618" on="1"/>
        <pt x="479" y="1631" on="0"/>
        <pt x="519" y="1666" on="0"/>
        <pt x="557" y="1704" on="1"/>
        <pt x="667" y="1814" on="1"/>
        <pt x="922" y="1814" on="1"/>
        <pt x="1185" y="1530" on="1"/>
        <pt x="877" y="1530" on="1"/>
        <pt x="697" y="1744" on="1"/>
        <pt x="572" y="1618" on="0"/>
        <pt x="540" y="1582" on="0"/>
      </contour>
    </TTGlyph>
    <TTGlyph name="I" xMin="160" yMin="0" xMax="670" yMax="1415">
      <contour>
        <pt x="160" y="1415" on="1"/>
        <pt x="670" y="1415" on="1"/>
        <pt x="670" y="0" on="1"/>
        <pt x="160" y="0" on="1"/>
      </contour>
    </TTGlyph>
    <TTGlyph name="IJ" xMin="160" yMin="-19" xMax="1792" yMax="1415">
      <contour>
        <pt x="160" y="1415" on="1"/>
        <pt x="670" y="1415" on="1"/>
        <pt x="670" y="0" on="1"/>
        <pt x="160" y="0" on="1"/>
      </contour>
      <contour>
        <pt x="1076" y="61" on="0"/>
        <pt x="1160" y="48" on="0"/>
        <pt x="1243" y="48" on="0"/>
        <pt x="1281" y="57" on="1"/>
        <pt x="1281" y="1415" on="1"/>
        <pt x="1792" y="1415" on="1"/>
        <pt x="1792" y="534" on="1"/>
        <pt x="1792" y="271" on="0"/>
        <pt x="1659" y="134" on="1"/>
        <pt x="1510" y="-19" on="0"/>
        <pt x="1194" y="-19" on="1"/>
        <pt x="986" y="-19" on="0"/>
        <pt x="878" y="76" on="1"/>
        <pt x="861" y="93" on="1"/>
        <pt x="825" y="131" on="0"/>
        <pt x="828" y="159" on="1"/>
        <pt x="835" y="206" on="0"/>
        <pt x="870" y="202" on="1"/>
        <pt x="904" y="196" on="0"/>
        <pt x="943" y="130" on="0"/>
        <pt x="1002" y="88" on="0"/>
      </contour>
    </TTGlyph>
    <TTGlyph name="Iacute" xMin="160" yMin="0" xMax="816" yMax="1812">
      <contour>
        <pt x="160" y="1415" on="1"/>
        <pt x="670" y="1415" on="1"/>
        <pt x="670" y="0" on="1"/>
        <pt x="160" y="0" on="1"/>
      </contour>
      <contour>
        <pt x="536" y="1812" on="1"/>
        <pt x="816" y="1812" on="1"/>
        <pt x="573" y="1528" on="1"/>
        <pt x="418" y="1528" on="1"/>
      </contour>
    </TTGlyph>
    <TTGlyph name="Ibreve" xMin="156" yMin="0" xMax="687" yMax="1823">
      <contour>
        <pt x="160" y="1415" on="1"/>
        <pt x="670" y="1415" on="1"/>
        <pt x="670" y="0" on="1"/>
        <pt x="160" y="0" on="1"/>
      </contour>
      <contour>
        <pt x="605" y="1823" on="0"/>
        <pt x="687" y="1823" on="0"/>
        <pt x="687" y="1723" on="0"/>
        <pt x="649" y="1635" on="0"/>
        <pt x="615" y="1602" on="1"/>
        <pt x="539" y="1530" on="0"/>
        <pt x="423" y="1530" on="1"/>
        <pt x="306" y="1530" on="0"/>
        <pt x="231" y="1600" on="1"/>
        <pt x="156" y="1669" on="0"/>
        <pt x="156" y="1772" on="1"/>
        <pt x="156" y="1795" on="0"/>
        <pt x="180" y="1823" on="0"/>
        <pt x="199" y="1823" on="1"/>
        <pt x="239" y="1823" on="0"/>
        <pt x="247" y="1755" on="1"/>
        <pt x="255" y="1689" on="0"/>
        <pt x="356" y="1603" on="0"/>
        <pt x="461" y="1603" on="0"/>
        <pt x="524" y="1626" on="0"/>
        <pt x="547" y="1647" on="1"/>
        <pt x="596" y="1689" on="0"/>
      </contour>
    </TTGlyph>
    <TTGlyph name="Icircumflex" xMin="82" yMin="0" xMax="842" yMax="1814">
      <contour>
        <pt x="160" y="1415" on="1"/>
        <pt x="670" y="1415" on="1"/>
        <pt x="670" y="0" on="1"/>
        <pt x="160" y="0" on="1"/>
      </contour>
      <contour>
        <pt x="189" y="1574" on="1"/>
        <pt x="159" y="1544" on="1"/>
        <pt x="137" y="1522" on="0"/>
        <pt x="103" y="1522" on="0"/>
        <pt x="82" y="1543" on="0"/>
        <pt x="82" y="1557" on="1"/>
        <pt x="82" y="1583" on="0"/>
        <pt x="123" y="1618" on="1"/>
        <pt x="136" y="1631" on="0"/>
        <pt x="176" y="1666" on="0"/>
        <pt x="214" y="1704" on="1"/>
        <pt x="324" y="1814" on="1"/>
        <pt x="579" y="1814" on="1"/>
        <pt x="842" y="1530" on="1"/>
        <pt x="534" y="1530" on="1"/>
        <pt x="354" y="1744" on="1"/>
        <pt x="229" y="1618" on="0"/>
        <pt x="197" y="1582" on="0"/>
      </contour>
    </TTGlyph>
    <TTGlyph name="Idieresis" xMin="-8" yMin="0" xMax="847" yMax="1783">
      <contour>
        <pt x="160" y="1415" on="1"/>
        <pt x="670" y="1415" on="1"/>
        <pt x="670" y="0" on="1"/>
        <pt x="160" y="0" on="1"/>
      </contour>
      <contour>
        <pt x="847" y="1599" on="0"/>
        <pt x="752" y="1530" on="0"/>
        <pt x="630" y="1530" on="0"/>
        <pt x="566" y="1550" on="0"/>
        <pt x="543" y="1567" on="1"/>
        <pt x="495" y="1602" on="0"/>
        <pt x="495" y="1657" on="1"/>
        <pt x="495" y="1744" on="0"/>
        <pt x="593" y="1773" on="1"/>
        <pt x="627" y="1783" on="0"/>
        <pt x="715" y="1783" on="0"/>
        <pt x="780" y="1762" on="0"/>
        <pt x="802" y="1744" on="1"/>
        <pt x="847" y="1707" on="0"/>
      </contour>
      <contour>
        <pt x="344" y="1599" on="0"/>
        <pt x="250" y="1530" on="0"/>
        <pt x="128" y="1530" on="0"/>
        <pt x="64" y="1550" on="0"/>
        <pt x="41" y="1567" on="1"/>
        <pt x="-8" y="1602" on="0"/>
        <pt x="-8" y="1657" on="1"/>
        <pt x="-8" y="1744" on="0"/>
        <pt x="91" y="1773" on="1"/>
        <pt x="124" y="1783" on="0"/>
        <pt x="213" y="1783" on="0"/>
        <pt x="277" y="1762" on="0"/>
        <pt x="299" y="1744" on="1"/>
        <pt x="344" y="1707" on="0"/>
      </contour>
    </TTGlyph>
    <TTGlyph name="Idotaccent" xMin="160" yMin="0" xMax="670" yMax="1854">
      <contour>
        <pt x="160" y="1415" on="1"/>
        <pt x="670" y="1415" on="1"/>
        <pt x="670" y="0" on="1"/>
        <pt x="160" y="0" on="1"/>
      </contour>
      <contour>
        <pt x="310" y="1509" on="0"/>
        <pt x="191" y="1608" on="0"/>
        <pt x="191" y="1687" on="1"/>
        <pt x="191" y="1754" on="0"/>
        <pt x="257" y="1804" on="1"/>
        <pt x="325" y="1854" on="0"/>
        <pt x="428" y="1854" on="1"/>
        <pt x="532" y="1854" on="0"/>
        <pt x="599" y="1796" on="1"/>
        <pt x="658" y="1745" on="0"/>
        <pt x="658" y="1675" on="1"/>
        <pt x="658" y="1605" on="0"/>
        <pt x="590" y="1558" on="1"/>
        <pt x="521" y="1509" on="0"/>
      </contour>
    </TTGlyph>
    <TTGlyph name="Igrave" xMin="46" yMin="0" xMax="670" yMax="1700">
      <contour>
        <pt x="160" y="1415" on="1"/>
        <pt x="670" y="1415" on="1"/>
        <pt x="670" y="0" on="1"/>
        <pt x="160" y="0" on="1"/>
      </contour>
      <contour>
        <pt x="46" y="1700" on="1"/>
        <pt x="327" y="1700" on="1"/>
        <pt x="444" y="1416" on="1"/>
        <pt x="290" y="1416" on="1"/>
      </contour>
    </TTGlyph>
    <TTGlyph name="Imacron" xMin="65" yMin="0" xMax="786" yMax="1801">
      <contour>
        <pt x="160" y="1415" on="1"/>
        <pt x="670" y="1415" on="1"/>
        <pt x="670" y="0" on="1"/>
        <pt x="160" y="0" on="1"/>
      </contour>
      <contour>
        <pt x="272" y="1721" on="1"/>
        <pt x="122" y="1712" on="1"/>
        <pt x="98" y="1712" on="0"/>
        <pt x="65" y="1739" on="0"/>
        <pt x="65" y="1777" on="0"/>
        <pt x="96" y="1801" on="0"/>
        <pt x="122" y="1801" on="1"/>
        <pt x="122" y="1801" on="0"/>
        <pt x="264" y="1793" on="1"/>
        <pt x="571" y="1793" on="1"/>
        <pt x="730" y="1801" on="1"/>
        <pt x="786" y="1801" on="0"/>
        <pt x="786" y="1757" on="1"/>
        <pt x="786" y="1739" on="0"/>
        <pt x="755" y="1713" on="0"/>
        <pt x="726" y="1713" on="1"/>
        <pt x="583" y="1721" on="1"/>
      </contour>
    </TTGlyph>
    <TTGlyph name="Iogonek" xMin="160" yMin="-361" xMax="671" yMax="1415">
      <contour>
        <pt x="295" y="-189" on="1"/>
        <pt x="295" y="-72" on="0"/>
        <pt x="391" y="0" on="1"/>
        <pt x="160" y="0" on="1"/>
        <pt x="160" y="1415" on="1"/>
        <pt x="670" y="1415" on="1"/>
        <pt x="670" y="0" on="1"/>
        <pt x="487" y="0" on="1"/>
        <pt x="443" y="-32" on="0"/>
        <pt x="383" y="-129" on="0"/>
        <pt x="383" y="-204" on="0"/>
        <pt x="395" y="-242" on="0"/>
        <pt x="408" y="-256" on="1"/>
        <pt x="435" y="-287" on="0"/>
        <pt x="478" y="-287" on="1"/>
        <pt x="551" y="-287" on="0"/>
        <pt x="586" y="-247" on="1"/>
        <pt x="606" y="-224" on="0"/>
        <pt x="625" y="-212" on="0"/>
        <pt x="639" y="-212" on="1"/>
        <pt x="653" y="-212" on="0"/>
        <pt x="671" y="-234" on="0"/>
        <pt x="671" y="-265" on="0"/>
        <pt x="644" y="-305" on="0"/>
        <pt x="620" y="-322" on="1"/>
        <pt x="563" y="-361" on="0"/>
        <pt x="440" y="-361" on="0"/>
        <pt x="370" y="-334" on="0"/>
        <pt x="346" y="-310" on="1"/>
        <pt x="295" y="-262" on="0"/>
      </contour>
    </TTGlyph>
    <TTGlyph name="Itilde" xMin="79" yMin="0" xMax="785" yMax="1832">
      <contour>
        <pt x="160" y="1415" on="1"/>
        <pt x="670" y="1415" on="1"/>
        <pt x="670" y="0" on="1"/>
        <pt x="160" y="0" on="1"/>
      </contour>
      <contour>
        <pt x="127" y="1540" on="0"/>
        <pt x="102" y="1540" on="0"/>
        <pt x="79" y="1567" on="0"/>
        <pt x="79" y="1632" on="0"/>
        <pt x="119" y="1719" on="0"/>
        <pt x="154" y="1754" on="1"/>
        <pt x="232" y="1832" on="0"/>
        <pt x="333" y="1832" on="1"/>
        <pt x="417" y="1832" on="0"/>
        <pt x="523" y="1749" on="1"/>
        <pt x="575" y="1709" on="1"/>
        <pt x="632" y="1666" on="0"/>
        <pt x="668" y="1666" on="0"/>
        <pt x="701" y="1716" on="0"/>
        <pt x="714" y="1796" on="0"/>
        <pt x="728" y="1823" on="0"/>
        <pt x="762" y="1823" on="0"/>
        <pt x="785" y="1793" on="0"/>
        <pt x="785" y="1730" on="0"/>
        <pt x="745" y="1643" on="0"/>
        <pt x="710" y="1608" on="1"/>
        <pt x="632" y="1530" on="0"/>
        <pt x="531" y="1530" on="1"/>
        <pt x="452" y="1530" on="0"/>
        <pt x="344" y="1608" on="1"/>
        <pt x="272" y="1662" on="1"/>
        <pt x="240" y="1687" on="0"/>
        <pt x="210" y="1687" on="0"/>
        <pt x="189" y="1674" on="0"/>
        <pt x="179" y="1662" on="1"/>
        <pt x="157" y="1637" on="0"/>
        <pt x="152" y="1610" on="1"/>
        <pt x="146" y="1572" on="1"/>
        <pt x="142" y="1548" on="0"/>
      </contour>
    </TTGlyph>
    <TTGlyph name="J" xMin="-3" yMin="-19" xMax="964" yMax="1415">
      <contour>
        <pt x="248" y="61" on="0"/>
        <pt x="332" y="48" on="0"/>
        <pt x="415" y="48" on="0"/>
        <pt x="453" y="57" on="1"/>
        <pt x="453" y="1415" on="1"/>
        <pt x="964" y="1415" on="1"/>
        <pt x="964" y="534" on="1"/>
        <pt x="964" y="271" on="0"/>
        <pt x="831" y="134" on="1"/>
        <pt x="682" y="-19" on="0"/>
        <pt x="366" y="-19" on="1"/>
        <pt x="158" y="-19" on="0"/>
        <pt x="50" y="76" on="1"/>
        <pt x="33" y="93" on="1"/>
        <pt x="-3" y="131" on="0"/>
        <pt x="0" y="159" on="1"/>
        <pt x="7" y="206" on="0"/>
        <pt x="42" y="202" on="1"/>
        <pt x="76" y="196" on="0"/>
        <pt x="115" y="130" on="0"/>
        <pt x="174" y="88" on="0"/>
      </contour>
    </TTGlyph>
    <TTGlyph name="Jcircumflex" xMin="-3" yMin="-19" xMax="1131" yMax="1814">
      <contour>
        <pt x="248" y="61" on="0"/>
        <pt x="332" y="48" on="0"/>
        <pt x="415" y="48" on="0"/>
        <pt x="453" y="57" on="1"/>
        <pt x="453" y="1415" on="1"/>
        <pt x="964" y="1415" on="1"/>
        <pt x="964" y="534" on="1"/>
        <pt x="964" y="271" on="0"/>
        <pt x="831" y="134" on="1"/>
        <pt x="682" y="-19" on="0"/>
        <pt x="366" y="-19" on="1"/>
        <pt x="158" y="-19" on="0"/>
        <pt x="50" y="76" on="1"/>
        <pt x="33" y="93" on="1"/>
        <pt x="-3" y="131" on="0"/>
        <pt x="0" y="159" on="1"/>
        <pt x="7" y="206" on="0"/>
        <pt x="42" y="202" on="1"/>
        <pt x="76" y="196" on="0"/>
        <pt x="115" y="130" on="0"/>
        <pt x="174" y="88" on="0"/>
      </contour>
      <contour>
        <pt x="478" y="1574" on="1"/>
        <pt x="448" y="1544" on="1"/>
        <pt x="426" y="1522" on="0"/>
        <pt x="392" y="1522" on="0"/>
        <pt x="371" y="1543" on="0"/>
        <pt x="371" y="1557" on="1"/>
        <pt x="371" y="1583" on="0"/>
        <pt x="412" y="1618" on="1"/>
        <pt x="425" y="1631" on="0"/>
        <pt x="465" y="1666" on="0"/>
        <pt x="503" y="1704" on="1"/>
        <pt x="613" y="1814" on="1"/>
        <pt x="868" y="1814" on="1"/>
        <pt x="1131" y="1530" on="1"/>
        <pt x="823" y="1530" on="1"/>
        <pt x="643" y="1744" on="1"/>
        <pt x="518" y="1618" on="0"/>
        <pt x="486" y="1582" on="0"/>
      </contour>
    </TTGlyph>
    <TTGlyph name="K" xMin="177" yMin="-14" xMax="1413" yMax="1426">
      <contour>
        <pt x="177" y="1415" on="1"/>
        <pt x="687" y="1415" on="1"/>
        <pt x="687" y="1001" on="1"/>
        <pt x="1043" y="1270" on="1"/>
        <pt x="1118" y="1327" on="0"/>
        <pt x="1186" y="1399" on="0"/>
        <pt x="1203" y="1414" on="0"/>
        <pt x="1210" y="1418" on="1"/>
        <pt x="1222" y="1426" on="0"/>
        <pt x="1259" y="1426" on="0"/>
        <pt x="1281" y="1405" on="0"/>
        <pt x="1281" y="1380" on="0"/>
        <pt x="1275" y="1363" on="0"/>
        <pt x="1266" y="1352" on="1"/>
        <pt x="1246" y="1328" on="0"/>
        <pt x="1190" y="1285" on="1"/>
        <pt x="966" y="1115" on="1"/>
        <pt x="1341" y="198" on="1"/>
        <pt x="1352" y="172" on="0"/>
        <pt x="1362" y="152" on="1"/>
        <pt x="1378" y="116" on="1"/>
        <pt x="1396" y="82" on="1"/>
        <pt x="1403" y="68" on="0"/>
        <pt x="1413" y="42" on="0"/>
        <pt x="1411" y="18" on="0"/>
        <pt x="1405" y="8" on="1"/>
        <pt x="1391" y="-14" on="0"/>
        <pt x="1371" y="-14" on="1"/>
        <pt x="1343" y="-14" on="0"/>
        <pt x="1329" y="2" on="1"/>
        <pt x="1311" y="24" on="0"/>
        <pt x="1302" y="51" on="1"/>
        <pt x="1284" y="107" on="1"/>
        <pt x="1275" y="135" on="0"/>
        <pt x="1260" y="174" on="1"/>
        <pt x="897" y="1063" on="1"/>
        <pt x="687" y="904" on="1"/>
        <pt x="687" y="0" on="1"/>
        <pt x="177" y="0" on="1"/>
      </contour>
    </TTGlyph>
    <TTGlyph name="Kcommaaccent" xMin="177" yMin="-630" xMax="1413" yMax="1426">
      <contour>
        <pt x="177" y="1415" on="1"/>
        <pt x="687" y="1415" on="1"/>
        <pt x="687" y="1001" on="1"/>
        <pt x="1043" y="1270" on="1"/>
        <pt x="1118" y="1327" on="0"/>
        <pt x="1186" y="1399" on="0"/>
        <pt x="1203" y="1414" on="0"/>
        <pt x="1210" y="1418" on="1"/>
        <pt x="1222" y="1426" on="0"/>
        <pt x="1259" y="1426" on="0"/>
        <pt x="1281" y="1405" on="0"/>
        <pt x="1281" y="1380" on="0"/>
        <pt x="1275" y="1363" on="0"/>
        <pt x="1266" y="1352" on="1"/>
        <pt x="1246" y="1328" on="0"/>
        <pt x="1190" y="1285" on="1"/>
        <pt x="966" y="1115" on="1"/>
        <pt x="1341" y="198" on="1"/>
        <pt x="1352" y="172" on="0"/>
        <pt x="1362" y="152" on="1"/>
        <pt x="1378" y="116" on="1"/>
        <pt x="1396" y="82" on="1"/>
        <pt x="1403" y="68" on="0"/>
        <pt x="1413" y="42" on="0"/>
        <pt x="1411" y="18" on="0"/>
        <pt x="1405" y="8" on="1"/>
        <pt x="1391" y="-14" on="0"/>
        <pt x="1371" y="-14" on="1"/>
        <pt x="1343" y="-14" on="0"/>
        <pt x="1329" y="2" on="1"/>
        <pt x="1311" y="24" on="0"/>
        <pt x="1302" y="51" on="1"/>
        <pt x="1284" y="107" on="1"/>
        <pt x="1275" y="135" on="0"/>
        <pt x="1260" y="174" on="1"/>
        <pt x="897" y="1063" on="1"/>
        <pt x="687" y="904" on="1"/>
        <pt x="687" y="0" on="1"/>
        <pt x="177" y="0" on="1"/>
      </contour>
      <contour>
        <pt x="894" y="-409" on="1"/>
        <pt x="812" y="-445" on="0"/>
        <pt x="692" y="-445" on="0"/>
        <pt x="610" y="-421" on="0"/>
        <pt x="582" y="-401" on="1"/>
        <pt x="524" y="-360" on="0"/>
        <pt x="524" y="-297" on="1"/>
        <pt x="524" y="-230" on="0"/>
        <pt x="652" y="-147" on="0"/>
        <pt x="865" y="-147" on="0"/>
        <pt x="989" y="-239" on="0"/>
        <pt x="989" y="-325" on="1"/>
        <pt x="989" y="-444" on="0"/>
        <pt x="897" y="-533" on="1"/>
        <pt x="833" y="-595" on="0"/>
        <pt x="791" y="-618" on="0"/>
        <pt x="771" y="-622" on="1"/>
        <pt x="724" y="-630" on="0"/>
        <pt x="722" y="-588" on="1"/>
        <pt x="721" y="-572" on="0"/>
        <pt x="738" y="-560" on="1"/>
        <pt x="777" y="-532" on="1"/>
        <pt x="869" y="-468" on="0"/>
      </contour>
    </TTGlyph>
    <TTGlyph name="L" xMin="177" yMin="0" xMax="1087" yMax="1415">
      <contour>
        <pt x="1034" y="91" on="1"/>
        <pt x="1087" y="91" on="0"/>
        <pt x="1087" y="46" on="1"/>
        <pt x="1087" y="28" on="0"/>
        <pt x="1044" y="0" on="0"/>
        <pt x="989" y="0" on="1"/>
        <pt x="177" y="0" on="1"/>
        <pt x="177" y="1415" on="1"/>
        <pt x="687" y="1415" on="1"/>
        <pt x="687" y="66" on="1"/>
        <pt x="874" y="66" on="1"/>
        <pt x="937" y="66" on="0"/>
        <pt x="1028" y="91" on="0"/>
      </contour>
    </TTGlyph>
    <TTGlyph name="Lacute" xMin="177" yMin="0" xMax="1087" yMax="1812">
      <contour>
        <pt x="1034" y="91" on="1"/>
        <pt x="1087" y="91" on="0"/>
        <pt x="1087" y="46" on="1"/>
        <pt x="1087" y="28" on="0"/>
        <pt x="1044" y="0" on="0"/>
        <pt x="989" y="0" on="1"/>
        <pt x="177" y="0" on="1"/>
        <pt x="177" y="1415" on="1"/>
        <pt x="687" y="1415" on="1"/>
        <pt x="687" y="66" on="1"/>
        <pt x="874" y="66" on="1"/>
        <pt x="937" y="66" on="0"/>
        <pt x="1028" y="91" on="0"/>
      </contour>
      <contour>
        <pt x="543" y="1812" on="1"/>
        <pt x="823" y="1812" on="1"/>
        <pt x="580" y="1528" on="1"/>
        <pt x="425" y="1528" on="1"/>
      </contour>
    </TTGlyph>
    <TTGlyph name="Lcaron" xMin="177" yMin="0" xMax="1164" yMax="1434">
      <contour>
        <pt x="1034" y="91" on="1"/>
        <pt x="1087" y="91" on="0"/>
        <pt x="1087" y="46" on="1"/>
        <pt x="1087" y="28" on="0"/>
        <pt x="1044" y="0" on="0"/>
        <pt x="989" y="0" on="1"/>
        <pt x="177" y="0" on="1"/>
        <pt x="177" y="1415" on="1"/>
        <pt x="687" y="1415" on="1"/>
        <pt x="687" y="66" on="1"/>
        <pt x="874" y="66" on="1"/>
        <pt x="937" y="66" on="0"/>
        <pt x="1028" y="91" on="0"/>
      </contour>
      <contour>
        <pt x="969" y="1434" on="1"/>
        <pt x="1164" y="1434" on="0"/>
        <pt x="1164" y="1193" on="1"/>
        <pt x="1164" y="945" on="0"/>
        <pt x="1036" y="844" on="1"/>
        <pt x="1001" y="817" on="0"/>
        <pt x="967" y="817" on="1"/>
        <pt x="920" y="817" on="0"/>
        <pt x="920" y="861" on="1"/>
        <pt x="920" y="877" on="0"/>
        <pt x="931" y="882" on="1"/>
        <pt x="968" y="898" on="1"/>
        <pt x="995" y="910" on="0"/>
        <pt x="1011" y="936" on="1"/>
        <pt x="1045" y="988" on="1"/>
        <pt x="1054" y="1001" on="0"/>
        <pt x="1057" y="1043" on="0"/>
        <pt x="1059" y="1068" on="1"/>
        <pt x="1037" y="1054" on="1"/>
        <pt x="1007" y="1034" on="0"/>
        <pt x="909" y="1034" on="0"/>
        <pt x="841" y="1069" on="0"/>
        <pt x="820" y="1098" on="1"/>
        <pt x="780" y="1152" on="0"/>
        <pt x="780" y="1274" on="0"/>
        <pt x="803" y="1347" on="0"/>
        <pt x="826" y="1374" on="1"/>
        <pt x="876" y="1434" on="0"/>
      </contour>
    </TTGlyph>
    <TTGlyph name="Lcommaaccent" xMin="177" yMin="-630" xMax="1087" yMax="1415">
      <contour>
        <pt x="1034" y="91" on="1"/>
        <pt x="1087" y="91" on="0"/>
        <pt x="1087" y="46" on="1"/>
        <pt x="1087" y="28" on="0"/>
        <pt x="1044" y="0" on="0"/>
        <pt x="989" y="0" on="1"/>
        <pt x="177" y="0" on="1"/>
        <pt x="177" y="1415" on="1"/>
        <pt x="687" y="1415" on="1"/>
        <pt x="687" y="66" on="1"/>
        <pt x="874" y="66" on="1"/>
        <pt x="937" y="66" on="0"/>
        <pt x="1028" y="91" on="0"/>
      </contour>
      <contour>
        <pt x="688" y="-409" on="1"/>
        <pt x="606" y="-445" on="0"/>
        <pt x="486" y="-445" on="0"/>
        <pt x="404" y="-421" on="0"/>
        <pt x="376" y="-401" on="1"/>
        <pt x="318" y="-360" on="0"/>
        <pt x="318" y="-297" on="1"/>
        <pt x="318" y="-230" on="0"/>
        <pt x="446" y="-147" on="0"/>
        <pt x="659" y="-147" on="0"/>
        <pt x="783" y="-239" on="0"/>
        <pt x="783" y="-325" on="1"/>
        <pt x="783" y="-444" on="0"/>
        <pt x="691" y="-533" on="1"/>
        <pt x="627" y="-595" on="0"/>
        <pt x="585" y="-618" on="0"/>
        <pt x="565" y="-622" on="1"/>
        <pt x="518" y="-630" on="0"/>
        <pt x="516" y="-588" on="1"/>
        <pt x="515" y="-572" on="0"/>
        <pt x="532" y="-560" on="1"/>
        <pt x="571" y="-532" on="1"/>
        <pt x="663" y="-468" on="0"/>
      </contour>
    </TTGlyph>
    <TTGlyph name="Ldot" xMin="177" yMin="0" xMax="1158" yMax="1415">
      <contour>
        <pt x="1041" y="576" on="0"/>
        <pt x="859" y="576" on="0"/>
        <pt x="759" y="678" on="0"/>
        <pt x="759" y="829" on="0"/>
        <pt x="874" y="933" on="0"/>
        <pt x="1051" y="933" on="0"/>
        <pt x="1158" y="819" on="0"/>
        <pt x="1158" y="675" on="0"/>
      </contour>
      <contour>
        <pt x="1034" y="91" on="1"/>
        <pt x="1087" y="91" on="0"/>
        <pt x="1087" y="46" on="1"/>
        <pt x="1087" y="28" on="0"/>
        <pt x="1044" y="0" on="0"/>
        <pt x="989" y="0" on="1"/>
        <pt x="177" y="0" on="1"/>
        <pt x="177" y="1415" on="1"/>
        <pt x="687" y="1415" on="1"/>
        <pt x="687" y="66" on="1"/>
        <pt x="874" y="66" on="1"/>
        <pt x="937" y="66" on="0"/>
        <pt x="1028" y="91" on="0"/>
      </contour>
    </TTGlyph>
    <TTGlyph name="Lslash" xMin="1" yMin="0" xMax="1087" yMax="1415">
      <contour>
        <pt x="1034" y="91" on="1"/>
        <pt x="1087" y="91" on="0"/>
        <pt x="1087" y="46" on="1"/>
        <pt x="1087" y="28" on="0"/>
        <pt x="1044" y="0" on="0"/>
        <pt x="989" y="0" on="1"/>
        <pt x="177" y="0" on="1"/>
        <pt x="177" y="545" on="1"/>
        <pt x="129" y="522" on="1"/>
        <pt x="75" y="496" on="0"/>
        <pt x="26" y="496" on="0"/>
        <pt x="1" y="521" on="0"/>
        <pt x="1" y="539" on="1"/>
        <pt x="1" y="575" on="0"/>
        <pt x="65" y="595" on="1"/>
        <pt x="126" y="612" on="0"/>
        <pt x="177" y="636" on="1"/>
        <pt x="177" y="1415" on="1"/>
        <pt x="687" y="1415" on="1"/>
        <pt x="687" y="900" on="1"/>
        <pt x="763" y="940" on="1"/>
        <pt x="867" y="994" on="0"/>
        <pt x="908" y="994" on="1"/>
        <pt x="956" y="994" on="0"/>
        <pt x="956" y="952" on="1"/>
        <pt x="956" y="918" on="0"/>
        <pt x="888" y="899" on="1"/>
        <pt x="843" y="886" on="0"/>
        <pt x="786" y="858" on="1"/>
        <pt x="687" y="807" on="1"/>
        <pt x="687" y="66" on="1"/>
        <pt x="874" y="66" on="1"/>
        <pt x="937" y="66" on="0"/>
        <pt x="1028" y="91" on="0"/>
      </contour>
    </TTGlyph>
    <TTGlyph name="M" xMin="10" yMin="-36" xMax="1898" yMax="1479">
      <contour>
        <pt x="30" y="-13" on="0"/>
        <pt x="10" y="17" on="0"/>
        <pt x="12" y="35" on="1"/>
        <pt x="17" y="66" on="0"/>
        <pt x="45" y="118" on="0"/>
        <pt x="58" y="144" on="0"/>
        <pt x="65" y="160" on="1"/>
        <pt x="103" y="248" on="1"/>
        <pt x="514" y="1479" on="1"/>
        <pt x="956" y="625" on="1"/>
        <pt x="1385" y="1479" on="1"/>
        <pt x="1898" y="0" on="1"/>
        <pt x="1361" y="0" on="1"/>
        <pt x="1113" y="764" on="1"/>
        <pt x="729" y="-36" on="1"/>
        <pt x="325" y="684" on="1"/>
        <pt x="185" y="247" on="1"/>
        <pt x="152" y="174" on="0"/>
        <pt x="124" y="72" on="0"/>
        <pt x="115" y="44" on="1"/>
        <pt x="95" y="-19" on="0"/>
        <pt x="49" y="-15" on="1"/>
      </contour>
    </TTGlyph>
    <TTGlyph name="N" xMin="177" yMin="-55" xMax="1358" yMax="1479">
      <contour>
        <pt x="267" y="143" on="1"/>
        <pt x="270" y="43" on="1"/>
        <pt x="270" y="17" on="0"/>
        <pt x="242" y="-11" on="0"/>
        <pt x="203" y="-11" on="0"/>
        <pt x="177" y="15" on="0"/>
        <pt x="177" y="46" on="0"/>
        <pt x="182" y="73" on="0"/>
        <pt x="184" y="90" on="1"/>
        <pt x="189" y="119" on="0"/>
        <pt x="189" y="235" on="1"/>
        <pt x="189" y="1479" on="1"/>
        <pt x="1276" y="617" on="1"/>
        <pt x="1276" y="1213" on="1"/>
        <pt x="1276" y="1281" on="0"/>
        <pt x="1272" y="1310" on="1"/>
        <pt x="1267" y="1357" on="0"/>
        <pt x="1267" y="1376" on="1"/>
        <pt x="1267" y="1426" on="0"/>
        <pt x="1310" y="1426" on="1"/>
        <pt x="1327" y="1426" on="0"/>
        <pt x="1358" y="1402" on="0"/>
        <pt x="1358" y="1379" on="1"/>
        <pt x="1358" y="1344" on="1"/>
        <pt x="1354" y="1199" on="1"/>
        <pt x="1354" y="-55" on="1"/>
        <pt x="267" y="798" on="1"/>
      </contour>
    </TTGlyph>
    <TTGlyph name="Nacute" xMin="177" yMin="-55" xMax="1358" yMax="1812">
      <contour>
        <pt x="267" y="143" on="1"/>
        <pt x="270" y="43" on="1"/>
        <pt x="270" y="17" on="0"/>
        <pt x="242" y="-11" on="0"/>
        <pt x="203" y="-11" on="0"/>
        <pt x="177" y="15" on="0"/>
        <pt x="177" y="46" on="0"/>
        <pt x="182" y="73" on="0"/>
        <pt x="184" y="90" on="1"/>
        <pt x="189" y="119" on="0"/>
        <pt x="189" y="235" on="1"/>
        <pt x="189" y="1479" on="1"/>
        <pt x="1276" y="617" on="1"/>
        <pt x="1276" y="1213" on="1"/>
        <pt x="1276" y="1281" on="0"/>
        <pt x="1272" y="1310" on="1"/>
        <pt x="1267" y="1357" on="0"/>
        <pt x="1267" y="1376" on="1"/>
        <pt x="1267" y="1426" on="0"/>
        <pt x="1310" y="1426" on="1"/>
        <pt x="1327" y="1426" on="0"/>
        <pt x="1358" y="1402" on="0"/>
        <pt x="1358" y="1379" on="1"/>
        <pt x="1358" y="1344" on="1"/>
        <pt x="1354" y="1199" on="1"/>
        <pt x="1354" y="-55" on="1"/>
        <pt x="267" y="798" on="1"/>
      </contour>
      <contour>
        <pt x="925" y="1812" on="1"/>
        <pt x="1205" y="1812" on="1"/>
        <pt x="962" y="1528" on="1"/>
        <pt x="807" y="1528" on="1"/>
      </contour>
    </TTGlyph>
    <TTGlyph name="Ncaron" xMin="177" yMin="-55" xMax="1358" yMax="1823">
      <contour>
        <pt x="267" y="143" on="1"/>
        <pt x="270" y="43" on="1"/>
        <pt x="270" y="17" on="0"/>
        <pt x="242" y="-11" on="0"/>
        <pt x="203" y="-11" on="0"/>
        <pt x="177" y="15" on="0"/>
        <pt x="177" y="46" on="0"/>
        <pt x="182" y="73" on="0"/>
        <pt x="184" y="90" on="1"/>
        <pt x="189" y="119" on="0"/>
        <pt x="189" y="235" on="1"/>
        <pt x="189" y="1479" on="1"/>
        <pt x="1276" y="617" on="1"/>
        <pt x="1276" y="1213" on="1"/>
        <pt x="1276" y="1281" on="0"/>
        <pt x="1272" y="1310" on="1"/>
        <pt x="1267" y="1357" on="0"/>
        <pt x="1267" y="1376" on="1"/>
        <pt x="1267" y="1426" on="0"/>
        <pt x="1310" y="1426" on="1"/>
        <pt x="1327" y="1426" on="0"/>
        <pt x="1358" y="1402" on="0"/>
        <pt x="1358" y="1379" on="1"/>
        <pt x="1358" y="1344" on="1"/>
        <pt x="1354" y="1199" on="1"/>
        <pt x="1354" y="-55" on="1"/>
        <pt x="267" y="798" on="1"/>
      </contour>
      <contour>
        <pt x="1159" y="1823" on="1"/>
        <pt x="1198" y="1823" on="0"/>
        <pt x="1198" y="1786" on="1"/>
        <pt x="1198" y="1759" on="0"/>
        <pt x="1158" y="1727" on="1"/>
        <pt x="1066" y="1642" on="1"/>
        <pt x="956" y="1531" on="1"/>
        <pt x="700" y="1531" on="1"/>
        <pt x="438" y="1815" on="1"/>
        <pt x="747" y="1815" on="1"/>
        <pt x="927" y="1601" on="1"/>
        <pt x="1106" y="1785" on="1"/>
        <pt x="1138" y="1823" on="0"/>
      </contour>
    </TTGlyph>
    <TTGlyph name="Ncommaaccent" xMin="177" yMin="-630" xMax="1358" yMax="1479">
      <contour>
        <pt x="267" y="143" on="1"/>
        <pt x="270" y="43" on="1"/>
        <pt x="270" y="17" on="0"/>
        <pt x="242" y="-11" on="0"/>
        <pt x="203" y="-11" on="0"/>
        <pt x="177" y="15" on="0"/>
        <pt x="177" y="46" on="0"/>
        <pt x="182" y="73" on="0"/>
        <pt x="184" y="90" on="1"/>
        <pt x="189" y="119" on="0"/>
        <pt x="189" y="235" on="1"/>
        <pt x="189" y="1479" on="1"/>
        <pt x="1276" y="617" on="1"/>
        <pt x="1276" y="1213" on="1"/>
        <pt x="1276" y="1281" on="0"/>
        <pt x="1272" y="1310" on="1"/>
        <pt x="1267" y="1357" on="0"/>
        <pt x="1267" y="1376" on="1"/>
        <pt x="1267" y="1426" on="0"/>
        <pt x="1310" y="1426" on="1"/>
        <pt x="1327" y="1426" on="0"/>
        <pt x="1358" y="1402" on="0"/>
        <pt x="1358" y="1379" on="1"/>
        <pt x="1358" y="1344" on="1"/>
        <pt x="1354" y="1199" on="1"/>
        <pt x="1354" y="-55" on="1"/>
        <pt x="267" y="798" on="1"/>
      </contour>
      <contour>
        <pt x="959" y="-409" on="1"/>
        <pt x="877" y="-445" on="0"/>
        <pt x="757" y="-445" on="0"/>
        <pt x="675" y="-421" on="0"/>
        <pt x="647" y="-401" on="1"/>
        <pt x="589" y="-360" on="0"/>
        <pt x="589" y="-297" on="1"/>
        <pt x="589" y="-230" on="0"/>
        <pt x="717" y="-147" on="0"/>
        <pt x="930" y="-147" on="0"/>
        <pt x="1054" y="-239" on="0"/>
        <pt x="1054" y="-325" on="1"/>
        <pt x="1054" y="-444" on="0"/>
        <pt x="962" y="-533" on="1"/>
        <pt x="898" y="-595" on="0"/>
        <pt x="856" y="-618" on="0"/>
        <pt x="836" y="-622" on="1"/>
        <pt x="789" y="-630" on="0"/>
        <pt x="787" y="-588" on="1"/>
        <pt x="786" y="-572" on="0"/>
        <pt x="803" y="-560" on="1"/>
        <pt x="842" y="-532" on="1"/>
        <pt x="934" y="-468" on="0"/>
      </contour>
    </TTGlyph>
    <TTGlyph name="Ntilde" xMin="177" yMin="-55" xMax="1358" yMax="1832">
      <contour>
        <pt x="267" y="143" on="1"/>
        <pt x="270" y="43" on="1"/>
        <pt x="270" y="17" on="0"/>
        <pt x="242" y="-11" on="0"/>
        <pt x="203" y="-11" on="0"/>
        <pt x="177" y="15" on="0"/>
        <pt x="177" y="46" on="0"/>
        <pt x="182" y="73" on="0"/>
        <pt x="184" y="90" on="1"/>
        <pt x="189" y="119" on="0"/>
        <pt x="189" y="235" on="1"/>
        <pt x="189" y="1479" on="1"/>
        <pt x="1276" y="617" on="1"/>
        <pt x="1276" y="1213" on="1"/>
        <pt x="1276" y="1281" on="0"/>
        <pt x="1272" y="1310" on="1"/>
        <pt x="1267" y="1357" on="0"/>
        <pt x="1267" y="1376" on="1"/>
        <pt x="1267" y="1426" on="0"/>
        <pt x="1310" y="1426" on="1"/>
        <pt x="1327" y="1426" on="0"/>
        <pt x="1358" y="1402" on="0"/>
        <pt x="1358" y="1379" on="1"/>
        <pt x="1358" y="1344" on="1"/>
        <pt x="1354" y="1199" on="1"/>
        <pt x="1354" y="-55" on="1"/>
        <pt x="267" y="798" on="1"/>
      </contour>
      <contour>
        <pt x="515" y="1540" on="0"/>
        <pt x="490" y="1540" on="0"/>
        <pt x="467" y="1567" on="0"/>
        <pt x="467" y="1632" on="0"/>
        <pt x="507" y="1719" on="0"/>
        <pt x="542" y="1754" on="1"/>
        <pt x="620" y="1832" on="0"/>
        <pt x="721" y="1832" on="1"/>
        <pt x="805" y="1832" on="0"/>
        <pt x="911" y="1749" on="1"/>
        <pt x="963" y="1709" on="1"/>
        <pt x="1020" y="1666" on="0"/>
        <pt x="1056" y="1666" on="0"/>
        <pt x="1089" y="1716" on="0"/>
        <pt x="1102" y="1796" on="0"/>
        <pt x="1116" y="1823" on="0"/>
        <pt x="1150" y="1823" on="0"/>
        <pt x="1173" y="1793" on="0"/>
        <pt x="1173" y="1730" on="0"/>
        <pt x="1133" y="1643" on="0"/>
        <pt x="1098" y="1608" on="1"/>
        <pt x="1020" y="1530" on="0"/>
        <pt x="919" y="1530" on="1"/>
        <pt x="840" y="1530" on="0"/>
        <pt x="732" y="1608" on="1"/>
        <pt x="660" y="1662" on="1"/>
        <pt x="628" y="1687" on="0"/>
        <pt x="598" y="1687" on="0"/>
        <pt x="577" y="1674" on="0"/>
        <pt x="567" y="1662" on="1"/>
        <pt x="545" y="1637" on="0"/>
        <pt x="540" y="1610" on="1"/>
        <pt x="534" y="1572" on="1"/>
        <pt x="530" y="1548" on="0"/>
      </contour>
    </TTGlyph>
    <TTGlyph name="O" xMin="109" yMin="-19" xMax="1565" yMax="1433">
      <contour>
        <pt x="226" y="277" on="0"/>
        <pt x="109" y="552" on="0"/>
        <pt x="109" y="877" on="0"/>
        <pt x="220" y="1136" on="0"/>
        <pt x="318" y="1231" on="1"/>
        <pt x="528" y="1433" on="0"/>
        <pt x="845" y="1433" on="1"/>
        <pt x="1160" y="1433" on="0"/>
        <pt x="1361" y="1234" on="1"/>
        <pt x="1565" y="1032" on="0"/>
        <pt x="1565" y="710" on="1"/>
        <pt x="1565" y="389" on="0"/>
        <pt x="1356" y="182" on="1"/>
        <pt x="1225" y="54" on="0"/>
        <pt x="1034" y="5" on="1"/>
        <pt x="939" y="-19" on="0"/>
        <pt x="688" y="-19" on="0"/>
        <pt x="424" y="84" on="0"/>
      </contour>
      <contour>
        <pt x="844" y="1360" on="1"/>
        <pt x="789" y="1360" on="0"/>
        <pt x="741" y="1352" on="1"/>
        <pt x="741" y="62" on="1"/>
        <pt x="787" y="54" on="0"/>
        <pt x="844" y="54" on="1"/>
        <pt x="1111" y="54" on="0"/>
        <pt x="1294" y="232" on="1"/>
        <pt x="1485" y="417" on="0"/>
        <pt x="1485" y="710" on="1"/>
        <pt x="1485" y="989" on="0"/>
        <pt x="1306" y="1174" on="1"/>
        <pt x="1125" y="1360" on="0"/>
      </contour>
    </TTGlyph>
    <TTGlyph name="OE" xMin="109" yMin="-19" xMax="2268" yMax="1433">
      <contour>
        <pt x="1323" y="153" on="1"/>
        <pt x="1122" y="-19" on="0"/>
        <pt x="835" y="-19" on="1"/>
        <pt x="688" y="-19" on="0"/>
        <pt x="424" y="84" on="0"/>
        <pt x="325" y="180" on="1"/>
        <pt x="109" y="391" on="0"/>
        <pt x="109" y="724" on="1"/>
        <pt x="109" y="1029" on="0"/>
        <pt x="528" y="1433" on="0"/>
        <pt x="1127" y="1433" on="0"/>
        <pt x="1323" y="1268" on="1"/>
        <pt x="1323" y="1415" on="1"/>
        <pt x="1717" y="1415" on="0"/>
        <pt x="2112" y="1415" on="1"/>
        <pt x="2193" y="1418" on="1"/>
        <pt x="2268" y="1418" on="0"/>
        <pt x="2268" y="1374" on="1"/>
        <pt x="2268" y="1357" on="0"/>
        <pt x="2243" y="1328" on="0"/>
        <pt x="2226" y="1328" on="1"/>
        <pt x="2200" y="1328" on="0"/>
        <pt x="2172" y="1334" on="1"/>
        <pt x="2129" y="1343" on="0"/>
        <pt x="2054" y="1343" on="1"/>
        <pt x="1833" y="1343" on="1"/>
        <pt x="1833" y="1038" on="1"/>
        <pt x="2015" y="1038" on="1"/>
        <pt x="2138" y="1043" on="1"/>
        <pt x="2160" y="1043" on="0"/>
        <pt x="2191" y="1022" on="0"/>
        <pt x="2191" y="1003" on="1"/>
        <pt x="2191" y="961" on="0"/>
        <pt x="2135" y="961" on="1"/>
        <pt x="2092" y="962" on="1"/>
        <pt x="2059" y="965" on="0"/>
        <pt x="2037" y="965" on="1"/>
        <pt x="1833" y="965" on="1"/>
        <pt x="1833" y="73" on="1"/>
        <pt x="2054" y="73" on="1"/>
        <pt x="2128" y="73" on="0"/>
        <pt x="2159" y="79" on="1"/>
        <pt x="2196" y="86" on="0"/>
        <pt x="2217" y="86" on="1"/>
        <pt x="2268" y="86" on="0"/>
        <pt x="2268" y="46" on="1"/>
        <pt x="2268" y="28" on="0"/>
        <pt x="2224" y="0" on="0"/>
        <pt x="2170" y="0" on="1"/>
        <pt x="1323" y="0" on="1"/>
      </contour>
      <contour>
        <pt x="844" y="1360" on="1"/>
        <pt x="789" y="1360" on="0"/>
        <pt x="741" y="1352" on="1"/>
        <pt x="741" y="62" on="1"/>
        <pt x="787" y="54" on="0"/>
        <pt x="844" y="54" on="1"/>
        <pt x="985" y="54" on="0"/>
        <pt x="1233" y="162" on="0"/>
        <pt x="1323" y="262" on="1"/>
        <pt x="1323" y="1155" on="1"/>
        <pt x="1139" y="1360" on="0"/>
      </contour>
    </TTGlyph>
    <TTGlyph name="Oacute" xMin="109" yMin="-19" xMax="1565" yMax="1812">
      <contour>
        <pt x="226" y="277" on="0"/>
        <pt x="109" y="552" on="0"/>
        <pt x="109" y="877" on="0"/>
        <pt x="220" y="1136" on="0"/>
        <pt x="318" y="1231" on="1"/>
        <pt x="528" y="1433" on="0"/>
        <pt x="845" y="1433" on="1"/>
        <pt x="1160" y="1433" on="0"/>
        <pt x="1361" y="1234" on="1"/>
        <pt x="1565" y="1032" on="0"/>
        <pt x="1565" y="710" on="1"/>
        <pt x="1565" y="389" on="0"/>
        <pt x="1356" y="182" on="1"/>
        <pt x="1225" y="54" on="0"/>
        <pt x="1034" y="5" on="1"/>
        <pt x="939" y="-19" on="0"/>
        <pt x="688" y="-19" on="0"/>
        <pt x="424" y="84" on="0"/>
      </contour>
      <contour>
        <pt x="844" y="1360" on="1"/>
        <pt x="789" y="1360" on="0"/>
        <pt x="741" y="1352" on="1"/>
        <pt x="741" y="62" on="1"/>
        <pt x="787" y="54" on="0"/>
        <pt x="844" y="54" on="1"/>
        <pt x="1111" y="54" on="0"/>
        <pt x="1294" y="232" on="1"/>
        <pt x="1485" y="417" on="0"/>
        <pt x="1485" y="710" on="1"/>
        <pt x="1485" y="989" on="0"/>
        <pt x="1306" y="1174" on="1"/>
        <pt x="1125" y="1360" on="0"/>
      </contour>
      <contour>
        <pt x="954" y="1812" on="1"/>
        <pt x="1234" y="1812" on="1"/>
        <pt x="991" y="1528" on="1"/>
        <pt x="836" y="1528" on="1"/>
      </contour>
    </TTGlyph>
    <TTGlyph name="Obreve" xMin="109" yMin="-19" xMax="1565" yMax="1823">
      <contour>
        <pt x="226" y="277" on="0"/>
        <pt x="109" y="552" on="0"/>
        <pt x="109" y="877" on="0"/>
        <pt x="220" y="1136" on="0"/>
        <pt x="318" y="1231" on="1"/>
        <pt x="528" y="1433" on="0"/>
        <pt x="845" y="1433" on="1"/>
        <pt x="1160" y="1433" on="0"/>
        <pt x="1361" y="1234" on="1"/>
        <pt x="1565" y="1032" on="0"/>
        <pt x="1565" y="710" on="1"/>
        <pt x="1565" y="389" on="0"/>
        <pt x="1356" y="182" on="1"/>
        <pt x="1225" y="54" on="0"/>
        <pt x="1034" y="5" on="1"/>
        <pt x="939" y="-19" on="0"/>
        <pt x="688" y="-19" on="0"/>
        <pt x="424" y="84" on="0"/>
      </contour>
      <contour>
        <pt x="844" y="1360" on="1"/>
        <pt x="789" y="1360" on="0"/>
        <pt x="741" y="1352" on="1"/>
        <pt x="741" y="62" on="1"/>
        <pt x="787" y="54" on="0"/>
        <pt x="844" y="54" on="1"/>
        <pt x="1111" y="54" on="0"/>
        <pt x="1294" y="232" on="1"/>
        <pt x="1485" y="417" on="0"/>
        <pt x="1485" y="710" on="1"/>
        <pt x="1485" y="989" on="0"/>
        <pt x="1306" y="1174" on="1"/>
        <pt x="1125" y="1360" on="0"/>
      </contour>
      <contour>
        <pt x="1023" y="1823" on="0"/>
        <pt x="1105" y="1823" on="0"/>
        <pt x="1105" y="1723" on="0"/>
        <pt x="1067" y="1635" on="0"/>
        <pt x="1033" y="1602" on="1"/>
        <pt x="957" y="1530" on="0"/>
        <pt x="841" y="1530" on="1"/>
        <pt x="724" y="1530" on="0"/>
        <pt x="649" y="1600" on="1"/>
        <pt x="574" y="1669" on="0"/>
        <pt x="574" y="1772" on="1"/>
        <pt x="574" y="1795" on="0"/>
        <pt x="598" y="1823" on="0"/>
        <pt x="617" y="1823" on="1"/>
        <pt x="657" y="1823" on="0"/>
        <pt x="665" y="1755" on="1"/>
        <pt x="673" y="1689" on="0"/>
        <pt x="774" y="1603" on="0"/>
        <pt x="879" y="1603" on="0"/>
        <pt x="942" y="1626" on="0"/>
        <pt x="965" y="1647" on="1"/>
        <pt x="1014" y="1689" on="0"/>
      </contour>
    </TTGlyph>
    <TTGlyph name="Ocircumflex" xMin="109" yMin="-19" xMax="1565" yMax="1814">
      <contour>
        <pt x="226" y="277" on="0"/>
        <pt x="109" y="552" on="0"/>
        <pt x="109" y="877" on="0"/>
        <pt x="220" y="1136" on="0"/>
        <pt x="318" y="1231" on="1"/>
        <pt x="528" y="1433" on="0"/>
        <pt x="845" y="1433" on="1"/>
        <pt x="1160" y="1433" on="0"/>
        <pt x="1361" y="1234" on="1"/>
        <pt x="1565" y="1032" on="0"/>
        <pt x="1565" y="710" on="1"/>
        <pt x="1565" y="389" on="0"/>
        <pt x="1356" y="182" on="1"/>
        <pt x="1225" y="54" on="0"/>
        <pt x="1034" y="5" on="1"/>
        <pt x="939" y="-19" on="0"/>
        <pt x="688" y="-19" on="0"/>
        <pt x="424" y="84" on="0"/>
      </contour>
      <contour>
        <pt x="844" y="1360" on="1"/>
        <pt x="789" y="1360" on="0"/>
        <pt x="741" y="1352" on="1"/>
        <pt x="741" y="62" on="1"/>
        <pt x="787" y="54" on="0"/>
        <pt x="844" y="54" on="1"/>
        <pt x="1111" y="54" on="0"/>
        <pt x="1294" y="232" on="1"/>
        <pt x="1485" y="417" on="0"/>
        <pt x="1485" y="710" on="1"/>
        <pt x="1485" y="989" on="0"/>
        <pt x="1306" y="1174" on="1"/>
        <pt x="1125" y="1360" on="0"/>
      </contour>
      <contour>
        <pt x="606" y="1574" on="1"/>
        <pt x="576" y="1544" on="1"/>
        <pt x="554" y="1522" on="0"/>
        <pt x="520" y="1522" on="0"/>
        <pt x="499" y="1543" on="0"/>
        <pt x="499" y="1557" on="1"/>
        <pt x="499" y="1583" on="0"/>
        <pt x="540" y="1618" on="1"/>
        <pt x="553" y="1631" on="0"/>
        <pt x="593" y="1666" on="0"/>
        <pt x="631" y="1704" on="1"/>
        <pt x="741" y="1814" on="1"/>
        <pt x="996" y="1814" on="1"/>
        <pt x="1259" y="1530" on="1"/>
        <pt x="951" y="1530" on="1"/>
        <pt x="771" y="1744" on="1"/>
        <pt x="646" y="1618" on="0"/>
        <pt x="614" y="1582" on="0"/>
      </contour>
    </TTGlyph>
    <TTGlyph name="Odieresis" xMin="109" yMin="-19" xMax="1565" yMax="1783">
      <contour>
        <pt x="226" y="277" on="0"/>
        <pt x="109" y="552" on="0"/>
        <pt x="109" y="877" on="0"/>
        <pt x="220" y="1136" on="0"/>
        <pt x="318" y="1231" on="1"/>
        <pt x="528" y="1433" on="0"/>
        <pt x="845" y="1433" on="1"/>
        <pt x="1160" y="1433" on="0"/>
        <pt x="1361" y="1234" on="1"/>
        <pt x="1565" y="1032" on="0"/>
        <pt x="1565" y="710" on="1"/>
        <pt x="1565" y="389" on="0"/>
        <pt x="1356" y="182" on="1"/>
        <pt x="1225" y="54" on="0"/>
        <pt x="1034" y="5" on="1"/>
        <pt x="939" y="-19" on="0"/>
        <pt x="688" y="-19" on="0"/>
        <pt x="424" y="84" on="0"/>
      </contour>
      <contour>
        <pt x="844" y="1360" on="1"/>
        <pt x="789" y="1360" on="0"/>
        <pt x="741" y="1352" on="1"/>
        <pt x="741" y="62" on="1"/>
        <pt x="787" y="54" on="0"/>
        <pt x="844" y="54" on="1"/>
        <pt x="1111" y="54" on="0"/>
        <pt x="1294" y="232" on="1"/>
        <pt x="1485" y="417" on="0"/>
        <pt x="1485" y="710" on="1"/>
        <pt x="1485" y="989" on="0"/>
        <pt x="1306" y="1174" on="1"/>
        <pt x="1125" y="1360" on="0"/>
      </contour>
      <contour>
        <pt x="1264" y="1599" on="0"/>
        <pt x="1169" y="1530" on="0"/>
        <pt x="1047" y="1530" on="0"/>
        <pt x="983" y="1550" on="0"/>
        <pt x="960" y="1567" on="1"/>
        <pt x="912" y="1602" on="0"/>
        <pt x="912" y="1657" on="1"/>
        <pt x="912" y="1744" on="0"/>
        <pt x="1010" y="1773" on="1"/>
        <pt x="1044" y="1783" on="0"/>
        <pt x="1132" y="1783" on="0"/>
        <pt x="1197" y="1762" on="0"/>
        <pt x="1219" y="1744" on="1"/>
        <pt x="1264" y="1707" on="0"/>
      </contour>
      <contour>
        <pt x="761" y="1599" on="0"/>
        <pt x="667" y="1530" on="0"/>
        <pt x="545" y="1530" on="0"/>
        <pt x="481" y="1550" on="0"/>
        <pt x="458" y="1567" on="1"/>
        <pt x="409" y="1602" on="0"/>
        <pt x="409" y="1657" on="1"/>
        <pt x="409" y="1744" on="0"/>
        <pt x="508" y="1773" on="1"/>
        <pt x="541" y="1783" on="0"/>
        <pt x="630" y="1783" on="0"/>
        <pt x="694" y="1762" on="0"/>
        <pt x="716" y="1744" on="1"/>
        <pt x="761" y="1707" on="0"/>
      </contour>
    </TTGlyph>
    <TTGlyph name="Ograve" xMin="109" yMin="-19" xMax="1565" yMax="1700">
      <contour>
        <pt x="226" y="277" on="0"/>
        <pt x="109" y="552" on="0"/>
        <pt x="109" y="877" on="0"/>
        <pt x="220" y="1136" on="0"/>
        <pt x="318" y="1231" on="1"/>
        <pt x="528" y="1433" on="0"/>
        <pt x="845" y="1433" on="1"/>
        <pt x="1160" y="1433" on="0"/>
        <pt x="1361" y="1234" on="1"/>
        <pt x="1565" y="1032" on="0"/>
        <pt x="1565" y="710" on="1"/>
        <pt x="1565" y="389" on="0"/>
        <pt x="1356" y="182" on="1"/>
        <pt x="1225" y="54" on="0"/>
        <pt x="1034" y="5" on="1"/>
        <pt x="939" y="-19" on="0"/>
        <pt x="688" y="-19" on="0"/>
        <pt x="424" y="84" on="0"/>
      </contour>
      <contour>
        <pt x="844" y="1360" on="1"/>
        <pt x="789" y="1360" on="0"/>
        <pt x="741" y="1352" on="1"/>
        <pt x="741" y="62" on="1"/>
        <pt x="787" y="54" on="0"/>
        <pt x="844" y="54" on="1"/>
        <pt x="1111" y="54" on="0"/>
        <pt x="1294" y="232" on="1"/>
        <pt x="1485" y="417" on="0"/>
        <pt x="1485" y="710" on="1"/>
        <pt x="1485" y="989" on="0"/>
        <pt x="1306" y="1174" on="1"/>
        <pt x="1125" y="1360" on="0"/>
      </contour>
      <contour>
        <pt x="464" y="1700" on="1"/>
        <pt x="745" y="1700" on="1"/>
        <pt x="862" y="1416" on="1"/>
        <pt x="708" y="1416" on="1"/>
      </contour>
    </TTGlyph>
    <TTGlyph name="Ohungarumlaut" xMin="109" yMin="-19" xMax="1565" yMax="1814">
      <contour>
        <pt x="226" y="277" on="0"/>
        <pt x="109" y="552" on="0"/>
        <pt x="109" y="877" on="0"/>
        <pt x="220" y="1136" on="0"/>
        <pt x="318" y="1231" on="1"/>
        <pt x="528" y="1433" on="0"/>
        <pt x="845" y="1433" on="1"/>
        <pt x="1160" y="1433" on="0"/>
        <pt x="1361" y="1234" on="1"/>
        <pt x="1565" y="1032" on="0"/>
        <pt x="1565" y="710" on="1"/>
        <pt x="1565" y="389" on="0"/>
        <pt x="1356" y="182" on="1"/>
        <pt x="1225" y="54" on="0"/>
        <pt x="1034" y="5" on="1"/>
        <pt x="939" y="-19" on="0"/>
        <pt x="688" y="-19" on="0"/>
        <pt x="424" y="84" on="0"/>
      </contour>
      <contour>
        <pt x="844" y="1360" on="1"/>
        <pt x="789" y="1360" on="0"/>
        <pt x="741" y="1352" on="1"/>
        <pt x="741" y="62" on="1"/>
        <pt x="787" y="54" on="0"/>
        <pt x="844" y="54" on="1"/>
        <pt x="1111" y="54" on="0"/>
        <pt x="1294" y="232" on="1"/>
        <pt x="1485" y="417" on="0"/>
        <pt x="1485" y="710" on="1"/>
        <pt x="1485" y="989" on="0"/>
        <pt x="1306" y="1174" on="1"/>
        <pt x="1125" y="1360" on="0"/>
      </contour>
      <contour>
        <pt x="1032" y="1814" on="1"/>
        <pt x="1263" y="1814" on="1"/>
        <pt x="1070" y="1530" on="1"/>
        <pt x="914" y="1530" on="1"/>
      </contour>
      <contour>
        <pt x="658" y="1814" on="1"/>
        <pt x="889" y="1814" on="1"/>
        <pt x="696" y="1530" on="1"/>
        <pt x="540" y="1530" on="1"/>
      </contour>
    </TTGlyph>
    <TTGlyph name="Omacron" xMin="109" yMin="-19" xMax="1565" yMax="1801">
      <contour>
        <pt x="226" y="277" on="0"/>
        <pt x="109" y="552" on="0"/>
        <pt x="109" y="877" on="0"/>
        <pt x="220" y="1136" on="0"/>
        <pt x="318" y="1231" on="1"/>
        <pt x="528" y="1433" on="0"/>
        <pt x="845" y="1433" on="1"/>
        <pt x="1160" y="1433" on="0"/>
        <pt x="1361" y="1234" on="1"/>
        <pt x="1565" y="1032" on="0"/>
        <pt x="1565" y="710" on="1"/>
        <pt x="1565" y="389" on="0"/>
        <pt x="1356" y="182" on="1"/>
        <pt x="1225" y="54" on="0"/>
        <pt x="1034" y="5" on="1"/>
        <pt x="939" y="-19" on="0"/>
        <pt x="688" y="-19" on="0"/>
        <pt x="424" y="84" on="0"/>
      </contour>
      <contour>
        <pt x="844" y="1360" on="1"/>
        <pt x="789" y="1360" on="0"/>
        <pt x="741" y="1352" on="1"/>
        <pt x="741" y="62" on="1"/>
        <pt x="787" y="54" on="0"/>
        <pt x="844" y="54" on="1"/>
        <pt x="1111" y="54" on="0"/>
        <pt x="1294" y="232" on="1"/>
        <pt x="1485" y="417" on="0"/>
        <pt x="1485" y="710" on="1"/>
        <pt x="1485" y="989" on="0"/>
        <pt x="1306" y="1174" on="1"/>
        <pt x="1125" y="1360" on="0"/>
      </contour>
      <contour>
        <pt x="689" y="1721" on="1"/>
        <pt x="539" y="1712" on="1"/>
        <pt x="515" y="1712" on="0"/>
        <pt x="482" y="1739" on="0"/>
        <pt x="482" y="1777" on="0"/>
        <pt x="513" y="1801" on="0"/>
        <pt x="539" y="1801" on="1"/>
        <pt x="539" y="1801" on="0"/>
        <pt x="681" y="1793" on="1"/>
        <pt x="988" y="1793" on="1"/>
        <pt x="1147" y="1801" on="1"/>
        <pt x="1203" y="1801" on="0"/>
        <pt x="1203" y="1757" on="1"/>
        <pt x="1203" y="1739" on="0"/>
        <pt x="1172" y="1713" on="0"/>
        <pt x="1143" y="1713" on="1"/>
        <pt x="1000" y="1721" on="1"/>
      </contour>
    </TTGlyph>
    <TTGlyph name="Omega" xMin="88" yMin="0" xMax="1583" yMax="1593">
      <contour>
        <pt x="731" y="53" on="1"/>
        <pt x="731" y="0" on="0"/>
        <pt x="638" y="0" on="1"/>
        <pt x="200" y="0" on="1"/>
        <pt x="140" y="0" on="0"/>
        <pt x="91" y="31" on="0"/>
        <pt x="91" y="52" on="1"/>
        <pt x="91" y="96" on="0"/>
        <pt x="148" y="96" on="1"/>
        <pt x="166" y="96" on="0"/>
        <pt x="192" y="91" on="1"/>
        <pt x="249" y="80" on="0"/>
        <pt x="327" y="80" on="1"/>
        <pt x="597" y="80" on="1"/>
        <pt x="359" y="220" on="0"/>
        <pt x="88" y="638" on="0"/>
        <pt x="88" y="864" on="1"/>
        <pt x="88" y="1170" on="0"/>
        <pt x="298" y="1380" on="1"/>
        <pt x="511" y="1593" on="0"/>
        <pt x="834" y="1593" on="1"/>
        <pt x="1048" y="1593" on="0"/>
        <pt x="1222" y="1494" on="1"/>
        <pt x="1389" y="1399" on="0"/>
        <pt x="1486" y="1232" on="1"/>
        <pt x="1583" y="1065" on="0"/>
        <pt x="1583" y="864" on="1"/>
        <pt x="1583" y="635" on="0"/>
        <pt x="1440" y="420" on="1"/>
        <pt x="1303" y="216" on="0"/>
        <pt x="1072" y="80" on="1"/>
        <pt x="1344" y="80" on="1"/>
        <pt x="1423" y="80" on="0"/>
        <pt x="1459" y="87" on="1"/>
        <pt x="1505" y="96" on="0"/>
        <pt x="1523" y="96" on="1"/>
        <pt x="1580" y="96" on="0"/>
        <pt x="1580" y="52" on="1"/>
        <pt x="1580" y="0" on="0"/>
        <pt x="1471" y="0" on="1"/>
        <pt x="1032" y="0" on="1"/>
        <pt x="940" y="0" on="0"/>
        <pt x="940" y="50" on="1"/>
        <pt x="940" y="86" on="0"/>
        <pt x="1138" y="209" on="0"/>
        <pt x="1314" y="373" on="0"/>
        <pt x="1374" y="464" on="1"/>
        <pt x="1498" y="651" on="0"/>
        <pt x="1498" y="861" on="1"/>
        <pt x="1498" y="1051" on="0"/>
        <pt x="1402" y="1206" on="1"/>
        <pt x="1313" y="1348" on="0"/>
        <pt x="1158" y="1432" on="1"/>
        <pt x="1009" y="1512" on="0"/>
        <pt x="835" y="1512" on="1"/>
        <pt x="570" y="1512" on="0"/>
        <pt x="377" y="1335" on="1"/>
        <pt x="250" y="1218" on="0"/>
        <pt x="200" y="1046" on="1"/>
        <pt x="174" y="960" on="0"/>
        <pt x="174" y="761" on="0"/>
        <pt x="241" y="562" on="0"/>
        <pt x="302" y="469" on="1"/>
        <pt x="426" y="282" on="0"/>
        <pt x="644" y="140" on="1"/>
        <pt x="682" y="116" on="0"/>
        <pt x="731" y="81" on="0"/>
      </contour>
    </TTGlyph>
    <TTGlyph name="Oslash" xMin="109" yMin="-225" xMax="1565" yMax="1557">
      <contour>
        <pt x="1250" y="1297" on="1"/>
        <pt x="1285" y="1352" on="0"/>
        <pt x="1310" y="1398" on="1"/>
        <pt x="1354" y="1478" on="1"/>
        <pt x="1394" y="1551" on="0"/>
        <pt x="1422" y="1557" on="0"/>
        <pt x="1453" y="1544" on="0"/>
        <pt x="1457" y="1528" on="1"/>
        <pt x="1463" y="1502" on="0"/>
        <pt x="1414" y="1434" on="0"/>
        <pt x="1390" y="1392" on="0"/>
        <pt x="1376" y="1366" on="1"/>
        <pt x="1317" y="1252" on="1"/>
      </contour>
      <contour>
        <pt x="407" y="-216" on="1"/>
        <pt x="362" y="-189" on="0"/>
        <pt x="418" y="-118" on="1"/>
        <pt x="426" y="-109" on="0"/>
        <pt x="440" y="-86" on="1"/>
        <pt x="545" y="102" on="1"/>
        <pt x="601" y="37" on="1"/>
        <pt x="504" y="-141" on="1"/>
        <pt x="461" y="-215" on="0"/>
        <pt x="421" y="-225" on="0"/>
      </contour>
      <contour>
        <pt x="226" y="277" on="0"/>
        <pt x="109" y="552" on="0"/>
        <pt x="109" y="877" on="0"/>
        <pt x="220" y="1136" on="0"/>
        <pt x="318" y="1231" on="1"/>
        <pt x="528" y="1433" on="0"/>
        <pt x="845" y="1433" on="1"/>
        <pt x="1160" y="1433" on="0"/>
        <pt x="1361" y="1234" on="1"/>
        <pt x="1565" y="1032" on="0"/>
        <pt x="1565" y="710" on="1"/>
        <pt x="1565" y="389" on="0"/>
        <pt x="1356" y="182" on="1"/>
        <pt x="1225" y="54" on="0"/>
        <pt x="1034" y="5" on="1"/>
        <pt x="939" y="-19" on="0"/>
        <pt x="688" y="-19" on="0"/>
        <pt x="424" y="84" on="0"/>
      </contour>
      <contour>
        <pt x="844" y="1360" on="1"/>
        <pt x="789" y="1360" on="0"/>
        <pt x="741" y="1352" on="1"/>
        <pt x="741" y="62" on="1"/>
        <pt x="787" y="54" on="0"/>
        <pt x="844" y="54" on="1"/>
        <pt x="1111" y="54" on="0"/>
        <pt x="1294" y="232" on="1"/>
        <pt x="1485" y="417" on="0"/>
        <pt x="1485" y="710" on="1"/>
        <pt x="1485" y="989" on="0"/>
        <pt x="1306" y="1174" on="1"/>
        <pt x="1125" y="1360" on="0"/>
      </contour>
    </TTGlyph>
    <TTGlyph name="Otilde" xMin="109" yMin="-19" xMax="1565" yMax="1832">
      <contour>
        <pt x="226" y="277" on="0"/>
        <pt x="109" y="552" on="0"/>
        <pt x="109" y="877" on="0"/>
        <pt x="220" y="1136" on="0"/>
        <pt x="318" y="1231" on="1"/>
        <pt x="528" y="1433" on="0"/>
        <pt x="845" y="1433" on="1"/>
        <pt x="1160" y="1433" on="0"/>
        <pt x="1361" y="1234" on="1"/>
        <pt x="1565" y="1032" on="0"/>
        <pt x="1565" y="710" on="1"/>
        <pt x="1565" y="389" on="0"/>
        <pt x="1356" y="182" on="1"/>
        <pt x="1225" y="54" on="0"/>
        <pt x="1034" y="5" on="1"/>
        <pt x="939" y="-19" on="0"/>
        <pt x="688" y="-19" on="0"/>
        <pt x="424" y="84" on="0"/>
      </contour>
      <contour>
        <pt x="844" y="1360" on="1"/>
        <pt x="789" y="1360" on="0"/>
        <pt x="741" y="1352" on="1"/>
        <pt x="741" y="62" on="1"/>
        <pt x="787" y="54" on="0"/>
        <pt x="844" y="54" on="1"/>
        <pt x="1111" y="54" on="0"/>
        <pt x="1294" y="232" on="1"/>
        <pt x="1485" y="417" on="0"/>
        <pt x="1485" y="710" on="1"/>
        <pt x="1485" y="989" on="0"/>
        <pt x="1306" y="1174" on="1"/>
        <pt x="1125" y="1360" on="0"/>
      </contour>
      <contour>
        <pt x="544" y="1540" on="0"/>
        <pt x="519" y="1540" on="0"/>
        <pt x="496" y="1567" on="0"/>
        <pt x="496" y="1632" on="0"/>
        <pt x="536" y="1719" on="0"/>
        <pt x="571" y="1754" on="1"/>
        <pt x="649" y="1832" on="0"/>
        <pt x="750" y="1832" on="1"/>
        <pt x="834" y="1832" on="0"/>
        <pt x="940" y="1749" on="1"/>
        <pt x="992" y="1709" on="1"/>
        <pt x="1049" y="1666" on="0"/>
        <pt x="1085" y="1666" on="0"/>
        <pt x="1118" y="1716" on="0"/>
        <pt x="1131" y="1796" on="0"/>
        <pt x="1145" y="1823" on="0"/>
        <pt x="1179" y="1823" on="0"/>
        <pt x="1202" y="1793" on="0"/>
        <pt x="1202" y="1730" on="0"/>
        <pt x="1162" y="1643" on="0"/>
        <pt x="1127" y="1608" on="1"/>
        <pt x="1049" y="1530" on="0"/>
        <pt x="948" y="1530" on="1"/>
        <pt x="869" y="1530" on="0"/>
        <pt x="761" y="1608" on="1"/>
        <pt x="689" y="1662" on="1"/>
        <pt x="657" y="1687" on="0"/>
        <pt x="627" y="1687" on="0"/>
        <pt x="606" y="1674" on="0"/>
        <pt x="596" y="1662" on="1"/>
        <pt x="574" y="1637" on="0"/>
        <pt x="569" y="1610" on="1"/>
        <pt x="563" y="1572" on="1"/>
        <pt x="559" y="1548" on="0"/>
      </contour>
    </TTGlyph>
    <TTGlyph name="P" xMin="177" yMin="0" xMax="1467" yMax="1415">
      <contour>
        <pt x="839" y="415" on="1"/>
        <pt x="928" y="411" on="1"/>
        <pt x="1122" y="411" on="0"/>
        <pt x="1248" y="539" on="1"/>
        <pt x="1376" y="668" on="0"/>
        <pt x="1382" y="873" on="1"/>
        <pt x="1393" y="1189" on="0"/>
        <pt x="1078" y="1300" on="1"/>
        <pt x="960" y="1342" on="0"/>
        <pt x="771" y="1342" on="1"/>
        <pt x="687" y="1342" on="1"/>
        <pt x="687" y="0" on="1"/>
        <pt x="177" y="0" on="1"/>
        <pt x="177" y="1415" on="1"/>
        <pt x="560" y="1415" on="1"/>
        <pt x="870" y="1415" on="0"/>
        <pt x="998" y="1397" on="0"/>
        <pt x="1137" y="1369" on="0"/>
        <pt x="1298" y="1275" on="0"/>
        <pt x="1354" y="1210" on="1"/>
        <pt x="1467" y="1078" on="0"/>
        <pt x="1463" y="900" on="1"/>
        <pt x="1457" y="673" on="0"/>
        <pt x="1330" y="522" on="1"/>
        <pt x="1201" y="370" on="0"/>
        <pt x="974" y="334" on="1"/>
        <pt x="908" y="325" on="0"/>
        <pt x="870" y="325" on="1"/>
        <pt x="780" y="325" on="0"/>
        <pt x="780" y="374" on="1"/>
        <pt x="780" y="392" on="0"/>
        <pt x="812" y="415" on="0"/>
      </contour>
    </TTGlyph>
    <TTGlyph name="Q" xMin="88" yMin="-69" xMax="1563" yMax="1433">
      <contour>
        <pt x="1234" y="101" on="1"/>
        <pt x="1050" y="-19" on="0"/>
        <pt x="814" y="-19" on="1"/>
        <pt x="667" y="-19" on="0"/>
        <pt x="403" y="84" on="0"/>
        <pt x="304" y="180" on="1"/>
        <pt x="88" y="391" on="0"/>
        <pt x="88" y="724" on="1"/>
        <pt x="88" y="1029" on="0"/>
        <pt x="507" y="1433" on="0"/>
        <pt x="824" y="1433" on="1"/>
        <pt x="1139" y="1433" on="0"/>
        <pt x="1340" y="1234" on="1"/>
        <pt x="1544" y="1032" on="0"/>
        <pt x="1544" y="710" on="1"/>
        <pt x="1544" y="529" on="0"/>
        <pt x="1410" y="242" on="0"/>
        <pt x="1292" y="145" on="1"/>
        <pt x="1386" y="71" on="1"/>
        <pt x="1454" y="20" on="0"/>
        <pt x="1496" y="10" on="0"/>
        <pt x="1518" y="8" on="1"/>
        <pt x="1563" y="5" on="0"/>
        <pt x="1563" y="-28" on="1"/>
        <pt x="1563" y="-69" on="0"/>
        <pt x="1509" y="-69" on="1"/>
        <pt x="1467" y="-69" on="0"/>
        <pt x="1390" y="-22" on="0"/>
        <pt x="1346" y="12" on="1"/>
      </contour>
      <contour>
        <pt x="823" y="1360" on="1"/>
        <pt x="768" y="1360" on="0"/>
        <pt x="720" y="1352" on="1"/>
        <pt x="720" y="62" on="1"/>
        <pt x="766" y="54" on="0"/>
        <pt x="842" y="54" on="1"/>
        <pt x="1014" y="54" on="0"/>
        <pt x="1171" y="152" on="1"/>
        <pt x="1064" y="230" on="0"/>
        <pt x="976" y="230" on="1"/>
        <pt x="947" y="230" on="0"/>
        <pt x="917" y="253" on="0"/>
        <pt x="917" y="270" on="1"/>
        <pt x="917" y="310" on="0"/>
        <pt x="971" y="310" on="1"/>
        <pt x="1076" y="310" on="0"/>
        <pt x="1231" y="194" on="1"/>
        <pt x="1337" y="280" on="0"/>
        <pt x="1464" y="541" on="0"/>
        <pt x="1464" y="848" on="0"/>
        <pt x="1370" y="1086" on="0"/>
        <pt x="1285" y="1174" on="1"/>
        <pt x="1104" y="1360" on="0"/>
      </contour>
    </TTGlyph>
    <TTGlyph name="R" xMin="177" yMin="-19" xMax="1446" yMax="1415">
      <contour>
        <pt x="851" y="485" on="1"/>
        <pt x="933" y="479" on="1"/>
        <pt x="1109" y="479" on="0"/>
        <pt x="1232" y="602" on="1"/>
        <pt x="1355" y="725" on="0"/>
        <pt x="1355" y="908" on="1"/>
        <pt x="1355" y="1148" on="0"/>
        <pt x="1144" y="1264" on="1"/>
        <pt x="1028" y="1328" on="0"/>
        <pt x="896" y="1338" on="1"/>
        <pt x="840" y="1343" on="0"/>
        <pt x="792" y="1343" on="1"/>
        <pt x="724" y="1343" on="1"/>
        <pt x="703" y="1343" on="0"/>
        <pt x="687" y="1342" on="1"/>
        <pt x="687" y="0" on="1"/>
        <pt x="177" y="0" on="1"/>
        <pt x="177" y="1415" on="1"/>
        <pt x="411" y="1415" on="0"/>
        <pt x="701" y="1415" on="0"/>
        <pt x="789" y="1413" on="0"/>
        <pt x="858" y="1410" on="0"/>
        <pt x="888" y="1408" on="1"/>
        <pt x="932" y="1404" on="0"/>
        <pt x="1093" y="1374" on="0"/>
        <pt x="1251" y="1290" on="0"/>
        <pt x="1308" y="1228" on="1"/>
        <pt x="1431" y="1096" on="0"/>
        <pt x="1431" y="914" on="1"/>
        <pt x="1431" y="734" on="0"/>
        <pt x="1317" y="596" on="1"/>
        <pt x="1200" y="455" on="0"/>
        <pt x="1005" y="414" on="1"/>
        <pt x="1098" y="126" on="0"/>
        <pt x="1242" y="70" on="1"/>
        <pt x="1286" y="53" on="0"/>
        <pt x="1330" y="53" on="1"/>
        <pt x="1409" y="72" on="1"/>
        <pt x="1446" y="72" on="0"/>
        <pt x="1446" y="34" on="1"/>
        <pt x="1446" y="-19" on="0"/>
        <pt x="1322" y="-19" on="1"/>
        <pt x="1232" y="-19" on="0"/>
        <pt x="1157" y="31" on="1"/>
        <pt x="1040" y="101" on="0"/>
        <pt x="958" y="303" on="1"/>
        <pt x="929" y="374" on="1"/>
        <pt x="922" y="391" on="0"/>
        <pt x="911" y="399" on="0"/>
        <pt x="884" y="399" on="0"/>
        <pt x="874" y="397" on="1"/>
        <pt x="850" y="396" on="1"/>
        <pt x="810" y="396" on="0"/>
        <pt x="781" y="426" on="0"/>
        <pt x="781" y="442" on="1"/>
        <pt x="781" y="485" on="0"/>
      </contour>
    </TTGlyph>
    <TTGlyph name="Racute" xMin="177" yMin="-19" xMax="1446" yMax="1812">
      <contour>
        <pt x="851" y="485" on="1"/>
        <pt x="933" y="479" on="1"/>
        <pt x="1109" y="479" on="0"/>
        <pt x="1232" y="602" on="1"/>
        <pt x="1355" y="725" on="0"/>
        <pt x="1355" y="908" on="1"/>
        <pt x="1355" y="1148" on="0"/>
        <pt x="1144" y="1264" on="1"/>
        <pt x="1028" y="1328" on="0"/>
        <pt x="896" y="1338" on="1"/>
        <pt x="840" y="1343" on="0"/>
        <pt x="792" y="1343" on="1"/>
        <pt x="724" y="1343" on="1"/>
        <pt x="703" y="1343" on="0"/>
        <pt x="687" y="1342" on="1"/>
        <pt x="687" y="0" on="1"/>
        <pt x="177" y="0" on="1"/>
        <pt x="177" y="1415" on="1"/>
        <pt x="411" y="1415" on="0"/>
        <pt x="701" y="1415" on="0"/>
        <pt x="789" y="1413" on="0"/>
        <pt x="858" y="1410" on="0"/>
        <pt x="888" y="1408" on="1"/>
        <pt x="932" y="1404" on="0"/>
        <pt x="1093" y="1374" on="0"/>
        <pt x="1251" y="1290" on="0"/>
        <pt x="1308" y="1228" on="1"/>
        <pt x="1431" y="1096" on="0"/>
        <pt x="1431" y="914" on="1"/>
        <pt x="1431" y="734" on="0"/>
        <pt x="1317" y="596" on="1"/>
        <pt x="1200" y="455" on="0"/>
        <pt x="1005" y="414" on="1"/>
        <pt x="1098" y="126" on="0"/>
        <pt x="1242" y="70" on="1"/>
        <pt x="1286" y="53" on="0"/>
        <pt x="1330" y="53" on="1"/>
        <pt x="1409" y="72" on="1"/>
        <pt x="1446" y="72" on="0"/>
        <pt x="1446" y="34" on="1"/>
        <pt x="1446" y="-19" on="0"/>
        <pt x="1322" y="-19" on="1"/>
        <pt x="1232" y="-19" on="0"/>
        <pt x="1157" y="31" on="1"/>
        <pt x="1040" y="101" on="0"/>
        <pt x="958" y="303" on="1"/>
        <pt x="929" y="374" on="1"/>
        <pt x="922" y="391" on="0"/>
        <pt x="911" y="399" on="0"/>
        <pt x="884" y="399" on="0"/>
        <pt x="874" y="397" on="1"/>
        <pt x="850" y="396" on="1"/>
        <pt x="810" y="396" on="0"/>
        <pt x="781" y="426" on="0"/>
        <pt x="781" y="442" on="1"/>
        <pt x="781" y="485" on="0"/>
      </contour>
      <contour>
        <pt x="866" y="1812" on="1"/>
        <pt x="1146" y="1812" on="1"/>
        <pt x="903" y="1528" on="1"/>
        <pt x="748" y="1528" on="1"/>
      </contour>
    </TTGlyph>
    <TTGlyph name="Rcaron" xMin="177" yMin="-19" xMax="1446" yMax="1823">
      <contour>
        <pt x="851" y="485" on="1"/>
        <pt x="933" y="479" on="1"/>
        <pt x="1109" y="479" on="0"/>
        <pt x="1232" y="602" on="1"/>
        <pt x="1355" y="725" on="0"/>
        <pt x="1355" y="908" on="1"/>
        <pt x="1355" y="1148" on="0"/>
        <pt x="1144" y="1264" on="1"/>
        <pt x="1028" y="1328" on="0"/>
        <pt x="896" y="1338" on="1"/>
        <pt x="840" y="1343" on="0"/>
        <pt x="792" y="1343" on="1"/>
        <pt x="724" y="1343" on="1"/>
        <pt x="703" y="1343" on="0"/>
        <pt x="687" y="1342" on="1"/>
        <pt x="687" y="0" on="1"/>
        <pt x="177" y="0" on="1"/>
        <pt x="177" y="1415" on="1"/>
        <pt x="411" y="1415" on="0"/>
        <pt x="701" y="1415" on="0"/>
        <pt x="789" y="1413" on="0"/>
        <pt x="858" y="1410" on="0"/>
        <pt x="888" y="1408" on="1"/>
        <pt x="932" y="1404" on="0"/>
        <pt x="1093" y="1374" on="0"/>
        <pt x="1251" y="1290" on="0"/>
        <pt x="1308" y="1228" on="1"/>
        <pt x="1431" y="1096" on="0"/>
        <pt x="1431" y="914" on="1"/>
        <pt x="1431" y="734" on="0"/>
        <pt x="1317" y="596" on="1"/>
        <pt x="1200" y="455" on="0"/>
        <pt x="1005" y="414" on="1"/>
        <pt x="1098" y="126" on="0"/>
        <pt x="1242" y="70" on="1"/>
        <pt x="1286" y="53" on="0"/>
        <pt x="1330" y="53" on="1"/>
        <pt x="1409" y="72" on="1"/>
        <pt x="1446" y="72" on="0"/>
        <pt x="1446" y="34" on="1"/>
        <pt x="1446" y="-19" on="0"/>
        <pt x="1322" y="-19" on="1"/>
        <pt x="1232" y="-19" on="0"/>
        <pt x="1157" y="31" on="1"/>
        <pt x="1040" y="101" on="0"/>
        <pt x="958" y="303" on="1"/>
        <pt x="929" y="374" on="1"/>
        <pt x="922" y="391" on="0"/>
        <pt x="911" y="399" on="0"/>
        <pt x="884" y="399" on="0"/>
        <pt x="874" y="397" on="1"/>
        <pt x="850" y="396" on="1"/>
        <pt x="810" y="396" on="0"/>
        <pt x="781" y="426" on="0"/>
        <pt x="781" y="442" on="1"/>
        <pt x="781" y="485" on="0"/>
      </contour>
      <contour>
        <pt x="1100" y="1823" on="1"/>
        <pt x="1139" y="1823" on="0"/>
        <pt x="1139" y="1786" on="1"/>
        <pt x="1139" y="1759" on="0"/>
        <pt x="1099" y="1727" on="1"/>
        <pt x="1007" y="1642" on="1"/>
        <pt x="897" y="1531" on="1"/>
        <pt x="641" y="1531" on="1"/>
        <pt x="379" y="1815" on="1"/>
        <pt x="688" y="1815" on="1"/>
        <pt x="868" y="1601" on="1"/>
        <pt x="1047" y="1785" on="1"/>
        <pt x="1079" y="1823" on="0"/>
      </contour>
    </TTGlyph>
    <TTGlyph name="Rcommaaccent" xMin="177" yMin="-636" xMax="1446" yMax="1415">
      <contour>
        <pt x="851" y="485" on="1"/>
        <pt x="933" y="479" on="1"/>
        <pt x="1109" y="479" on="0"/>
        <pt x="1232" y="602" on="1"/>
        <pt x="1355" y="725" on="0"/>
        <pt x="1355" y="908" on="1"/>
        <pt x="1355" y="1148" on="0"/>
        <pt x="1144" y="1264" on="1"/>
        <pt x="1028" y="1328" on="0"/>
        <pt x="896" y="1338" on="1"/>
        <pt x="840" y="1343" on="0"/>
        <pt x="792" y="1343" on="1"/>
        <pt x="724" y="1343" on="1"/>
        <pt x="703" y="1343" on="0"/>
        <pt x="687" y="1342" on="1"/>
        <pt x="687" y="0" on="1"/>
        <pt x="177" y="0" on="1"/>
        <pt x="177" y="1415" on="1"/>
        <pt x="411" y="1415" on="0"/>
        <pt x="701" y="1415" on="0"/>
        <pt x="789" y="1413" on="0"/>
        <pt x="858" y="1410" on="0"/>
        <pt x="888" y="1408" on="1"/>
        <pt x="932" y="1404" on="0"/>
        <pt x="1093" y="1374" on="0"/>
        <pt x="1251" y="1290" on="0"/>
        <pt x="1308" y="1228" on="1"/>
        <pt x="1431" y="1096" on="0"/>
        <pt x="1431" y="914" on="1"/>
        <pt x="1431" y="734" on="0"/>
        <pt x="1317" y="596" on="1"/>
        <pt x="1200" y="455" on="0"/>
        <pt x="1005" y="414" on="1"/>
        <pt x="1098" y="126" on="0"/>
        <pt x="1242" y="70" on="1"/>
        <pt x="1286" y="53" on="0"/>
        <pt x="1330" y="53" on="1"/>
        <pt x="1409" y="72" on="1"/>
        <pt x="1446" y="72" on="0"/>
        <pt x="1446" y="34" on="1"/>
        <pt x="1446" y="-19" on="0"/>
        <pt x="1322" y="-19" on="1"/>
        <pt x="1232" y="-19" on="0"/>
        <pt x="1157" y="31" on="1"/>
        <pt x="1040" y="101" on="0"/>
        <pt x="958" y="303" on="1"/>
        <pt x="929" y="374" on="1"/>
        <pt x="922" y="391" on="0"/>
        <pt x="911" y="399" on="0"/>
        <pt x="884" y="399" on="0"/>
        <pt x="874" y="397" on="1"/>
        <pt x="850" y="396" on="1"/>
        <pt x="810" y="396" on="0"/>
        <pt x="781" y="426" on="0"/>
        <pt x="781" y="442" on="1"/>
        <pt x="781" y="485" on="0"/>
      </contour>
      <contour>
        <pt x="907" y="-415" on="1"/>
        <pt x="825" y="-451" on="0"/>
        <pt x="705" y="-451" on="0"/>
        <pt x="623" y="-427" on="0"/>
        <pt x="595" y="-407" on="1"/>
        <pt x="537" y="-366" on="0"/>
        <pt x="537" y="-303" on="1"/>
        <pt x="537" y="-236" on="0"/>
        <pt x="665" y="-153" on="0"/>
        <pt x="878" y="-153" on="0"/>
        <pt x="1002" y="-245" on="0"/>
        <pt x="1002" y="-331" on="1"/>
        <pt x="1002" y="-450" on="0"/>
        <pt x="910" y="-539" on="1"/>
        <pt x="846" y="-601" on="0"/>
        <pt x="804" y="-624" on="0"/>
        <pt x="784" y="-628" on="1"/>
        <pt x="737" y="-636" on="0"/>
        <pt x="735" y="-594" on="1"/>
        <pt x="734" y="-578" on="0"/>
        <pt x="751" y="-566" on="1"/>
        <pt x="790" y="-538" on="1"/>
        <pt x="882" y="-474" on="0"/>
      </contour>
    </TTGlyph>
    <TTGlyph name="S" xMin="91" yMin="-19" xMax="1098" yMax="1433">
      <contour>
        <pt x="177" y="72" on="1"/>
        <pt x="142" y="92" on="0"/>
        <pt x="91" y="136" on="0"/>
        <pt x="91" y="161" on="1"/>
        <pt x="91" y="209" on="0"/>
        <pt x="132" y="209" on="1"/>
        <pt x="159" y="209" on="0"/>
        <pt x="225" y="149" on="0"/>
        <pt x="307" y="104" on="0"/>
        <pt x="355" y="88" on="1"/>
        <pt x="454" y="55" on="0"/>
        <pt x="622" y="55" on="0"/>
        <pt x="713" y="77" on="0"/>
        <pt x="744" y="96" on="1"/>
        <pt x="810" y="137" on="0"/>
        <pt x="810" y="201" on="1"/>
        <pt x="810" y="260" on="0"/>
        <pt x="753" y="320" on="1"/>
        <pt x="705" y="371" on="0"/>
        <pt x="617" y="442" on="1"/>
        <pt x="446" y="576" on="1"/>
        <pt x="189" y="774" on="0"/>
        <pt x="143" y="938" on="1"/>
        <pt x="127" y="995" on="0"/>
        <pt x="127" y="1135" on="0"/>
        <pt x="190" y="1271" on="0"/>
        <pt x="252" y="1322" on="1"/>
        <pt x="385" y="1433" on="0"/>
        <pt x="614" y="1433" on="1"/>
        <pt x="731" y="1433" on="0"/>
        <pt x="917" y="1364" on="0"/>
        <pt x="985" y="1310" on="0"/>
        <pt x="985" y="1288" on="1"/>
        <pt x="985" y="1242" on="0"/>
        <pt x="947" y="1242" on="1"/>
        <pt x="925" y="1242" on="0"/>
        <pt x="875" y="1286" on="0"/>
        <pt x="814" y="1319" on="0"/>
        <pt x="775" y="1332" on="1"/>
        <pt x="691" y="1360" on="0"/>
        <pt x="610" y="1360" on="1"/>
        <pt x="461" y="1360" on="0"/>
        <pt x="461" y="1262" on="1"/>
        <pt x="461" y="1221" on="0"/>
        <pt x="488" y="1186" on="1"/>
        <pt x="536" y="1125" on="0"/>
        <pt x="815" y="898" on="0"/>
        <pt x="984" y="728" on="0"/>
        <pt x="1028" y="660" on="1"/>
        <pt x="1098" y="553" on="0"/>
        <pt x="1098" y="322" on="0"/>
        <pt x="1017" y="161" on="0"/>
        <pt x="944" y="103" on="1"/>
        <pt x="790" y="-19" on="0"/>
        <pt x="334" y="-19" on="0"/>
      </contour>
    </TTGlyph>
    <TTGlyph name="Sacute" xMin="91" yMin="-19" xMax="1098" yMax="1812">
      <contour>
        <pt x="177" y="72" on="1"/>
        <pt x="142" y="92" on="0"/>
        <pt x="91" y="136" on="0"/>
        <pt x="91" y="161" on="1"/>
        <pt x="91" y="209" on="0"/>
        <pt x="132" y="209" on="1"/>
        <pt x="159" y="209" on="0"/>
        <pt x="225" y="149" on="0"/>
        <pt x="307" y="104" on="0"/>
        <pt x="355" y="88" on="1"/>
        <pt x="454" y="55" on="0"/>
        <pt x="622" y="55" on="0"/>
        <pt x="713" y="77" on="0"/>
        <pt x="744" y="96" on="1"/>
        <pt x="810" y="137" on="0"/>
        <pt x="810" y="201" on="1"/>
        <pt x="810" y="260" on="0"/>
        <pt x="753" y="320" on="1"/>
        <pt x="705" y="371" on="0"/>
        <pt x="617" y="442" on="1"/>
        <pt x="446" y="576" on="1"/>
        <pt x="189" y="774" on="0"/>
        <pt x="143" y="938" on="1"/>
        <pt x="127" y="995" on="0"/>
        <pt x="127" y="1135" on="0"/>
        <pt x="190" y="1271" on="0"/>
        <pt x="252" y="1322" on="1"/>
        <pt x="385" y="1433" on="0"/>
        <pt x="614" y="1433" on="1"/>
        <pt x="731" y="1433" on="0"/>
        <pt x="917" y="1364" on="0"/>
        <pt x="985" y="1310" on="0"/>
        <pt x="985" y="1288" on="1"/>
        <pt x="985" y="1242" on="0"/>
        <pt x="947" y="1242" on="1"/>
        <pt x="925" y="1242" on="0"/>
        <pt x="875" y="1286" on="0"/>
        <pt x="814" y="1319" on="0"/>
        <pt x="775" y="1332" on="1"/>
        <pt x="691" y="1360" on="0"/>
        <pt x="610" y="1360" on="1"/>
        <pt x="461" y="1360" on="0"/>
        <pt x="461" y="1262" on="1"/>
        <pt x="461" y="1221" on="0"/>
        <pt x="488" y="1186" on="1"/>
        <pt x="536" y="1125" on="0"/>
        <pt x="815" y="898" on="0"/>
        <pt x="984" y="728" on="0"/>
        <pt x="1028" y="660" on="1"/>
        <pt x="1098" y="553" on="0"/>
        <pt x="1098" y="322" on="0"/>
        <pt x="1017" y="161" on="0"/>
        <pt x="944" y="103" on="1"/>
        <pt x="790" y="-19" on="0"/>
        <pt x="334" y="-19" on="0"/>
      </contour>
      <contour>
        <pt x="714" y="1812" on="1"/>
        <pt x="994" y="1812" on="1"/>
        <pt x="751" y="1528" on="1"/>
        <pt x="596" y="1528" on="1"/>
      </contour>
    </TTGlyph>
    <TTGlyph name="Scaron" xMin="91" yMin="-19" xMax="1098" yMax="1823">
      <contour>
        <pt x="177" y="72" on="1"/>
        <pt x="142" y="92" on="0"/>
        <pt x="91" y="136" on="0"/>
        <pt x="91" y="161" on="1"/>
        <pt x="91" y="209" on="0"/>
        <pt x="132" y="209" on="1"/>
        <pt x="159" y="209" on="0"/>
        <pt x="225" y="149" on="0"/>
        <pt x="307" y="104" on="0"/>
        <pt x="355" y="88" on="1"/>
        <pt x="454" y="55" on="0"/>
        <pt x="622" y="55" on="0"/>
        <pt x="713" y="77" on="0"/>
        <pt x="744" y="96" on="1"/>
        <pt x="810" y="137" on="0"/>
        <pt x="810" y="201" on="1"/>
        <pt x="810" y="260" on="0"/>
        <pt x="753" y="320" on="1"/>
        <pt x="705" y="371" on="0"/>
        <pt x="617" y="442" on="1"/>
        <pt x="446" y="576" on="1"/>
        <pt x="189" y="774" on="0"/>
        <pt x="143" y="938" on="1"/>
        <pt x="127" y="995" on="0"/>
        <pt x="127" y="1135" on="0"/>
        <pt x="190" y="1271" on="0"/>
        <pt x="252" y="1322" on="1"/>
        <pt x="385" y="1433" on="0"/>
        <pt x="614" y="1433" on="1"/>
        <pt x="731" y="1433" on="0"/>
        <pt x="917" y="1364" on="0"/>
        <pt x="985" y="1310" on="0"/>
        <pt x="985" y="1288" on="1"/>
        <pt x="985" y="1242" on="0"/>
        <pt x="947" y="1242" on="1"/>
        <pt x="925" y="1242" on="0"/>
        <pt x="875" y="1286" on="0"/>
        <pt x="814" y="1319" on="0"/>
        <pt x="775" y="1332" on="1"/>
        <pt x="691" y="1360" on="0"/>
        <pt x="610" y="1360" on="1"/>
        <pt x="461" y="1360" on="0"/>
        <pt x="461" y="1262" on="1"/>
        <pt x="461" y="1221" on="0"/>
        <pt x="488" y="1186" on="1"/>
        <pt x="536" y="1125" on="0"/>
        <pt x="815" y="898" on="0"/>
        <pt x="984" y="728" on="0"/>
        <pt x="1028" y="660" on="1"/>
        <pt x="1098" y="553" on="0"/>
        <pt x="1098" y="322" on="0"/>
        <pt x="1017" y="161" on="0"/>
        <pt x="944" y="103" on="1"/>
        <pt x="790" y="-19" on="0"/>
        <pt x="334" y="-19" on="0"/>
      </contour>
      <contour>
        <pt x="948" y="1823" on="1"/>
        <pt x="987" y="1823" on="0"/>
        <pt x="987" y="1786" on="1"/>
        <pt x="987" y="1759" on="0"/>
        <pt x="947" y="1727" on="1"/>
        <pt x="855" y="1642" on="1"/>
        <pt x="745" y="1531" on="1"/>
        <pt x="489" y="1531" on="1"/>
        <pt x="227" y="1815" on="1"/>
        <pt x="536" y="1815" on="1"/>
        <pt x="716" y="1601" on="1"/>
        <pt x="895" y="1785" on="1"/>
        <pt x="927" y="1823" on="0"/>
      </contour>
    </TTGlyph>
    <TTGlyph name="Scedilla" xMin="91" yMin="-338" xMax="1098" yMax="1433">
      <contour>
        <pt x="564" y="-18" on="1"/>
        <pt x="552" y="-19" on="1"/>
        <pt x="334" y="-19" on="0"/>
        <pt x="177" y="72" on="1"/>
        <pt x="142" y="92" on="0"/>
        <pt x="91" y="136" on="0"/>
        <pt x="91" y="161" on="1"/>
        <pt x="91" y="209" on="0"/>
        <pt x="132" y="209" on="1"/>
        <pt x="159" y="209" on="0"/>
        <pt x="225" y="149" on="0"/>
        <pt x="307" y="104" on="0"/>
        <pt x="355" y="88" on="1"/>
        <pt x="454" y="55" on="0"/>
        <pt x="622" y="55" on="0"/>
        <pt x="713" y="77" on="0"/>
        <pt x="744" y="96" on="1"/>
        <pt x="810" y="137" on="0"/>
        <pt x="810" y="201" on="1"/>
        <pt x="810" y="260" on="0"/>
        <pt x="753" y="320" on="1"/>
        <pt x="705" y="371" on="0"/>
        <pt x="617" y="442" on="1"/>
        <pt x="446" y="576" on="1"/>
        <pt x="189" y="774" on="0"/>
        <pt x="143" y="938" on="1"/>
        <pt x="127" y="995" on="0"/>
        <pt x="127" y="1135" on="0"/>
        <pt x="190" y="1271" on="0"/>
        <pt x="252" y="1322" on="1"/>
        <pt x="385" y="1433" on="0"/>
        <pt x="614" y="1433" on="1"/>
        <pt x="731" y="1433" on="0"/>
        <pt x="917" y="1364" on="0"/>
        <pt x="985" y="1310" on="0"/>
        <pt x="985" y="1288" on="1"/>
        <pt x="985" y="1242" on="0"/>
        <pt x="947" y="1242" on="1"/>
        <pt x="925" y="1242" on="0"/>
        <pt x="875" y="1286" on="0"/>
        <pt x="814" y="1319" on="0"/>
        <pt x="775" y="1332" on="1"/>
        <pt x="691" y="1360" on="0"/>
        <pt x="610" y="1360" on="1"/>
        <pt x="461" y="1360" on="0"/>
        <pt x="461" y="1262" on="1"/>
        <pt x="461" y="1221" on="0"/>
        <pt x="488" y="1186" on="1"/>
        <pt x="536" y="1125" on="0"/>
        <pt x="815" y="898" on="0"/>
        <pt x="984" y="728" on="0"/>
        <pt x="1028" y="660" on="1"/>
        <pt x="1098" y="553" on="0"/>
        <pt x="1098" y="332" on="0"/>
        <pt x="1031" y="183" on="0"/>
        <pt x="971" y="126" on="1"/>
        <pt x="845" y="8" on="0"/>
        <pt x="642" y="-14" on="1"/>
        <pt x="642" y="-69" on="1"/>
        <pt x="858" y="-73" on="0"/>
        <pt x="858" y="-194" on="1"/>
        <pt x="858" y="-289" on="0"/>
        <pt x="728" y="-326" on="1"/>
        <pt x="685" y="-338" on="0"/>
        <pt x="640" y="-338" on="1"/>
        <pt x="489" y="-338" on="0"/>
        <pt x="420" y="-283" on="1"/>
        <pt x="391" y="-260" on="0"/>
        <pt x="391" y="-240" on="1"/>
        <pt x="391" y="-197" on="0"/>
        <pt x="431" y="-197" on="1"/>
        <pt x="452" y="-197" on="0"/>
        <pt x="495" y="-234" on="0"/>
        <pt x="529" y="-249" on="0"/>
        <pt x="550" y="-254" on="1"/>
        <pt x="589" y="-265" on="0"/>
        <pt x="710" y="-265" on="0"/>
        <pt x="782" y="-222" on="0"/>
        <pt x="782" y="-177" on="0"/>
        <pt x="707" y="-143" on="0"/>
        <pt x="592" y="-141" on="0"/>
        <pt x="564" y="-119" on="0"/>
        <pt x="564" y="-87" on="1"/>
      </contour>
    </TTGlyph>
    <TTGlyph name="Scircumflex" xMin="91" yMin="-19" xMax="1098" yMax="1814">
      <contour>
        <pt x="177" y="72" on="1"/>
        <pt x="142" y="92" on="0"/>
        <pt x="91" y="136" on="0"/>
        <pt x="91" y="161" on="1"/>
        <pt x="91" y="209" on="0"/>
        <pt x="132" y="209" on="1"/>
        <pt x="159" y="209" on="0"/>
        <pt x="225" y="149" on="0"/>
        <pt x="307" y="104" on="0"/>
        <pt x="355" y="88" on="1"/>
        <pt x="454" y="55" on="0"/>
        <pt x="622" y="55" on="0"/>
        <pt x="713" y="77" on="0"/>
        <pt x="744" y="96" on="1"/>
        <pt x="810" y="137" on="0"/>
        <pt x="810" y="201" on="1"/>
        <pt x="810" y="260" on="0"/>
        <pt x="753" y="320" on="1"/>
        <pt x="705" y="371" on="0"/>
        <pt x="617" y="442" on="1"/>
        <pt x="446" y="576" on="1"/>
        <pt x="189" y="774" on="0"/>
        <pt x="143" y="938" on="1"/>
        <pt x="127" y="995" on="0"/>
        <pt x="127" y="1135" on="0"/>
        <pt x="190" y="1271" on="0"/>
        <pt x="252" y="1322" on="1"/>
        <pt x="385" y="1433" on="0"/>
        <pt x="614" y="1433" on="1"/>
        <pt x="731" y="1433" on="0"/>
        <pt x="917" y="1364" on="0"/>
        <pt x="985" y="1310" on="0"/>
        <pt x="985" y="1288" on="1"/>
        <pt x="985" y="1242" on="0"/>
        <pt x="947" y="1242" on="1"/>
        <pt x="925" y="1242" on="0"/>
        <pt x="875" y="1286" on="0"/>
        <pt x="814" y="1319" on="0"/>
        <pt x="775" y="1332" on="1"/>
        <pt x="691" y="1360" on="0"/>
        <pt x="610" y="1360" on="1"/>
        <pt x="461" y="1360" on="0"/>
        <pt x="461" y="1262" on="1"/>
        <pt x="461" y="1221" on="0"/>
        <pt x="488" y="1186" on="1"/>
        <pt x="536" y="1125" on="0"/>
        <pt x="815" y="898" on="0"/>
        <pt x="984" y="728" on="0"/>
        <pt x="1028" y="660" on="1"/>
        <pt x="1098" y="553" on="0"/>
        <pt x="1098" y="322" on="0"/>
        <pt x="1017" y="161" on="0"/>
        <pt x="944" y="103" on="1"/>
        <pt x="790" y="-19" on="0"/>
        <pt x="334" y="-19" on="0"/>
      </contour>
      <contour>
        <pt x="366" y="1574" on="1"/>
        <pt x="336" y="1544" on="1"/>
        <pt x="314" y="1522" on="0"/>
        <pt x="280" y="1522" on="0"/>
        <pt x="259" y="1543" on="0"/>
        <pt x="259" y="1557" on="1"/>
        <pt x="259" y="1583" on="0"/>
        <pt x="300" y="1618" on="1"/>
        <pt x="313" y="1631" on="0"/>
        <pt x="353" y="1666" on="0"/>
        <pt x="391" y="1704" on="1"/>
        <pt x="501" y="1814" on="1"/>
        <pt x="756" y="1814" on="1"/>
        <pt x="1019" y="1530" on="1"/>
        <pt x="711" y="1530" on="1"/>
        <pt x="531" y="1744" on="1"/>
        <pt x="406" y="1618" on="0"/>
        <pt x="374" y="1582" on="0"/>
      </contour>
    </TTGlyph>
    <TTGlyph name="Scommaaccent" xMin="91" yMin="-630" xMax="1098" yMax="1433">
      <contour>
        <pt x="177" y="72" on="1"/>
        <pt x="142" y="92" on="0"/>
        <pt x="91" y="136" on="0"/>
        <pt x="91" y="161" on="1"/>
        <pt x="91" y="209" on="0"/>
        <pt x="132" y="209" on="1"/>
        <pt x="159" y="209" on="0"/>
        <pt x="225" y="149" on="0"/>
        <pt x="307" y="104" on="0"/>
        <pt x="355" y="88" on="1"/>
        <pt x="454" y="55" on="0"/>
        <pt x="622" y="55" on="0"/>
        <pt x="713" y="77" on="0"/>
        <pt x="744" y="96" on="1"/>
        <pt x="810" y="137" on="0"/>
        <pt x="810" y="201" on="1"/>
        <pt x="810" y="260" on="0"/>
        <pt x="753" y="320" on="1"/>
        <pt x="705" y="371" on="0"/>
        <pt x="617" y="442" on="1"/>
        <pt x="446" y="576" on="1"/>
        <pt x="189" y="774" on="0"/>
        <pt x="143" y="938" on="1"/>
        <pt x="127" y="995" on="0"/>
        <pt x="127" y="1135" on="0"/>
        <pt x="190" y="1271" on="0"/>
        <pt x="252" y="1322" on="1"/>
        <pt x="385" y="1433" on="0"/>
        <pt x="614" y="1433" on="1"/>
        <pt x="731" y="1433" on="0"/>
        <pt x="917" y="1364" on="0"/>
        <pt x="985" y="1310" on="0"/>
        <pt x="985" y="1288" on="1"/>
        <pt x="985" y="1242" on="0"/>
        <pt x="947" y="1242" on="1"/>
        <pt x="925" y="1242" on="0"/>
        <pt x="875" y="1286" on="0"/>
        <pt x="814" y="1319" on="0"/>
        <pt x="775" y="1332" on="1"/>
        <pt x="691" y="1360" on="0"/>
        <pt x="610" y="1360" on="1"/>
        <pt x="461" y="1360" on="0"/>
        <pt x="461" y="1262" on="1"/>
        <pt x="461" y="1221" on="0"/>
        <pt x="488" y="1186" on="1"/>
        <pt x="536" y="1125" on="0"/>
        <pt x="815" y="898" on="0"/>
        <pt x="984" y="728" on="0"/>
        <pt x="1028" y="660" on="1"/>
        <pt x="1098" y="553" on="0"/>
        <pt x="1098" y="322" on="0"/>
        <pt x="1017" y="161" on="0"/>
        <pt x="944" y="103" on="1"/>
        <pt x="790" y="-19" on="0"/>
        <pt x="334" y="-19" on="0"/>
      </contour>
      <contour>
        <pt x="746" y="-409" on="1"/>
        <pt x="664" y="-445" on="0"/>
        <pt x="544" y="-445" on="0"/>
        <pt x="462" y="-421" on="0"/>
        <pt x="434" y="-401" on="1"/>
        <pt x="376" y="-360" on="0"/>
        <pt x="376" y="-297" on="1"/>
        <pt x="376" y="-230" on="0"/>
        <pt x="504" y="-147" on="0"/>
        <pt x="717" y="-147" on="0"/>
        <pt x="841" y="-239" on="0"/>
        <pt x="841" y="-325" on="1"/>
        <pt x="841" y="-444" on="0"/>
        <pt x="749" y="-533" on="1"/>
        <pt x="685" y="-595" on="0"/>
        <pt x="643" y="-618" on="0"/>
        <pt x="623" y="-622" on="1"/>
        <pt x="576" y="-630" on="0"/>
        <pt x="574" y="-588" on="1"/>
        <pt x="573" y="-572" on="0"/>
        <pt x="590" y="-560" on="1"/>
        <pt x="629" y="-532" on="1"/>
        <pt x="721" y="-468" on="0"/>
      </contour>
    </TTGlyph>
    <TTGlyph name="T" xMin="1" yMin="0" xMax="1204" yMax="1428">
      <contour>
        <pt x="1204" y="1389" on="1"/>
        <pt x="1204" y="1343" on="0"/>
        <pt x="1107" y="1343" on="1"/>
        <pt x="875" y="1343" on="1"/>
        <pt x="875" y="0" on="1"/>
        <pt x="363" y="0" on="1"/>
        <pt x="363" y="1343" on="1"/>
        <pt x="213" y="1343" on="1"/>
        <pt x="136" y="1343" on="0"/>
        <pt x="107" y="1336" on="1"/>
        <pt x="69" y="1328" on="0"/>
        <pt x="52" y="1328" on="1"/>
        <pt x="1" y="1328" on="0"/>
        <pt x="1" y="1368" on="1"/>
        <pt x="1" y="1415" on="0"/>
        <pt x="100" y="1415" on="1"/>
        <pt x="992" y="1415" on="1"/>
        <pt x="1061" y="1415" on="0"/>
        <pt x="1094" y="1421" on="1"/>
        <pt x="1134" y="1428" on="0"/>
        <pt x="1154" y="1428" on="1"/>
        <pt x="1204" y="1428" on="0"/>
      </contour>
    </TTGlyph>
    <TTGlyph name="Tbar" xMin="1" yMin="0" xMax="1204" yMax="1428">
      <contour>
        <pt x="1001" y="846" on="1"/>
        <pt x="875" y="854" on="1"/>
        <pt x="875" y="0" on="1"/>
        <pt x="363" y="0" on="1"/>
        <pt x="363" y="854" on="1"/>
        <pt x="227" y="845" on="1"/>
        <pt x="203" y="845" on="0"/>
        <pt x="170" y="872" on="0"/>
        <pt x="170" y="910" on="0"/>
        <pt x="201" y="934" on="0"/>
        <pt x="227" y="934" on="1"/>
        <pt x="363" y="926" on="1"/>
        <pt x="363" y="1343" on="1"/>
        <pt x="213" y="1343" on="1"/>
        <pt x="136" y="1343" on="0"/>
        <pt x="107" y="1336" on="1"/>
        <pt x="69" y="1328" on="0"/>
        <pt x="52" y="1328" on="1"/>
        <pt x="1" y="1328" on="0"/>
        <pt x="1" y="1368" on="1"/>
        <pt x="1" y="1415" on="0"/>
        <pt x="100" y="1415" on="1"/>
        <pt x="992" y="1415" on="1"/>
        <pt x="1061" y="1415" on="0"/>
        <pt x="1094" y="1421" on="1"/>
        <pt x="1134" y="1428" on="0"/>
        <pt x="1154" y="1428" on="1"/>
        <pt x="1204" y="1428" on="0"/>
        <pt x="1204" y="1389" on="1"/>
        <pt x="1204" y="1343" on="0"/>
        <pt x="1107" y="1343" on="1"/>
        <pt x="875" y="1343" on="1"/>
        <pt x="875" y="926" on="1"/>
        <pt x="1005" y="934" on="1"/>
        <pt x="1061" y="934" on="0"/>
        <pt x="1061" y="890" on="1"/>
        <pt x="1061" y="872" on="0"/>
        <pt x="1030" y="846" on="0"/>
      </contour>
    </TTGlyph>
    <TTGlyph name="Tcaron" xMin="1" yMin="0" xMax="1204" yMax="1823">
      <contour>
        <pt x="1204" y="1389" on="1"/>
        <pt x="1204" y="1343" on="0"/>
        <pt x="1107" y="1343" on="1"/>
        <pt x="875" y="1343" on="1"/>
        <pt x="875" y="0" on="1"/>
        <pt x="363" y="0" on="1"/>
        <pt x="363" y="1343" on="1"/>
        <pt x="213" y="1343" on="1"/>
        <pt x="136" y="1343" on="0"/>
        <pt x="107" y="1336" on="1"/>
        <pt x="69" y="1328" on="0"/>
        <pt x="52" y="1328" on="1"/>
        <pt x="1" y="1328" on="0"/>
        <pt x="1" y="1368" on="1"/>
        <pt x="1" y="1415" on="0"/>
        <pt x="100" y="1415" on="1"/>
        <pt x="992" y="1415" on="1"/>
        <pt x="1061" y="1415" on="0"/>
        <pt x="1094" y="1421" on="1"/>
        <pt x="1134" y="1428" on="0"/>
        <pt x="1154" y="1428" on="1"/>
        <pt x="1204" y="1428" on="0"/>
      </contour>
      <contour>
        <pt x="966" y="1823" on="1"/>
        <pt x="1005" y="1823" on="0"/>
        <pt x="1005" y="1786" on="1"/>
        <pt x="1005" y="1759" on="0"/>
        <pt x="965" y="1727" on="1"/>
        <pt x="873" y="1642" on="1"/>
        <pt x="763" y="1531" on="1"/>
        <pt x="507" y="1531" on="1"/>
        <pt x="245" y="1815" on="1"/>
        <pt x="554" y="1815" on="1"/>
        <pt x="734" y="1601" on="1"/>
        <pt x="913" y="1785" on="1"/>
        <pt x="945" y="1823" on="0"/>
      </contour>
    </TTGlyph>
    <TTGlyph name="Tcommaaccent" xMin="1" yMin="-630" xMax="1204" yMax="1428">
      <contour>
        <pt x="1204" y="1389" on="1"/>
        <pt x="1204" y="1343" on="0"/>
        <pt x="1107" y="1343" on="1"/>
        <pt x="875" y="1343" on="1"/>
        <pt x="875" y="0" on="1"/>
        <pt x="363" y="0" on="1"/>
        <pt x="363" y="1343" on="1"/>
        <pt x="213" y="1343" on="1"/>
        <pt x="136" y="1343" on="0"/>
        <pt x="107" y="1336" on="1"/>
        <pt x="69" y="1328" on="0"/>
        <pt x="52" y="1328" on="1"/>
        <pt x="1" y="1328" on="0"/>
        <pt x="1" y="1368" on="1"/>
        <pt x="1" y="1415" on="0"/>
        <pt x="100" y="1415" on="1"/>
        <pt x="992" y="1415" on="1"/>
        <pt x="1061" y="1415" on="0"/>
        <pt x="1094" y="1421" on="1"/>
        <pt x="1134" y="1428" on="0"/>
        <pt x="1154" y="1428" on="1"/>
        <pt x="1204" y="1428" on="0"/>
      </contour>
      <contour>
        <pt x="757" y="-409" on="1"/>
        <pt x="675" y="-445" on="0"/>
        <pt x="555" y="-445" on="0"/>
        <pt x="473" y="-421" on="0"/>
        <pt x="445" y="-401" on="1"/>
        <pt x="387" y="-360" on="0"/>
        <pt x="387" y="-297" on="1"/>
        <pt x="387" y="-230" on="0"/>
        <pt x="515" y="-147" on="0"/>
        <pt x="728" y="-147" on="0"/>
        <pt x="852" y="-239" on="0"/>
        <pt x="852" y="-325" on="1"/>
        <pt x="852" y="-444" on="0"/>
        <pt x="760" y="-533" on="1"/>
        <pt x="696" y="-595" on="0"/>
        <pt x="654" y="-618" on="0"/>
        <pt x="634" y="-622" on="1"/>
        <pt x="587" y="-630" on="0"/>
        <pt x="585" y="-588" on="1"/>
        <pt x="584" y="-572" on="0"/>
        <pt x="601" y="-560" on="1"/>
        <pt x="640" y="-532" on="1"/>
        <pt x="732" y="-468" on="0"/>
      </contour>
    </TTGlyph>
    <TTGlyph name="Thorn" xMin="160" yMin="0" xMax="1468" yMax="1415">
      <contour>
        <pt x="846" y="286" on="1"/>
        <pt x="935" y="282" on="1"/>
        <pt x="1129" y="282" on="0"/>
        <pt x="1258" y="398" on="1"/>
        <pt x="1391" y="516" on="0"/>
        <pt x="1391" y="701" on="1"/>
        <pt x="1391" y="932" on="0"/>
        <pt x="1234" y="1033" on="1"/>
        <pt x="1081" y="1131" on="0"/>
        <pt x="778" y="1131" on="1"/>
        <pt x="670" y="1131" on="1"/>
        <pt x="670" y="0" on="1"/>
        <pt x="160" y="0" on="1"/>
        <pt x="160" y="1415" on="1"/>
        <pt x="670" y="1415" on="1"/>
        <pt x="670" y="1206" on="1"/>
        <pt x="916" y="1203" on="0"/>
        <pt x="1030" y="1186" on="0"/>
        <pt x="1166" y="1159" on="0"/>
        <pt x="1319" y="1073" on="0"/>
        <pt x="1369" y="1014" on="1"/>
        <pt x="1468" y="897" on="0"/>
        <pt x="1468" y="725" on="1"/>
        <pt x="1468" y="519" on="0"/>
        <pt x="1339" y="380" on="1"/>
        <pt x="1189" y="220" on="0"/>
        <pt x="922" y="199" on="1"/>
        <pt x="897" y="197" on="0"/>
        <pt x="876" y="197" on="1"/>
        <pt x="787" y="197" on="0"/>
        <pt x="787" y="246" on="1"/>
        <pt x="787" y="264" on="0"/>
        <pt x="819" y="286" on="0"/>
      </contour>
    </TTGlyph>
    <TTGlyph name="U" xMin="146" yMin="-19" xMax="1424" yMax="1426">
      <contour>
        <pt x="1424" y="1373" on="1"/>
        <pt x="1418" y="1249" on="1"/>
        <pt x="1418" y="651" on="1"/>
        <pt x="1418" y="355" on="0"/>
        <pt x="1248" y="170" on="1"/>
        <pt x="1074" y="-19" on="0"/>
        <pt x="786" y="-19" on="1"/>
        <pt x="478" y="-19" on="0"/>
        <pt x="306" y="174" on="1"/>
        <pt x="146" y="351" on="0"/>
        <pt x="146" y="628" on="1"/>
        <pt x="146" y="1415" on="1"/>
        <pt x="657" y="1415" on="1"/>
        <pt x="657" y="66" on="1"/>
        <pt x="734" y="55" on="0"/>
        <pt x="919" y="55" on="0"/>
        <pt x="1110" y="129" on="0"/>
        <pt x="1182" y="208" on="1"/>
        <pt x="1338" y="378" on="0"/>
        <pt x="1340" y="705" on="1"/>
        <pt x="1340" y="1247" on="1"/>
        <pt x="1340" y="1277" on="0"/>
        <pt x="1331" y="1359" on="0"/>
        <pt x="1331" y="1374" on="1"/>
        <pt x="1331" y="1426" on="0"/>
        <pt x="1380" y="1426" on="1"/>
        <pt x="1424" y="1426" on="0"/>
      </contour>
    </TTGlyph>
    <TTGlyph name="Uacute" xMin="146" yMin="-19" xMax="1424" yMax="1812">
      <contour>
        <pt x="1424" y="1373" on="1"/>
        <pt x="1418" y="1249" on="1"/>
        <pt x="1418" y="651" on="1"/>
        <pt x="1418" y="355" on="0"/>
        <pt x="1248" y="170" on="1"/>
        <pt x="1074" y="-19" on="0"/>
        <pt x="786" y="-19" on="1"/>
        <pt x="478" y="-19" on="0"/>
        <pt x="306" y="174" on="1"/>
        <pt x="146" y="351" on="0"/>
        <pt x="146" y="628" on="1"/>
        <pt x="146" y="1415" on="1"/>
        <pt x="657" y="1415" on="1"/>
        <pt x="657" y="66" on="1"/>
        <pt x="734" y="55" on="0"/>
        <pt x="919" y="55" on="0"/>
        <pt x="1110" y="129" on="0"/>
        <pt x="1182" y="208" on="1"/>
        <pt x="1338" y="378" on="0"/>
        <pt x="1340" y="705" on="1"/>
        <pt x="1340" y="1247" on="1"/>
        <pt x="1340" y="1277" on="0"/>
        <pt x="1331" y="1359" on="0"/>
        <pt x="1331" y="1374" on="1"/>
        <pt x="1331" y="1426" on="0"/>
        <pt x="1380" y="1426" on="1"/>
        <pt x="1424" y="1426" on="0"/>
      </contour>
      <contour>
        <pt x="963" y="1812" on="1"/>
        <pt x="1243" y="1812" on="1"/>
        <pt x="1000" y="1528" on="1"/>
        <pt x="845" y="1528" on="1"/>
      </contour>
    </TTGlyph>
    <TTGlyph name="Ubreve" xMin="146" yMin="-19" xMax="1424" yMax="1823">
      <contour>
        <pt x="1424" y="1373" on="1"/>
        <pt x="1418" y="1249" on="1"/>
        <pt x="1418" y="651" on="1"/>
        <pt x="1418" y="355" on="0"/>
        <pt x="1248" y="170" on="1"/>
        <pt x="1074" y="-19" on="0"/>
        <pt x="786" y="-19" on="1"/>
        <pt x="478" y="-19" on="0"/>
        <pt x="306" y="174" on="1"/>
        <pt x="146" y="351" on="0"/>
        <pt x="146" y="628" on="1"/>
        <pt x="146" y="1415" on="1"/>
        <pt x="657" y="1415" on="1"/>
        <pt x="657" y="66" on="1"/>
        <pt x="734" y="55" on="0"/>
        <pt x="919" y="55" on="0"/>
        <pt x="1110" y="129" on="0"/>
        <pt x="1182" y="208" on="1"/>
        <pt x="1338" y="378" on="0"/>
        <pt x="1340" y="705" on="1"/>
        <pt x="1340" y="1247" on="1"/>
        <pt x="1340" y="1277" on="0"/>
        <pt x="1331" y="1359" on="0"/>
        <pt x="1331" y="1374" on="1"/>
        <pt x="1331" y="1426" on="0"/>
        <pt x="1380" y="1426" on="1"/>
        <pt x="1424" y="1426" on="0"/>
      </contour>
      <contour>
        <pt x="1032" y="1823" on="0"/>
        <pt x="1114" y="1823" on="0"/>
        <pt x="1114" y="1723" on="0"/>
        <pt x="1076" y="1635" on="0"/>
        <pt x="1042" y="1602" on="1"/>
        <pt x="966" y="1530" on="0"/>
        <pt x="850" y="1530" on="1"/>
        <pt x="733" y="1530" on="0"/>
        <pt x="658" y="1600" on="1"/>
        <pt x="583" y="1669" on="0"/>
        <pt x="583" y="1772" on="1"/>
        <pt x="583" y="1795" on="0"/>
        <pt x="607" y="1823" on="0"/>
        <pt x="626" y="1823" on="1"/>
        <pt x="666" y="1823" on="0"/>
        <pt x="674" y="1755" on="1"/>
        <pt x="682" y="1689" on="0"/>
        <pt x="783" y="1603" on="0"/>
        <pt x="888" y="1603" on="0"/>
        <pt x="951" y="1626" on="0"/>
        <pt x="974" y="1647" on="1"/>
        <pt x="1023" y="1689" on="0"/>
      </contour>
    </TTGlyph>
    <TTGlyph name="Ucircumflex" xMin="146" yMin="-19" xMax="1424" yMax="1814">
      <contour>
        <pt x="1424" y="1373" on="1"/>
        <pt x="1418" y="1249" on="1"/>
        <pt x="1418" y="651" on="1"/>
        <pt x="1418" y="355" on="0"/>
        <pt x="1248" y="170" on="1"/>
        <pt x="1074" y="-19" on="0"/>
        <pt x="786" y="-19" on="1"/>
        <pt x="478" y="-19" on="0"/>
        <pt x="306" y="174" on="1"/>
        <pt x="146" y="351" on="0"/>
        <pt x="146" y="628" on="1"/>
        <pt x="146" y="1415" on="1"/>
        <pt x="657" y="1415" on="1"/>
        <pt x="657" y="66" on="1"/>
        <pt x="734" y="55" on="0"/>
        <pt x="919" y="55" on="0"/>
        <pt x="1110" y="129" on="0"/>
        <pt x="1182" y="208" on="1"/>
        <pt x="1338" y="378" on="0"/>
        <pt x="1340" y="705" on="1"/>
        <pt x="1340" y="1247" on="1"/>
        <pt x="1340" y="1277" on="0"/>
        <pt x="1331" y="1359" on="0"/>
        <pt x="1331" y="1374" on="1"/>
        <pt x="1331" y="1426" on="0"/>
        <pt x="1380" y="1426" on="1"/>
        <pt x="1424" y="1426" on="0"/>
      </contour>
      <contour>
        <pt x="615" y="1574" on="1"/>
        <pt x="585" y="1544" on="1"/>
        <pt x="563" y="1522" on="0"/>
        <pt x="529" y="1522" on="0"/>
        <pt x="508" y="1543" on="0"/>
        <pt x="508" y="1557" on="1"/>
        <pt x="508" y="1583" on="0"/>
        <pt x="549" y="1618" on="1"/>
        <pt x="562" y="1631" on="0"/>
        <pt x="602" y="1666" on="0"/>
        <pt x="640" y="1704" on="1"/>
        <pt x="750" y="1814" on="1"/>
        <pt x="1005" y="1814" on="1"/>
        <pt x="1268" y="1530" on="1"/>
        <pt x="960" y="1530" on="1"/>
        <pt x="780" y="1744" on="1"/>
        <pt x="655" y="1618" on="0"/>
        <pt x="623" y="1582" on="0"/>
      </contour>
    </TTGlyph>
</ttFont>
